<?xml version="1.0" standalone="no"?>
<!DOCTYPE svg PUBLIC "-//W3C//DTD SVG 20010904//EN"
 "http://www.w3.org/TR/2001/REC-SVG-20010904/DTD/svg10.dtd">
<svg version="1.0" xmlns="http://www.w3.org/2000/svg"
 width="1280.000000pt" height="1280.000000pt" viewBox="0 0 1280.000000 1280.000000"
 preserveAspectRatio="xMidYMid meet">
<metadata>
Created by potrace 1.15, written by Peter Selinger 2001-2017
</metadata>
<g transform="translate(0.000000,1280.000000) scale(0.100000,-0.100000)"
fill="#edb176" stroke="none">
<path d="M6105 12794 c-27 -2 -117 -8 -200 -14 -1256 -90 -2496 -578 -3490
-1373 -269 -216 -550 -481 -785 -744 -797 -887 -1325 -1976 -1534 -3163 -66
-375 -91 -671 -91 -1105 0 -632 69 -1145 231 -1725 612 -2185 2355 -3896 4549
-4465 544 -141 1018 -200 1610 -200 354 0 502 9 800 46 1649 203 3163 1053
4212 2364 731 914 1197 2020 1343 3185 36 294 45 441 45 795 0 354 -9 502 -46
800 -297 2412 -1968 4467 -4279 5260 -490 168 -973 270 -1515 321 -149 13
-738 26 -850 18z m883 -5568 c5 -3 688 -6 1516 -6 828 0 1506 -2 1506 -5 0 -3
-796 -803 -1769 -1778 l-1770 -1772 -1785 1785 c-983 982 -1786 1787 -1786
1790 0 7 4076 -6 4088 -14z"/>
</g>
</svg>
