<?xml version="1.0" standalone="no"?>
<!DOCTYPE svg PUBLIC "-//W3C//DTD SVG 20010904//EN"
 "http://www.w3.org/TR/2001/REC-SVG-20010904/DTD/svg10.dtd">
<svg version="1.0" xmlns="http://www.w3.org/2000/svg"
 width="1076.000000pt" height="1280.000000pt" viewBox="0 0 1076.000000 1280.000000"
 preserveAspectRatio="xMidYMid meet">
<metadata>
Created by potrace 1.15, written by Peter Selinger 2001-2017
</metadata>
<g transform="translate(0.000000,1280.000000) scale(0.100000,-0.100000)"
fill="#edb176" stroke="none">
<path d="M4157 11638 c-4 -640 -7 -2557 -7 -4261 l0 -3097 -702 697 c-2422
2403 -3063 3039 -3270 3243 l-178 174 0 -1504 1 -1505 2689 -2695 2689 -2695
1283 1280 c706 704 1916 1912 2691 2685 l1407 1405 -2 1507 -3 1508 -410 -408
c-225 -224 -986 -979 -1690 -1677 -704 -698 -1459 -1448 -1678 -1665 -219
-217 -401 -396 -405 -398 -4 -1 -7 1925 -7 4280 l0 4283 -1201 3 -1201 2 -6
-1162z"/>
</g>
</svg>
