<svg width="1279" height="1094" xmlns="http://www.w3.org/2000/svg" preserveAspectRatio="xMidYMid meet">

 <metadata width="0" height="0">Created by potrace 1.15, written by Peter Selinger 2001-2017</metadata>
 <g width="0" height="0">
  <title width="0" height="0">Layer 1</title>
  <g transform="rotate(270 639.55 550.632) matrix(1 0 0 1 91.8318 -89.9185)" id="imagebot_1" fill="#edb176" width="0" height="0">
   <path id="imagebot_2" transform="matrix(0.1 0 0 -0.1 0 1280)" fill="#edb176" d="M5302,12523C4834,11822 4517,11285 4226,10700C3900,10045 3728,9561 3664,9120C3640,8954 3649,8699 3684,8534C3744,8253 3859,7949 4183,7220C4584,6316 4724,5970 4868,5530C4945,5294 5060,4875 5060,4830C5060,4824 5001,4820 4901,4820L4743,4820L4731,4883C4698,5051 4617,5347 4543,5569C4268,6394 3844,7173 3342,7780C3220,7927 2934,8213 2806,8314C2510,8551 2195,8707 1920,8755C1799,8776 1588,8776 1485,8755C1283,8714 989,8590 802,8467C369,8182 108,7757 23,7200C2,7057 -1,6672 18,6530C66,6182 155,5860 285,5565C346,5428 438,5250 448,5250C452,5251 480,5294 510,5347C748,5762 994,6065 1230,6232C1511,6432 1853,6523 2208,6492C2806,6439 3238,6077 3595,5327C3654,5203 3800,4849 3800,4830C3800,4825 3779,4818 3753,4815C3585,4792 3445,4697 3382,4562C3358,4512 3355,4492 3355,4405C3355,4315 3358,4299 3384,4245C3425,4162 3503,4087 3592,4045C3676,4005 3760,3990 3902,3990L3998,3990L4005,3905C4017,3768 4005,3377 3986,3277C3930,2980 3818,2781 3667,2707C3556,2654 3358,2634 3242,2664C3030,2721 2845,2892 2636,3227L2587,3305L2573,3271C2546,3206 2491,2972 2469,2829C2436,2618 2436,2265 2468,2097C2534,1750 2672,1505 2895,1344C2975,1286 3136,1214 3250,1185C4100,972 4677,1803 4804,3420C4812,3522 4822,3692 4826,3798L4833,3990L5010,3990C5186,3990 5188,3990 5194,3968C5208,3918 5213,3463 5201,3325C5164,2893 5079,2574 4831,1933C4765,1761 4695,1570 4678,1508C4648,1404 4645,1384 4646,1255C4646,1130 4649,1106 4674,1031C4777,719 5027,387 5378,93L5490,-1L5568,62C5610,96 5701,178 5769,245C5983,453 6136,656 6235,863C6356,1115 6368,1294 6283,1564C6269,1608 6208,1773 6148,1930C5958,2422 5897,2611 5841,2883C5780,3178 5759,3487 5775,3833L5782,3990L5951,3990L6120,3990L6120,3913C6120,3733 6147,3341 6176,3110C6297,2124 6608,1470 7065,1241C7191,1178 7291,1156 7445,1155C7779,1154 8078,1300 8268,1555C8510,1881 8575,2461 8436,3065C8413,3164 8368,3300 8358,3300C8354,3300 8350,3296 8350,3291C8350,3273 8170,3012 8106,2937C7985,2796 7847,2701 7710,2665C7592,2634 7395,2653 7284,2707C7115,2789 7000,3014 6954,3350C6938,3470 6933,3808 6945,3923L6952,3987L7109,3993C7225,3997 7281,4003 7327,4018C7448,4056 7548,4142 7598,4248C7622,4298 7625,4317 7625,4410C7625,4506 7622,4520 7596,4569C7522,4711 7387,4798 7213,4816C7178,4820 7150,4827 7150,4832C7150,4846 7264,5128 7324,5261C7605,5885 7966,6274 8400,6423C8633,6503 8933,6519 9194,6465C9583,6385 9901,6149 10207,5715C10277,5615 10461,5322 10482,5275C10488,5261 10497,5250 10501,5250C10514,5250 10656,5538 10709,5671C10942,6257 11009,6874 10894,7375C10789,7837 10537,8207 10155,8465C9986,8578 9650,8720 9462,8756C9361,8775 9146,8775 9033,8755C8756,8707 8440,8551 8144,8314C8017,8213 7731,7928 7609,7780C7006,7052 6515,6072 6270,5105C6249,5023 6226,4925 6219,4887L6206,4820L6058,4820C5945,4820 5912,4823 5915,4833C5917,4839 5933,4904 5950,4975C6044,5362 6223,5888 6429,6382C6478,6500 6618,6821 6740,7095C6980,7635 7048,7794 7115,7967C7186,8149 7268,8413 7297,8548C7321,8661 7324,8697 7324,8870C7325,9013 7320,9094 7306,9174C7185,9902 6712,10913 5902,12180C5732,12445 5498,12790 5488,12790C5484,12790 5400,12670 5302,12523z" width="0" height="0"/>
  </g>
 </g>
</svg>