<svg width="1280" height="362" xmlns="http://www.w3.org/2000/svg" preserveAspectRatio="xMidYMid meet">

 <metadata width="0" height="0">Created by potrace 1.15, written by Peter Selinger 2001-2017</metadata>
 <g width="0" height="0">
  <title width="0" height="0">Layer 1</title>
  <g transform="rotate(450 640 180.905) matrix(1 0 0 1 312.095 -459.095)" id="imagebot_1" fill="#edb176" width="0" height="0">
   <path id="imagebot_2" transform="matrix(0.1 0 0 -0.1 0 1280)" fill="#edb176" d="M2970,12502L2970,12204L2940,12159C2853,12029 2778,11940 2755,11940C2738,11940 2672,11868 2661,11837C2624,11740 2650,11093 2702,10827C2712,10774 2716,10767 2755,10744C2778,10731 2804,10722 2811,10725C2822,10729 2825,10721 2825,10691C2825,10662 2833,10643 2851,10623C2877,10595 2882,10555 2866,10517C2861,10507 2863,10494 2870,10485C2879,10474 2876,10443 2856,10341C2821,10165 2798,10113 2571,9695C2375,9336 2308,9179 2275,9005C2259,8918 2255,8737 2269,8678L2278,8641L2196,8579C2092,8498 1927,8354 1874,8298C1804,8224 1636,8010 1570,7910C1490,7790 1470,7739 1470,7651C1470,7502 1534,7352 1667,7191C1697,7154 1748,7091 1780,7048C1813,7006 1877,6937 1923,6895L2006,6819L1973,6752C1853,6509 1879,6243 2057,5895C2141,5729 2188,5653 2363,5403C2441,5291 2560,5120 2627,5022L2749,4845L2750,4752C2750,4653 2752,4633 2801,4326L2832,4127L2807,4108C2770,4081 2692,3970 2637,3866C2592,3781 2590,3775 2590,3694C2590,3648 2594,3580 2600,3543C2605,3505 2614,3408 2620,3325C2630,3179 2665,3014 2705,2922C2713,2904 2727,2858 2736,2820C2756,2729 2783,2707 2869,2712C2902,2713 2932,2711 2937,2706C2941,2702 2946,2626 2948,2537C2949,2448 2954,2332 2958,2280C2962,2228 2966,1836 2968,1410C2969,984 2973,492 2976,318L2983,0L3367,0L3752,0L3745,474C3740,810 3741,950 3749,955C3757,959 3757,967 3749,981C3743,994 3736,1245 3731,1710C3727,2100 3721,2423 3717,2426C3714,2430 3715,2440 3720,2450C3725,2460 3726,2489 3721,2519C3717,2547 3717,2570 3721,2570C3734,2570 3743,2619 3732,2633C3727,2639 3720,2657 3716,2672C3710,2698 3712,2700 3742,2700C3820,2700 3945,2723 3960,2740C3969,2749 3986,2763 3999,2770C4022,2782 4022,2785 4015,2872C4011,2922 4002,2981 3994,3003C3982,3036 3982,3055 3990,3097C4014,3209 3999,3580 3970,3615C3962,3624 3962,3635 3968,3646C3973,3656 3975,3698 3973,3741C3970,3785 3972,3831 3978,3849C3992,3890 3976,3936 3941,3954C3927,3962 3892,3971 3865,3975C3763,3988 3758,3990 3764,4013C3767,4025 3781,4168 3795,4330C3809,4492 3825,4655 3830,4692C3842,4778 3904,5006 3922,5028C3970,5089 4092,5235 4195,5355C4262,5432 4357,5542 4407,5600C4688,5929 4816,6164 4828,6376C4833,6482 4821,6548 4778,6633L4748,6691L4852,6806C5006,6977 5017,6993 5044,7080C5106,7274 5102,7591 5036,7718C5027,7735 4982,7803 4935,7869C4815,8037 4637,8231 4463,8380L4411,8425L4422,8470C4428,8495 4433,8578 4433,8655C4432,8775 4429,8807 4407,8881C4377,8981 4309,9143 4267,9214C4251,9241 4218,9303 4194,9352C4170,9400 4131,9470 4108,9507C4037,9623 3889,9892 3854,9968C3810,10065 3755,10245 3736,10355C3724,10424 3721,10480 3726,10591L3733,10738L3769,10744C3789,10747 3825,10750 3850,10750C3875,10751 3915,10761 3940,10773L3985,10795L3987,10900C3988,10958 3984,11029 3978,11058C3969,11099 3970,11115 3980,11135C3998,11168 3999,11555 3981,11627C3970,11671 3971,11681 3984,11703C3998,11723 3999,11744 3994,11829C3987,11927 3986,11932 3957,11952C3929,11972 3837,11987 3723,11989L3691,11990L3697,12395L3703,12800L3337,12800L2970,12800L2970,12502zM3002,9373L3019,9326L2978,9270C2922,9196 2800,9060 2789,9060C2784,9060 2796,9093 2816,9133C2872,9243 2973,9420 2979,9420C2982,9420 2993,9399 3002,9373zM3789,9067C3845,8968 3890,8887 3888,8885C3885,8882 3832,8944 3670,9139C3639,9175 3602,9227 3586,9254L3557,9303L3579,9348L3601,9393L3644,9319C3667,9278 3732,9165 3789,9067zM3424,8737C3515,8636 3686,8475 3823,8362L3901,8297L3878,8273C3819,8209 3444,7940 3414,7940C3390,7940 3021,8219 2920,8314C2851,8378 2770,8470 2770,8483C2770,8486 2830,8537 2903,8597C2975,8656 3087,8753 3150,8813L3265,8922L3300,8879C3319,8855 3375,8791 3424,8737zM2410,8201C2410,8196 2433,8157 2461,8114C2525,8016 2716,7820 2838,7728C2888,7689 2930,7656 2930,7654C2930,7653 2893,7629 2847,7601C2719,7524 2496,7354 2393,7256L2301,7168L2228,7225C2188,7256 2129,7306 2098,7336C2023,7409 1996,7487 1996,7635C1995,7723 1999,7745 2027,7824C2045,7872 2070,7927 2084,7945C2108,7976 2387,8209 2403,8210C2407,8210 2410,8206 2410,8201zM4398,7870C4470,7804 4540,7735 4553,7718C4581,7680 4643,7555 4665,7491C4698,7396 4675,7251 4608,7141C4567,7073 4543,7057 4527,7085C4484,7160 4134,7464 3942,7592L3858,7648L3952,7711C4007,7748 4088,7818 4150,7881C4208,7939 4258,7988 4261,7989C4265,7989 4327,7936 4398,7870zM3399,7331C3600,7207 3875,7022 4006,6925L4163,6808L4067,6746C4014,6713 3906,6645 3828,6597C3749,6549 3629,6469 3560,6420C3491,6371 3427,6326 3417,6320C3403,6311 3388,6320 3327,6377C3203,6495 2795,6815 2668,6895C2641,6912 2620,6928 2620,6931C2620,6941 2831,7075 2960,7147C3029,7186 3141,7249 3210,7288C3279,7327 3339,7359 3344,7359C3349,7360 3374,7347 3399,7331zM2557,6389C2696,6284 2984,6045 3022,6003C3039,5985 3037,5981 2979,5911C2916,5834 2855,5735 2813,5643L2787,5588L2737,5666C2505,6028 2417,6226 2403,6418C2400,6463 2400,6500 2403,6500C2407,6500 2476,6450 2557,6389zM4315,6343C4260,6207 4159,6059 3950,5808L3852,5691L3806,5786C3781,5838 3747,5900 3731,5924L3700,5968L3737,5996C3767,6019 4330,6398 4337,6400C4338,6400 4328,6374 4315,6343zM3384,5513C3429,5412 3447,5340 3458,5225C3466,5142 3465,5132 3444,5090C3432,5065 3394,4963 3360,4865C3290,4663 3279,4637 3272,4660C3269,4668 3245,4723 3219,4782C3192,4841 3170,4895 3170,4903C3170,4910 3161,4935 3150,4958C3126,5007 3125,5060 3145,5171C3167,5291 3196,5373 3248,5470C3303,5572 3331,5613 3341,5603C3345,5598 3365,5558 3384,5513z" width="0" height="0"/>
  </g>
 </g>
</svg>