<?xml version="1.0" standalone="no"?>
<!DOCTYPE svg PUBLIC "-//W3C//DTD SVG 20010904//EN"
 "http://www.w3.org/TR/2001/REC-SVG-20010904/DTD/svg10.dtd">
<svg version="1.0" xmlns="http://www.w3.org/2000/svg"
 width="680.000000pt" height="1280.000000pt" viewBox="0 0 680.000000 1280.000000"
 preserveAspectRatio="xMidYMid meet">
<metadata>
Created by potrace 1.15, written by Peter Selinger 2001-2017
</metadata>
<g transform="translate(0.000000,1280.000000) scale(0.100000,-0.100000)"
fill="#edb176" stroke="none">
<path d="M2970 12502 l0 -298 -30 -45 c-87 -130 -162 -219 -185 -219 -17 0
-83 -72 -94 -103 -37 -97 -11 -744 41 -1010 10 -53 14 -60 53 -83 23 -13 49
-22 56 -19 11 4 14 -4 14 -34 0 -29 8 -48 26 -68 26 -28 31 -68 15 -106 -5
-10 -3 -23 4 -32 9 -11 6 -42 -14 -144 -35 -176 -58 -228 -285 -646 -196 -359
-263 -516 -296 -690 -16 -87 -20 -268 -6 -327 l9 -37 -82 -62 c-104 -81 -269
-225 -322 -281 -70 -74 -238 -288 -304 -388 -80 -120 -100 -171 -100 -259 0
-149 64 -299 197 -460 30 -37 81 -100 113 -143 33 -42 97 -111 143 -153 l83
-76 -33 -67 c-120 -243 -94 -509 84 -857 84 -166 131 -242 306 -492 78 -112
197 -283 264 -381 l122 -177 1 -93 c0 -99 2 -119 51 -426 l31 -199 -25 -19
c-37 -27 -115 -138 -170 -242 -45 -85 -47 -91 -47 -172 0 -46 4 -114 10 -151
5 -38 14 -135 20 -218 10 -146 45 -311 85 -403 8 -18 22 -64 31 -102 20 -91
47 -113 133 -108 33 1 63 -1 68 -6 4 -4 9 -80 11 -169 1 -89 6 -205 10 -257 4
-52 8 -444 10 -870 1 -426 5 -918 8 -1092 l7 -318 384 0 385 0 -7 474 c-5 336
-4 476 4 481 8 4 8 12 0 26 -6 13 -13 264 -18 729 -4 390 -10 713 -14 716 -3
4 -2 14 3 24 5 10 6 39 1 69 -4 28 -4 51 0 51 13 0 22 49 11 63 -5 6 -12 24
-16 39 -6 26 -4 28 26 28 78 0 203 23 218 40 9 9 26 23 39 30 23 12 23 15 16
102 -4 50 -13 109 -21 131 -12 33 -12 52 -4 94 24 112 9 483 -20 518 -8 9 -8
20 -2 31 5 10 7 52 5 95 -3 44 -1 90 5 108 14 41 -2 87 -37 105 -14 8 -49 17
-76 21 -102 13 -107 15 -101 38 3 12 17 155 31 317 14 162 30 325 35 362 12
86 74 314 92 336 48 61 170 207 273 327 67 77 162 187 212 245 281 329 409
564 421 776 5 106 -7 172 -50 257 l-30 58 104 115 c154 171 165 187 192 274
62 194 58 511 -8 638 -9 17 -54 85 -101 151 -120 168 -298 362 -472 511 l-52
45 11 45 c6 25 11 108 11 185 -1 120 -4 152 -26 226 -30 100 -98 262 -140 333
-16 27 -49 89 -73 138 -24 48 -63 118 -86 155 -71 116 -219 385 -254 461 -44
97 -99 277 -118 387 -12 69 -15 125 -10 236 l7 147 36 6 c20 3 56 6 81 6 25 1
65 11 90 23 l45 22 2 105 c1 58 -3 129 -9 158 -9 41 -8 57 2 77 18 33 19 420
1 492 -11 44 -10 54 3 76 14 20 15 41 10 126 -7 98 -8 103 -37 123 -28 20
-120 35 -234 37 l-32 1 6 405 6 405 -366 0 -367 0 0 -298z m32 -3129 l17 -47
-41 -56 c-56 -74 -178 -210 -189 -210 -5 0 7 33 27 73 56 110 157 287 163 287
3 0 14 -21 23 -47z m787 -306 c56 -99 101 -180 99 -182 -3 -3 -56 59 -218 254
-31 36 -68 88 -84 115 l-29 49 22 45 22 45 43 -74 c23 -41 88 -154 145 -252z
m-365 -330 c91 -101 262 -262 399 -375 l78 -65 -23 -24 c-59 -64 -434 -333
-464 -333 -24 0 -393 279 -494 374 -69 64 -150 156 -150 169 0 3 60 54 133
114 72 59 184 156 247 216 l115 109 35 -43 c19 -24 75 -88 124 -142z m-1014
-536 c0 -5 23 -44 51 -87 64 -98 255 -294 377 -386 50 -39 92 -72 92 -74 0 -1
-37 -25 -83 -53 -128 -77 -351 -247 -454 -345 l-92 -88 -73 57 c-40 31 -99 81
-130 111 -75 73 -102 151 -102 299 -1 88 3 110 31 189 18 48 43 103 57 121 24
31 303 264 319 265 4 0 7 -4 7 -9z m1988 -331 c72 -66 142 -135 155 -152 28
-38 90 -163 112 -227 33 -95 10 -240 -57 -350 -41 -68 -65 -84 -81 -56 -43 75
-393 379 -585 507 l-84 56 94 63 c55 37 136 107 198 170 58 58 108 107 111
108 4 0 66 -53 137 -119z m-999 -539 c201 -124 476 -309 607 -406 l157 -117
-96 -62 c-53 -33 -161 -101 -239 -149 -79 -48 -199 -128 -268 -177 -69 -49
-133 -94 -143 -100 -14 -9 -29 0 -90 57 -124 118 -532 438 -659 518 -27 17
-48 33 -48 36 0 10 211 144 340 216 69 39 181 102 250 141 69 39 129 71 134
71 5 1 30 -12 55 -28z m-842 -942 c139 -105 427 -344 465 -386 17 -18 15 -22
-43 -92 -63 -77 -124 -176 -166 -268 l-26 -55 -50 78 c-232 362 -320 560 -334
752 -3 45 -3 82 0 82 4 0 73 -50 154 -111z m1758 -46 c-55 -136 -156 -284
-365 -535 l-98 -117 -46 95 c-25 52 -59 114 -75 138 l-31 44 37 28 c30 23 593
402 600 404 1 0 -9 -26 -22 -57z m-931 -830 c45 -101 63 -173 74 -288 8 -83 7
-93 -14 -135 -12 -25 -50 -127 -84 -225 -70 -202 -81 -228 -88 -205 -3 8 -27
63 -53 122 -27 59 -49 113 -49 121 0 7 -9 32 -20 55 -24 49 -25 102 -5 213 22
120 51 202 103 299 55 102 83 143 93 133 4 -5 24 -45 43 -90z"/>
</g>
</svg>
