<!-- icon666.com - MILLIONS vector ICONS FREE --><svg id="Capa_1" enable-background="new 0 0 511.854 511.854" viewBox="0 0 511.854 511.854" xmlns="http://www.w3.org/2000/svg"><g><path d="m434.924 316.854h-13.681c6.032 9.317 10.972 19.386 14.688 30.026 23.798.539 42.996 20.051 42.996 43.977v105.998c0 8.284 6.716 15 15 15s15-6.716 15-15v-105.998c0-40.805-33.198-74.003-74.003-74.003z" fill="#000000" style="fill: rgb(237, 177, 118);"></path><path d="m159.927 86.835v101.02h113v-101.02c3.637-2.737 6-7.077 6-11.98 0-8.284-6.716-15-15-15h-95c-8.284 0-15 6.716-15 15 0 4.903 2.362 9.242 6 11.98z" fill="#000000" style="fill: rgb(237, 177, 118);"></path><path d="m325.234 284.84-13.503-2.873c-19.508-4.151-33.982-19.129-37.8-37.958 3.06-2.746 4.996-6.719 4.996-11.154 0-8.284-6.716-15-15-15h-95c-8.284 0-15 6.716-15 15 0 4.435 1.936 8.408 4.996 11.155-3.817 18.83-18.293 33.81-37.802 37.96l-13.499 2.873c-37.144 7.902-66.303 32.982-80.055 66.013h377.721c-13.751-33.032-42.91-58.113-80.054-66.016z" fill="#000000" style="fill: rgb(237, 177, 118);"></path><path d="m429.927 395.854c0-8.284-6.716-15-15-15h-397c-8.284 0-15 6.716-15 15 0 4.437 1.938 8.412 5 11.158v78.684c-3.062 2.746-5 6.721-5 11.158 0 8.284 6.716 15 15 15h397c8.284 0 15-6.716 15-15 0-4.437-1.938-8.411-5-11.157v-78.685c3.062-2.747 5-6.721 5-11.158z" fill="#000000" style="fill: rgb(237, 177, 118);"></path><path d="m272.927 15c0-8.284-6.716-15-15-15h-83c-8.284 0-15 6.716-15 15v14.565h113z" fill="#000000" style="fill: rgb(237, 177, 118);"></path></g></svg>