<!-- icon666.com - MILLIONS vector ICONS FREE --><svg id="Layer_1" enable-background="new 0 0 512 512" viewBox="0 0 512 512" xmlns="http://www.w3.org/2000/svg"><g id="XMLID_1292_"><g id="XMLID_1220_"><path id="XMLID_1306_" d="m486 448.572v-128.572c0-5.522-4.478-10-10-10h-26v-13.946c0-25.477-17.16-47.712-41.731-54.071-52.257-13.528-89.671-58.784-93.87-111.982h1.268c5.522 0 10-4.478 10-10v-48.001c0-5.522-4.478-10-10-10h-1.667v-52c0-5.522-4.478-10-10-10h-48c-5.522 0-10 4.478-10 10v52h-1.667c-5.522 0-10 4.478-10 10v48c0 5.522 4.478 10 10 10h1.268c-3.374 42.754-28.203 80.376-64.949 100.523l-37.212-85.509c-6.613-15.196-21.594-25.014-38.168-25.014h-23.647c-22.952 0-41.625 18.673-41.625 41.624v107.876c0 7.995-6.505 14.5-14.5 14.5h-15.5c-5.522 0-10 4.478-10 10s4.478 10 10 10h15.5c19.023 0 34.5-15.477 34.5-34.5v-107.876c0-11.924 9.701-21.624 21.625-21.624h23.647c8.61 0 16.394 5.101 19.829 12.995l37.301 85.712c-3.482 1.238-7.04 2.335-10.671 3.275-24.571 6.36-41.731 28.595-41.731 54.072v13.946h-26c-5.522 0-10 4.478-10 10v128.572c-14.785 2.818-26 15.835-26 31.428 0 17.645 14.355 32 32 32h400c17.645 0 32-14.355 32-32 0-15.593-11.215-28.61-26-31.428zm-231.667-338.572v-28h51.334v28zm11.667-90h28v42h-28zm-172 310h141c5.522 0 10-4.478 10-10s-4.478-10-10-10h-105v-13.946c0-16.361 10.997-30.634 26.743-34.71 61.086-15.812 104.678-69.019 108.918-131.344h28.678c4.24 62.325 47.832 115.532 108.918 131.344 15.746 4.076 26.743 18.348 26.743 34.71v13.946h-105c-5.522 0-10 4.478-10 10s4.478 10 10 10h141v118h-372zm386 162h-400c-6.617 0-12-5.383-12-12s5.383-12 12-12h400c6.617 0 12 5.383 12 12s-5.383 12-12 12z" fill="#000000" style="fill: rgb(237, 177, 118);"></path><path id="XMLID_1315_" d="m280 309.995c-2.63 0-5.21 1.069-7.07 2.93s-2.93 4.44-2.93 7.07c0 2.64 1.069 5.21 2.93 7.08 1.86 1.859 4.44 2.92 7.07 2.92s5.21-1.061 7.069-2.92c1.86-1.87 2.931-4.44 2.931-7.08 0-2.63-1.07-5.21-2.931-7.07-1.859-1.861-4.439-2.93-7.069-2.93z" fill="#000000" style="fill: rgb(237, 177, 118);"></path></g></g></svg>