<!-- icon666.com - MILLIONS vector ICONS FREE --><svg id="Capa_1" enable-background="new 0 0 498.43 498.43" viewBox="0 0 498.43 498.43" xmlns="http://www.w3.org/2000/svg"><g><path d="m404.655 79.16h82.5c1.631-.003 2.951-1.328 2.947-2.959-.003-1.626-1.321-2.944-2.947-2.947h-384.918c-28.546-.033-53.981-18.027-63.515-44.934l-9.302-26.359c-.548-1.536-2.238-2.337-3.774-1.788-1.527.545-2.329 2.219-1.796 3.751l9.302 26.363c10.366 29.268 38.034 48.842 69.084 48.873h23.483c-14.841 8.051-24.107 23.558-24.166 40.442v23.424h5.907v-23.424c.026-22.325 18.117-40.416 40.442-40.442h231.335c-20.119 9.737-32.912 30.106-32.945 52.457v32.63h5.907v-32.63c.034-28.957 23.499-52.422 52.456-52.457z" fill="#000000" style="fill: rgb(237, 177, 118);"></path><path d="m468.276 318.241c1.63.001 2.952-1.319 2.953-2.948 0-.002 0-.003 0-.005v-53.149c-.055-50.232-40.762-90.939-90.994-90.994h-61.981c-50.232.055-90.939 40.762-90.994 90.994v53.149c-.001 1.63 1.319 2.952 2.948 2.953h.005c2.083 0 4.115-.209 6.174-.313-.897 2.277-1.804 4.526-2.566 7.072-1.064 3.555-2.028 7.302-2.819 11.345-9.475 48.388 34.247 111.494 36.113 114.158.911 1.301 2.687 1.649 4.021.789 8.199-5.492 16.077-11.45 23.595-17.842 13.188 24.512 30.862 46.328 52.103 64.316.529.43 1.19.665 1.871.664.674.003 1.329-.228 1.852-.654 20.874-17.39 38.435-38.409 51.835-62.044 6.68 5.54 13.64 10.734 20.852 15.561 1.335.861 3.111.512 4.021-.789 1.866-2.655 45.593-65.771 36.117-114.158-.806-4.108-1.793-7.902-2.878-11.505-.774-2.569-1.695-4.832-2.605-7.125 3.43.29 6.874.525 10.377.525zm-173.308-18.791c.985 2.104 1.999 4.189 3.065 6.25 4.899 9.366 10.442 18.381 16.589 26.98-13.286 14.469-28.139 27.416-44.284 38.605-9.704-14.881-17.916-30.684-24.515-47.179-.845-2.164-1.61-4.391-2.388-6.613 18.329-2.009 35.955-8.181 51.533-18.043zm23.21 38.151c8.813 11.911 18.513 23.139 29.018 33.589 1.143 1.103 2.955 1.103 4.098 0 9.785-9.745 18.872-20.166 27.193-31.186 6.536 6.958 13.465 13.536 20.754 19.701-12.791 25.981-29.671 49.739-49.996 70.368-21.011-21.266-38.289-45.919-51.109-72.925 7.056-6.12 13.748-12.647 20.042-19.547zm63.877-2.403c6.862-9.359 13.013-19.22 18.401-29.498 1.066-2.06 2.08-4.145 3.065-6.249 14.469 9.116 30.705 15.062 47.639 17.446-.785 2.27-1.561 4.547-2.418 6.757-6.629 16.659-14.903 32.614-24.699 47.631-15.203-10.548-29.275-22.642-41.988-36.087zm83.267-73.059v50.158c-62.903-1.675-113.048-53.11-113.124-116.035v-19.211h28.037c46.97.054 85.033 38.118 85.087 85.088zm-66.833 34.023c-.979 2.119-2.042 4.201-3.113 6.281-12.436 22.835-27.959 43.848-46.132 62.446-18.172-18.598-33.696-39.611-46.132-62.447-1.07-2.081-2.133-4.162-3.113-6.281 25.025-17.492 42.593-43.721 49.244-73.52 6.653 29.799 24.222 56.028 49.246 73.521zm-165.322 16.134v-50.158c.054-46.97 38.117-85.033 85.087-85.087h28.037v19.211c-.076 62.925-50.221 114.36-113.124 116.034zm37.176 132.407c-7.879-12.006-41.529-66.406-33.54-107.223.807-4.142 1.851-8.234 3.126-12.257 7.13 18.233 16.246 35.625 27.185 51.862.911 1.301 2.687 1.649 4.021.789.508-.329 6.31-4.109 14.517-10.467-1.495 7.601-2.219 15.333-2.161 23.079.266 12.933 3.206 25.671 8.636 37.413-6.974 5.963-14.245 11.571-21.784 16.804zm78.378 46.897c-10.24-8.937-59.321-54.246-59.321-101.114-.204-9.89 1.119-19.753 3.921-29.239l.087-.073c13.528 27.939 31.717 53.369 53.787 75.199 1.143 1.103 2.955 1.103 4.098 0 21.415-21.218 39.215-45.796 52.696-72.76.788.637 1.613 1.325 2.369 1.924 1.915 8.176 2.832 16.553 2.73 24.95.002 46.838-49.988 92.205-60.367 101.113zm75.318-46.897c-3.511-2.417-10.584-7.484-18.876-14.348 6.17-12.405 9.527-26.018 9.834-39.869-.012-6.566-.573-13.119-1.675-19.591 5.722 4.247 9.529 6.725 9.924 6.98 1.335.861 3.111.512 4.021-.789 10.942-16.244 20.063-33.642 27.198-51.881 1.272 4.03 2.313 8.128 3.119 12.276 7.989 40.817-25.666 95.217-33.545 107.222z" fill="#000000" style="fill: rgb(237, 177, 118);"></path><path d="m197.728 266.41c1.63.001 2.952-1.319 2.953-2.948 0-.002 0-.003 0-.005v-22.54c-.055-50.232-40.762-90.939-90.994-90.994h-10.365c-50.232.055-90.939 40.762-90.994 90.994v22.54c-.001 1.63 1.319 2.952 2.948 2.953h.005c1.313 0 2.59-.145 3.89-.197-.83 2.205-1.592 4.53-2.267 7.035-.577 2.14-1.179 4.238-1.638 6.582-7.47 38.162 26.926 87.8 28.393 89.888.911 1.301 2.687 1.649 4.021.789 6.224-4.162 12.209-8.67 17.927-13.503 10.35 18.98 24.116 35.885 40.605 49.866.529.43 1.19.665 1.871.664.674.003 1.329-.228 1.852-.654 16.211-13.511 29.889-29.797 40.395-48.098 5.061 4.172 10.329 8.085 15.784 11.725 1.335.86 3.11.512 4.021-.789 1.467-2.087 35.863-51.726 28.393-89.888-.469-2.39-1.086-4.523-1.676-6.702-.684-2.522-1.455-4.861-2.297-7.081 2.378.176 4.752.363 7.173.363zm-2.953-25.493v19.538c-48.654-1.647-87.26-41.538-87.314-90.219v-14.406h2.227c46.97.054 85.033 38.117 85.087 85.087zm-133.052 11.05c.992 2.089 2.031 4.149 3.119 6.18 3.521 6.527 7.437 12.832 11.726 18.882-10.138 10.978-21.431 20.828-33.685 29.38-6.964-10.793-12.94-22.193-17.855-34.06-.886-2.176-1.722-4.39-2.525-6.651 13.923-1.639 27.315-6.327 39.22-13.731zm18.378 29.924c6.805 9.143 14.278 17.769 22.358 25.807 1.143 1.103 2.955 1.103 4.098 0 7.511-7.475 14.497-15.462 20.906-23.901 4.872 5.142 10.017 10.017 15.414 14.604-9.868 19.916-22.817 38.15-38.369 54.029-16.1-16.382-29.367-35.325-39.26-56.055 5.213-4.552 10.171-9.387 14.853-14.484zm50.929-2.898c4.837-6.65 9.227-13.614 13.139-20.847 1.088-2.031 2.128-4.091 3.118-6.18 11.031 6.837 23.341 11.351 36.176 13.266-.795 2.262-1.624 4.481-2.504 6.661-4.951 12.031-10.991 23.585-18.046 34.516-11.517-8.051-22.198-17.235-31.883-27.416zm11.235-30.323c-.978 2.093-1.987 4.173-3.075 6.216-9.484 16.947-21.144 32.58-34.683 46.502-13.542-13.92-25.203-29.553-34.687-46.5-1.088-2.042-2.097-4.123-3.075-6.216 18.779-13.302 32.174-32.889 37.761-55.214 5.588 22.323 18.982 41.909 37.759 55.212zm-128.031 11.785v-19.538c.054-46.97 38.117-85.034 85.088-85.088h2.232v14.406c-.056 48.683-38.664 88.573-87.32 90.22zm28.653 103.452c-6.729-10.351-31.919-51.793-25.819-82.942.54-2.756 1.205-5.276 1.911-7.711 5.505 13.68 12.437 26.74 20.681 38.966.91 1.301 2.687 1.649 4.021.789.371-.239 4.397-2.896 10.098-7.239-.963 5.473-1.436 11.022-1.411 16.58.203 10.055 2.462 19.963 6.638 29.112-6.893 5.844-12.94 10.244-16.119 12.445zm61.211 36.786c-8.797-7.744-45.824-42.491-45.824-78.344-.113-7.132.763-14.246 2.604-21.138 10.599 21.335 24.648 40.772 41.58 57.53 1.143 1.103 2.955 1.103 4.098 0 16.629-16.481 30.494-35.534 41.061-56.426.34.273.703.578 1.036.841 1.459 6.292 2.158 12.735 2.082 19.193 0 35.824-37.719 70.629-46.637 78.344zm58.811-36.786c-2.823-1.948-7.912-5.645-13.824-10.516 4.747-9.675 7.325-20.268 7.556-31.042-.01-4.649-.356-9.291-1.037-13.89 3.714 2.709 6.234 4.37 6.51 4.549 1.334.861 3.111.512 4.021-.789 8.246-12.214 15.177-25.267 20.678-38.939.705 2.431 1.376 4.932 1.914 7.684 6.101 31.149-19.094 72.592-25.818 82.943z" fill="#000000" style="fill: rgb(237, 177, 118);"></path><path d="m443.817 256.8c.815 6.576 1.143 13.202.981 19.826-.033 1.629 1.26 2.977 2.89 3.011h.001.063c1.609.001 2.923-1.287 2.953-2.896.172-6.917-.172-13.836-1.029-20.702-.188-1.601-1.639-2.747-3.24-2.558-.023.003-.046.006-.07.009-1.616.208-2.758 1.687-2.55 3.303.001.002.001.005.001.007z" fill="#000000" style="fill: rgb(237, 177, 118);"></path><path d="m376.95 191.827h.019c31.232.881 57.879 22.858 64.688 53.352.326 1.319 1.508 2.245 2.867 2.246.24.001.48-.03.712-.091 1.582-.391 2.547-1.991 2.156-3.573-.001-.002-.001-.004-.002-.006-7.619-33.044-36.556-56.799-70.451-57.834h-.01c-1.631.005-2.949 1.332-2.944 2.963.007 1.631 1.333 2.949 2.965 2.943z" fill="#000000" stroke-width="40" style="fill: rgb(237, 177, 118); stroke-width: 125;"></path></g></svg>
