<!-- icon666.com - MILLIONS vector ICONS FREE --><svg viewBox="0 -4 480.00002 480" xmlns="http://www.w3.org/2000/svg"><path d="m480 0h-480v16h32c48.578125.058594 87.941406 39.421875 88 88v24.40625c-58.542969 4.222656-103.910156 52.898438-104 111.59375 0 4.417969 3.582031 8 8 8 4.546875-.023438 9.089844-.324219 13.601562-.902344-8.882812 14.765625-13.585937 31.667969-13.601562 48.902344 0 4.417969 3.582031 8 8 8h8c1.128906 0 2.214844-.183594 3.34375-.222656-7.421875 14.992187-11.300781 31.492187-11.34375 48.222656 0 4.417969 3.582031 8 8 8h16c12.972656-.089844 25.789062-2.808594 37.679688-8l28.074218 35.097656c2.757813 3.449219 7.792969 4.007813 11.242188 1.25.460937-.371094.882812-.789062 1.25-1.25l28-35.035156c11.921875 5.167969 24.761718 7.867188 37.753906 7.9375h16c4.417969 0 8-3.582031 8-8-.039062-16.726562-3.910156-33.222656-11.3125-48.222656 1.113281 0 2.191406.222656 3.3125.222656h8c4.417969 0 8-3.582031 8-8-.015625-17.234375-4.71875-34.136719-13.601562-48.902344 4.511718.578125 9.054687.878906 13.601562.902344 4.417969 0 8-3.582031 8-8-.089844-58.695312-45.457031-107.371094-104-111.59375v-24.40625c-.03125-35.777344-18.46875-69.023438-48.800781-88h89.089843c3.074219 63.503906 41.121094 120.066406 98.78125 146.847656l9.601563 4.417969c4.011719 1.847656 8.765625.09375 10.613281-3.917969.703125-1.527344.910156-3.234375.585938-4.882812l-12.175782-60.785156c19.457032 11.617187 41.066407 19.167968 63.519532 22.199218 8.457031 20.320313 12.800781 42.113282 12.785156 64.121094v26.304688c-58.542969 4.21875-103.910156 52.898437-104 111.589843 0 4.417969 3.582031 8 8 8 4.546875-.023437 9.089844-.324219 13.601562-.902343-8.882812 14.765624-13.585937 31.671874-13.601562 48.902343 0 4.417969 3.582031 8 8 8h8c1.128906 0 2.214844-.183593 3.34375-.222656-7.417969 14.996094-11.300781 31.492187-11.34375 48.222656 0 4.417969 3.582031 8 8 8h16c12.96875-.085937 25.785156-2.808593 37.671875-8l28.082031 35.105469c2.757813 3.449219 7.792969 4.011719 11.242188 1.253906.460937-.371094.882812-.789062 1.25-1.253906l28-35.03125c11.921875 5.160156 24.765625 7.855469 37.753906 7.925781h16c4.417969 0 8-3.582031 8-8-.039062-16.726562-3.90625-33.222656-11.304688-48.222656 1.105469 0 2.191407.222656 3.304688.222656h8c4.417969 0 8-3.582031 8-8-.015625-17.230469-4.71875-34.136719-13.601562-48.902343 4.511718.578124 9.054687.878906 13.601562.902343 4.417969 0 8-3.582031 8-8 .039062-58.746093-45.394531-107.503906-104-111.605469v-26.289062c.015625-21.375-3.722656-42.589844-11.046875-62.671875 22.808594.6875 45.515625-3.320313 66.710937-11.777344l35.3125-14.125c4.097657-1.648437 6.089844-6.308593 4.441407-10.40625-.449219-1.121093-1.148438-2.125-2.042969-2.941406l-3.0625-2.78125c-31.097656-28.292969-67.710938-49.847656-107.542969-63.296875h121.230469zm-447.640625 231.640625c4.117187-46.390625 40.890625-83.164063 87.28125-87.28125-4.117187 46.390625-40.890625 83.164063-87.28125 87.28125zm8.039063 56.359375c1.765624-17.523438 9.3125-33.960938 21.449218-46.71875 9.507813-3.417969 18.507813-8.113281 26.753906-13.953125.703126.96875 1.398438 1.976563 2.117188 2.878906l16.570312 20.703125c-14.550781 22.921875-39.742187 36.886719-66.890624 37.089844zm77.394531-23.929688 3.941406 4.9375c2.761719 3.453126 7.796875 4.011719 11.246094 1.253907.460937-.371094.882812-.789063 1.25-1.253907l3.945312-4.9375c5.574219 7.726563 12.269531 14.574219 19.863281 20.320313-1.558593 2.734375-3.316406 5.347656-5.253906 7.824219l-24.785156 30.984375-24.800781-30.976563c-1.9375-2.476562-3.695313-5.089844-5.253907-7.824218 7.589844-5.75 14.277344-12.601563 19.847657-20.328126zm-61.792969 79.929688h-7.648438c1.417969-15.390625 6.640626-30.1875 15.199219-43.054688 7.226563-1.867187 14.207031-4.574218 20.800781-8.066406 1.890626 3.253906 4.007813 6.371094 6.328126 9.328125l17.929687 22.402344c-14.875 12.164063-33.398437 18.992187-52.609375 19.390625zm72 25.289062-19.824219-24.839843c3.621094-2.257813 7.113281-4.714844 10.464844-7.351563l3.113281 3.902344c2.757813 3.449219 7.792969 4.011719 11.242188 1.253906.460937-.371094.882812-.789062 1.25-1.253906l3.082031-3.855469c3.351563 2.660157 6.851563 5.125 10.488281 7.382813zm72-25.289062c-19.238281-.324219-37.808594-7.136719-52.6875-19.335938l17.96875-22.457031c2.320312-2.957031 4.4375-6.074219 6.328125-9.328125 6.617187 3.5 13.621094 6.210938 20.871094 8.074219 8.550781 12.867187 13.765625 27.660156 15.167969 43.046875zm15.601562-56c-27.148437-.203125-52.339843-14.167969-66.890624-37.089844l16.570312-20.703125c.71875-.902343 1.414062-1.902343 2.117188-2.878906 8.246093 5.839844 17.246093 10.535156 26.753906 13.953125 12.136718 12.757812 19.683594 29.195312 21.449218 46.71875zm8.039063-56.359375h-.039063c-46.390624-4.117187-83.164062-40.890625-87.28125-87.28125 46.40625 4.101563 83.199219 40.875 87.320313 87.28125zm-68.609375-14.488281c-.742188 1.0625-1.488281 2.113281-2.246094 3.0625l-24.785156 30.984375-24.800781-30.976563c-.757813-.949218-1.503907-2-2.246094-3.0625 11.789063-11.167968 21.015625-24.757812 27.046875-39.832031 6.027344 15.070313 15.25 28.660156 27.03125 39.824219zm117.320312 96.382812c1.917969-22.5 11.757813-43.59375 27.769532-59.519531 15.921875-16.011719 37.015625-25.851563 59.519531-27.757813-4.117187 46.394532-40.894531 83.167969-87.289063 87.277344zm8.046876 56.34375c1.765624-17.511718 9.316406-33.933594 21.457031-46.679687v-.023438c9.503906-3.417969 18.5-8.109375 26.746093-13.945312.703126.96875 1.398438 1.976562 2.117188 2.875l16.570312 20.695312c-14.550781 22.917969-39.742187 36.882813-66.890624 37.078125zm77.394531-23.910156 3.941406 4.925781c2.761719 3.453125 7.796875 4.011719 11.246094 1.253907.460937-.371094.882812-.789063 1.25-1.253907l3.945312-4.925781c5.574219 7.722656 12.269531 14.570312 19.863281 20.320312h-.039062c-1.558594 2.730469-3.316406 5.347657-5.257812 7.824219l-24.742188 30.984375-24.800781-30.984375c-1.9375-2.476562-3.695313-5.09375-5.253907-7.824219 7.585938-5.75 14.277344-12.601562 19.847657-20.320312zm-61.792969 79.925781h-7.648438c1.417969-15.386719 6.640626-30.179687 15.199219-43.046875 7.226563-1.867187 14.207031-4.578125 20.800781-8.070312 1.890626 3.25 4.007813 6.367187 6.328126 9.328125l17.9375 22.398437c-14.878907 12.160156-33.402344 18.988282-52.617188 19.390625zm72 25.304688-19.832031-24.839844c3.621093-2.253906 7.117187-4.707031 10.472656-7.34375l3.113281 3.894531c2.757813 3.453125 7.792969 4.011719 11.242188 1.253906.460937-.371093.882812-.789062 1.25-1.253906l3.082031-3.847656c3.351563 2.660156 6.855469 5.125 10.488281 7.386719zm79.648438-25.289063h-7.648438c-19.238281-.320312-37.808594-7.132812-52.6875-19.335937l17.96875-22.453125c2.320312-2.960938 4.4375-6.078125 6.328125-9.328125 6.621094 3.503906 13.632813 6.214843 20.886719 8.078125 8.535156 12.867187 13.742187 27.648437 15.152344 43.023437zm7.953124-56c-27.152343-.203125-52.34375-14.179687-66.890624-37.109375l16.570312-20.703125c.71875-.90625 1.414062-1.914062 2.117188-2.882812 8.242187 5.847656 17.242187 10.554687 26.746093 13.984375 12.140625 12.75 19.691407 29.179687 21.457031 46.695312zm8.039063-56.375-.039063.015625c-46.390624-4.117187-83.164062-40.886719-87.28125-87.277343 46.398438 4.105468 83.183594 40.867187 87.320313 87.261718zm-95.640625-54.335937c6.023438 15.070312 15.246094 28.65625 27.03125 39.816406-.742188 1.074219-1.488281 2.121094-2.246094 3.0625l-24.785156 31.019531-24.800781-30.984375c-.757813-.945312-1.503907-2-2.246094-3.066406 11.792969-11.167969 21.019531-24.761719 27.046875-39.847656zm81.023438-173.824219-.039063.015625-23.304687 9.320313c-49.824219 19.820312-106.414063 11.828124-148.800782-21.015626-3.488281-2.710937-8.515625-2.078124-11.222656 1.410157-1.425781 1.835937-1.984375 4.199219-1.527344 6.480469l12.886719 64.460937c-49.476563-25.070313-81.785156-74.660156-84.734375-130.046875h68.925781c68.886719-.058594 135.511719 24.550781 187.816407 69.375zm0 0" fill="#000000" style="fill: rgb(237, 177, 118);"></path></svg>