<svg xmlns="http://www.w3.org/2000/svg" fill="#edb176" width="60" height="47" viewBox="0 0 60 47">
<path fill-rule="evenodd" clip-rule="evenodd" d="M53.5243 23.6834C55.7605 22.3948 58.2809 21.5268 60.871 21.4944L60.871 17.785C57.0743 17.8227 53.4063 19.2569 50.2799 21.365C48.9339 20.2058 47.7058 18.8741 46.6655 17.4345C48.2475 16.1621 49.6525 14.6848 50.6606 12.9055C51.3899 11.6223 51.894 10.1827 51.894 8.69463C51.894 7.60012 51.6205 6.54336 51.0575 5.60521C50.548 4.75872 49.8241 4.05781 48.9714 3.57256C48.2743 3.17357 47.4967 2.92017 46.703 2.82851L46.703 2.79077L46.0863 2.79077C45.0353 2.79077 43.9628 2.94173 42.9868 3.35689C41.8499 3.84214 40.9597 4.62393 40.3752 5.71844C39.8496 6.70511 39.6512 7.81579 39.6512 8.93186C39.6512 10.9861 40.3269 13.1967 41.1152 15.0784C41.2975 15.5205 41.5013 15.9518 41.7158 16.3831C41.3619 16.5988 41.0026 16.8145 40.6433 17.0194C40.3269 16.1998 39.9462 15.4072 39.4957 14.6524C38.1712 12.4364 36.2889 10.6087 33.9186 9.56269C31.4143 8.45201 28.7169 8.36035 26.0892 9.07744C22.7859 9.98324 19.8793 12.0482 17.493 14.4691C13.3799 11.9027 9.52954 8.98039 6.04386 5.58904L0.750977 0.423828L3.01399 7.47612C4.52088 12.1615 6.79462 16.8792 9.21851 21.1601C9.69578 22.0066 10.1891 22.8477 10.6986 23.678C10.1945 24.5084 9.70114 25.3495 9.21851 26.196C6.79462 30.4769 4.51552 35.1946 3.01399 39.88L0.750977 46.9431L6.04922 41.7832C9.5349 38.3919 13.3799 35.4696 17.4984 32.9032C19.8847 35.324 22.7912 37.389 26.0946 38.2948C28.7223 39.0119 31.4196 38.9203 33.924 37.8096C36.2889 36.7582 38.1765 34.9304 39.5011 32.7199C39.9515 31.965 40.3323 31.1725 40.6487 30.3529C41.008 30.5578 41.3673 30.7681 41.7212 30.9891C41.5067 31.4151 41.3029 31.8518 41.1206 32.2939C40.3323 34.1702 39.6566 36.3862 39.6566 38.4404C39.6566 39.5511 39.8604 40.6618 40.3805 41.6538C40.9597 42.7483 41.8499 43.5355 42.9921 44.0154C43.9681 44.4305 45.0353 44.5815 46.0917 44.5815L46.7084 44.5815L46.7084 44.5438C47.5021 44.4575 48.2796 44.1987 48.9768 43.7997C49.8294 43.3091 50.5534 42.6136 51.0628 41.7671C51.6259 40.8289 51.8994 39.7722 51.8994 38.6776C51.8994 37.1895 51.3953 35.75 50.666 34.4668C49.6578 32.6875 48.2528 31.2102 46.6709 29.9378C47.7112 28.4928 48.9392 27.1665 50.2852 26.0072C53.4116 28.1208 57.0797 29.5496 60.8764 29.5873L60.8764 25.8725C58.2809 25.8401 55.7551 24.9774 53.5243 23.6834ZM27.0599 12.6467C28.8617 12.1507 30.7118 12.1884 32.4332 12.954C34.0956 13.6927 35.4094 15.0029 36.3371 16.5557C36.7554 17.2512 37.0879 17.9898 37.356 18.7555C35.4684 19.6936 33.5432 20.5725 31.6288 21.4513L31.1998 21.6508C27.6712 20.0171 24.1855 18.3295 20.7964 16.4209C22.5821 14.7656 24.7164 13.2883 27.0599 12.6467ZM9.28286 34.1001C10.2428 32.0351 11.2992 30.0079 12.42 28.0345C12.5862 27.738 12.7525 27.4468 12.9241 27.1557C13.5997 28.1477 14.3022 29.129 15.0423 30.0779C13.0635 31.3288 11.1383 32.6659 9.28286 34.1001ZM12.9241 20.2166C12.7525 19.9255 12.5862 19.6289 12.42 19.3378C11.3046 17.3644 10.2481 15.3372 9.28286 13.2721C11.1383 14.7063 13.0581 16.0435 15.0423 17.2943C14.3022 18.2433 13.5997 19.2245 12.9241 20.2166ZM15.0476 23.6834C16.0344 22.1576 17.0854 20.6372 18.2223 19.2138C21.0269 20.8313 23.912 22.2924 26.8293 23.6834C23.9067 25.0745 21.0269 26.541 18.2223 28.1531C17.0854 26.7351 16.0344 25.2147 15.0476 23.6834ZM36.3371 30.8166C35.4094 32.3694 34.0956 33.6796 32.4332 34.4182C30.7118 35.1785 28.8617 35.2162 27.0599 34.7256C24.7164 34.084 22.5821 32.6066 20.7964 30.9514C24.1855 29.0427 27.6712 27.3552 31.1998 25.7215L31.6288 25.921C33.5432 26.8052 35.4684 27.6841 37.356 28.6168C37.0879 29.3824 36.7554 30.1211 36.3371 30.8166ZM38.1122 24.8696C37.281 24.4652 36.4444 24.0716 35.6132 23.6834C36.4498 23.2952 37.2863 22.9017 38.1122 22.4973C38.139 22.8909 38.1551 23.2899 38.1551 23.6834C38.1551 24.077 38.139 24.476 38.1122 24.8696ZM43.6249 7.45994C43.8019 7.13105 44.0754 6.90999 44.4132 6.76442C44.9173 6.54875 45.5394 6.50023 46.081 6.50023L46.215 6.50023C46.5422 6.52179 46.8639 6.62423 47.1428 6.78598C47.4484 6.96391 47.7112 7.21193 47.8935 7.51925C48.108 7.8751 48.1992 8.27947 48.1992 8.69463C48.1992 9.51956 47.8614 10.366 47.4592 11.0777C46.7727 12.2855 45.8182 13.3153 44.7618 14.2157C44.676 14.027 44.5902 13.8383 44.5097 13.6442C43.9198 12.237 43.3461 10.4793 43.3461 8.93726C43.3407 8.45201 43.3943 7.89127 43.6249 7.45994ZM47.4538 36.2945C47.856 37.0008 48.1938 37.8473 48.1938 38.6776C48.1938 39.0928 48.1027 39.4972 47.8882 39.853C47.7058 40.1604 47.4484 40.4084 47.1374 40.5863C46.8532 40.748 46.5368 40.8505 46.2097 40.872L46.0756 40.872C45.534 40.872 44.9119 40.8181 44.4078 40.6079C44.0646 40.4623 43.7911 40.2466 43.6195 39.9123C43.3943 39.4864 43.3353 38.9203 43.3353 38.4404C43.3353 36.8984 43.9091 35.1407 44.499 33.7335C44.5794 33.5394 44.6653 33.3507 44.7511 33.162C45.8128 34.057 46.7674 35.0868 47.4538 36.2945ZM43.6356 27.8296C42.976 27.4199 42.3003 27.0371 41.6193 26.665C41.7695 25.6784 41.8445 24.6809 41.8445 23.6834C41.8445 22.686 41.7695 21.6885 41.6193 20.7019C42.3003 20.3298 42.976 19.9416 43.6356 19.5373C44.7135 21.0415 45.963 22.438 47.3305 23.6834C45.963 24.9289 44.7189 26.3254 43.6356 27.8296Z" fill="#edb176"/>
<path d="M45.8237 29.8029C45.1963 29.3177 44.526 28.854 43.8127 28.4011L43.8074 28.4065C43.0834 27.9482 42.3219 27.5007 41.5229 27.0586C41.362 27.8943 41.1475 28.7138 40.8687 29.5172C41.2172 29.7167 41.5604 29.9162 41.8929 30.1211L41.8929 30.1157C43.1692 30.8921 44.3115 31.69 45.2928 32.5419L45.2874 32.5473C46.4136 33.5286 47.3252 34.5746 47.9848 35.7338C48.564 36.7582 48.8107 37.6586 48.8107 38.4188C48.8107 39.0065 48.6659 39.5079 48.4192 39.9123C48.1725 40.3167 47.8347 40.6402 47.4486 40.8612C47.0249 41.1039 46.5477 41.2333 46.0811 41.2333L46.0811 41.2279C45.2767 41.2279 44.6493 41.1146 44.172 40.9152C43.6519 40.6941 43.2979 40.3598 43.0781 39.9393C42.8314 39.4702 42.7241 38.8663 42.7241 38.1762C42.7241 36.6989 43.2228 34.9304 43.9361 33.2267C44.038 32.9786 44.1506 32.7306 44.2686 32.4826C43.6143 31.965 42.9279 31.4851 42.2415 31.0484C42.0377 31.4528 41.85 31.8572 41.6784 32.2669C40.8472 34.2511 40.2627 36.3484 40.2627 38.1708C40.2627 39.2383 40.4611 40.2304 40.9169 41.0931C41.3996 41.9989 42.145 42.7214 43.2228 43.1797C44.0111 43.5139 44.955 43.6973 46.0811 43.6973L46.0811 43.6919C46.9713 43.6919 47.8669 43.4492 48.6605 42.9963C49.4059 42.5704 50.0602 41.9557 50.5267 41.1793C50.9932 40.4029 51.2721 39.4702 51.2721 38.408C51.2721 37.2488 50.9343 35.9333 50.1191 34.5045C49.1056 32.7198 47.6416 31.194 45.8237 29.8029Z" fill="#edb176"/>
<path d="M13.4444 26.5573C14.1683 27.6194 14.8816 28.6007 15.5626 29.4795C16.2598 29.0428 16.9676 28.6169 17.6808 28.2017C16.6244 26.8646 15.4768 25.2363 14.3131 23.4193C13.8359 22.6753 13.364 21.9043 12.8867 21.1063C12.5488 20.5402 12.211 19.9633 11.8785 19.3756C10.3394 16.6582 8.88082 13.7521 7.6796 10.9322C10.2215 13.0512 12.8223 14.9005 15.4178 16.5396C15.9434 15.8872 16.485 15.251 17.0481 14.6579C13.1655 12.2262 9.28302 9.3363 5.60964 5.76703L2.08105 2.32715L3.58794 7.02328C5.72226 13.655 9.50825 20.7774 13.4444 26.5573Z" fill="#edb176"/>
<path d="M20.5767 30.0998C23.9712 28.1966 27.3067 26.5899 30.4653 25.1233C29.4946 24.6758 28.524 24.2229 27.5588 23.7646C24.5074 25.2096 21.3113 26.8109 18.0777 28.6926L18.0777 28.6872C17.3698 29.1024 16.662 29.5283 15.9541 29.9651C13.1816 31.6904 10.4038 33.6422 7.69034 35.9013C8.89157 33.076 10.3502 30.1753 11.8893 27.4579C12.1091 27.0751 12.329 26.6923 12.5489 26.3149C12.0394 25.5547 11.5461 24.7837 11.0634 24.0019C10.6237 24.7298 10.1893 25.4792 9.75494 26.2394C7.27743 30.6228 4.9876 35.4915 3.59869 39.8102L2.0918 44.5064L5.62038 41.0665C9.22941 37.5511 13.0422 34.6989 16.8657 32.2943L16.8604 32.2889C18.0991 31.5232 19.3433 30.79 20.5767 30.0998Z" fill="#edb176"/>
<path d="M15.396 17.5909C14.7043 18.4805 13.991 19.4726 13.2725 20.5455C13.7283 21.3219 14.2002 22.0929 14.6828 22.8532C15.8626 21.047 17.0209 19.4402 18.0773 18.157C18.5868 17.537 19.0694 16.9924 19.5199 16.5341C19.6003 16.4533 19.6861 16.367 19.7666 16.2861C19.9382 16.119 20.1044 15.9572 20.276 15.7955L20.3725 15.7038L20.5495 15.5421C22.7535 13.5364 24.9039 12.334 26.8988 11.7841C29.0278 11.2018 30.9958 11.3743 32.6851 12.1184C34.385 12.8732 35.8222 14.2157 36.8679 15.968C37.2808 16.6581 37.6294 17.4076 37.9136 18.2109C38.6536 17.8389 39.3883 17.4507 40.1015 17.0517C39.7851 16.2214 39.4044 15.4342 38.97 14.701C37.6615 12.512 35.8436 10.819 33.6718 9.85927C31.4892 8.88877 28.9634 8.66232 26.2553 9.40637C23.7134 10.1019 21.0214 11.6547 18.3187 14.2643C18.1417 14.4368 17.9647 14.6093 17.7878 14.7926C17.0477 15.5421 16.2433 16.491 15.396 17.5909Z" fill="#edb176"/>
<path d="M41.7262 19.6833C42.2624 19.3868 42.7772 19.0849 43.2813 18.7776C42.8148 18.0928 42.3858 17.3919 41.9997 16.6748C41.4634 17.0037 40.895 17.3326 40.3104 17.6561L40.3104 17.6507C39.6079 18.0389 38.8679 18.4271 38.1011 18.8099L38.1011 18.8153C36.2027 19.7696 34.122 20.7293 31.9287 21.7376L33.1675 22.3091L34.8674 23.0909C35.8809 22.6218 36.8623 22.1635 37.8115 21.6998L37.8115 21.6944C39.195 21.0205 40.5035 20.3573 41.7262 19.6833Z" fill="#edb176"/>
<path d="M32.9207 22.8637C32.3523 22.6049 31.7785 22.3407 31.1993 22.0711L30.0249 21.5266C26.92 20.0762 23.6434 18.4857 20.3293 16.6094C20.206 16.728 20.0826 16.852 19.9647 16.9706C19.5035 17.4397 19.053 17.9465 18.624 18.4695C22.7103 20.8149 26.936 22.8152 31.2047 24.7831L32.2933 25.2846C34.1487 26.1364 35.9184 26.956 37.5647 27.7701C37.806 26.956 37.9723 26.1203 38.0688 25.2738C37.1357 24.8209 36.1704 24.368 35.1784 23.9043L32.9207 22.8637Z" fill="#edb176"/>
<path d="M40.327 29.2046C40.5951 28.4228 40.8043 27.5979 40.9598 26.746L40.949 26.7406C41.1367 25.6784 41.2386 24.5678 41.2386 23.4247C41.2386 22.5135 41.1743 21.6185 41.0509 20.7559C40.2841 21.1656 39.5011 21.5646 38.7128 21.9528C38.7557 22.4327 38.7772 22.9233 38.7772 23.4247C38.7772 23.8668 38.7611 24.3036 38.7289 24.7295L38.745 24.7349C38.627 26.2392 38.3106 27.6464 37.828 28.9134L37.8173 28.908C37.5545 29.609 37.2328 30.2667 36.8735 30.8706C35.8278 32.6229 34.3906 33.9654 32.6906 34.7203C31.0014 35.4697 29.0334 35.6422 26.9044 35.0545C24.8076 34.483 22.5553 33.1836 20.2333 31C20.0778 31.0917 19.9223 31.1779 19.7668 31.2696C19.1876 31.6093 18.6085 31.9489 18.04 32.2994C20.8393 35.0707 23.6332 36.7098 26.2609 37.4323C28.969 38.1763 31.4948 37.9499 33.6774 36.9794C35.8492 36.0196 37.6671 34.3267 38.9756 32.1376C39.5119 31.2372 39.9677 30.2506 40.3216 29.1992L40.327 29.2046Z" fill="#edb176"/>
<path d="M52.9233 23.7861C52.4836 24.0611 52.0492 24.3576 51.6363 24.6596C51.3467 24.8752 51.0572 25.0963 50.7676 25.3335C53.835 27.3716 56.897 28.6871 60.4417 28.7249L60.3881 26.2555C57.6478 26.2232 55.3955 25.2742 52.9233 23.7861Z" fill="#edb176"/>
<path d="M51.2563 21.203C50.7737 21.5104 50.2964 21.8339 49.8353 22.1735C49.0952 22.7127 48.3874 23.3004 47.7117 23.9151C46.3817 25.1282 45.1859 26.4761 44.167 27.8941C44.8534 28.3308 45.5291 28.7945 46.1833 29.2905C47.3202 27.7216 48.6984 26.2442 50.2428 24.9664C50.5807 24.6861 50.9239 24.4165 51.2778 24.1577C51.6264 23.8989 51.9857 23.6563 52.3449 23.419C54.9726 21.7206 57.4877 20.6585 60.4425 20.6207L60.3888 18.1514C57.0319 18.1999 54.2004 19.3483 51.2563 21.203Z" fill="#edb176"/>
<path d="M47.7913 23.0147C48.3383 22.5403 48.896 22.0928 49.4644 21.6776C49.5609 21.6075 49.6521 21.5428 49.7486 21.4727C48.2417 20.1572 46.9494 18.6906 45.8178 17.0516C45.0885 15.984 44.4397 14.8248 43.9356 13.6279C43.2224 11.9241 42.7236 10.1556 42.7236 8.67833C42.7236 7.98819 42.8309 7.38433 43.0776 6.91525C43.3028 6.4947 43.6567 6.16042 44.1715 5.93936C44.6488 5.73448 45.2762 5.62665 46.0806 5.62665L46.0806 5.62126C46.5472 5.62126 47.0191 5.75066 47.4481 5.99867C47.8342 6.21973 48.1774 6.54323 48.4187 6.9476C48.6654 7.35737 48.8102 7.85879 48.8102 8.44109C48.8102 9.20671 48.5689 10.1017 47.9843 11.1261C47.2765 12.3716 46.2737 13.4877 45.0295 14.5283C45.4049 15.2615 45.8286 15.9786 46.2951 16.6688C47.8932 15.3802 49.1909 13.9675 50.1133 12.3393C50.923 10.9105 51.2662 9.59491 51.2662 8.4357C51.2662 7.37354 50.9874 6.44079 50.5208 5.66439C50.0543 4.88799 49.4001 4.27334 48.6547 3.8474C47.8664 3.3945 46.9654 3.15188 46.0752 3.15188L46.0752 3.14648C44.9491 3.14648 43.9999 3.3298 43.217 3.66408C42.1445 4.12237 41.3937 4.83946 40.9111 5.75066C40.4553 6.60793 40.2568 7.60539 40.2568 8.67293C40.2568 11.207 41.3347 14.0969 42.5145 16.3453C43.8659 18.8308 45.7213 21.1331 47.7913 23.0147Z" fill="#edb176"/>
</svg>