<?xml version="1.0" standalone="no"?>
<!DOCTYPE svg PUBLIC "-//W3C//DTD SVG 20010904//EN"
 "http://www.w3.org/TR/2001/REC-SVG-20010904/DTD/svg10.dtd">
<svg version="1.0" xmlns="http://www.w3.org/2000/svg"
 width="1260.000000pt" height="1280.000000pt" viewBox="0 0 1260.000000 1280.000000"
 preserveAspectRatio="xMidYMid meet">
<metadata>
Created by potrace 1.15, written by Peter Selinger 2001-2017
</metadata>
<g transform="translate(0.000000,1280.000000) scale(0.100000,-0.100000)"
fill="#edb176" stroke="none">
<path d="M6173 12091 c-216 -35 -434 -162 -560 -326 -67 -87 -136 -225 -164
-330 -31 -113 -31 -316 0 -429 11 -44 19 -81 16 -84 -2 -2 -78 24 -167 58
-368 141 -512 220 -466 252 24 17 -158 -2 -263 -28 -233 -56 -424 -186 -549
-372 -89 -132 -159 -340 -196 -580 -9 -62 -20 -109 -23 -105 -4 4 -27 35 -51
67 -96 127 -267 239 -446 291 -486 141 -998 -173 -1100 -674 -22 -111 -15
-305 15 -406 45 -153 148 -318 262 -418 l59 -52 -110 -21 c-352 -69 -655 -243
-799 -460 -181 -270 -157 -611 75 -1072 71 -141 80 -163 61 -158 -158 47 -357
53 -492 17 -191 -51 -365 -165 -479 -314 -277 -364 -241 -850 88 -1172 130
-127 292 -207 479 -236 95 -15 263 -5 354 21 40 11 75 20 77 20 2 0 -23 -51
-55 -114 -213 -410 -272 -704 -190 -942 42 -123 84 -187 196 -300 188 -189
459 -338 701 -384 l61 -12 -76 -76 c-133 -133 -213 -291 -247 -485 -38 -219
26 -475 164 -657 220 -291 582 -416 938 -325 153 40 346 164 438 282 46 58 56
63 56 29 0 -44 62 -271 101 -369 141 -353 306 -557 518 -638 124 -48 334 -34
571 38 122 37 326 116 424 165 58 29 59 29 53 7 -22 -82 -30 -213 -19 -302 46
-372 297 -662 657 -758 110 -30 308 -32 415 -5 324 83 560 310 650 628 33 113
37 279 11 403 -11 54 -19 101 -17 103 2 2 144 -65 316 -147 350 -169 329 -164
525 -140 268 33 471 126 632 291 140 143 233 332 278 560 9 46 18 93 21 106 4
21 7 20 67 -28 259 -210 638 -253 937 -106 104 51 173 101 253 185 323 339
325 859 3 1205 -25 27 -46 50 -46 52 0 1 26 5 58 9 100 12 277 62 384 107 411
174 609 427 610 778 1 205 -57 397 -203 679 -38 73 -69 135 -69 137 0 1 15 -2
33 -7 65 -19 208 -28 295 -18 485 53 838 491 782 969 -47 393 -336 701 -724
769 -106 19 -284 12 -369 -15 -13 -4 0 30 51 133 225 449 263 741 131 1004
-130 261 -509 508 -881 575 -51 9 -94 17 -95 18 -1 1 30 36 70 77 107 113 182
250 224 409 26 98 23 310 -6 415 -87 324 -339 565 -670 641 -95 22 -286 20
-383 -5 -160 -41 -294 -114 -410 -222 l-47 -44 -22 95 c-75 326 -256 634 -452
769 -212 145 -430 161 -761 54 -125 -40 -287 -108 -433 -182 -57 -28 -103 -48
-103 -45 0 3 8 34 17 68 27 96 24 327 -5 429 -91 318 -336 558 -644 632 -76
18 -263 27 -335 16z m-1278 -1016 c96 -26 272 -117 385 -201 114 -84 321 -286
442 -429 156 -186 373 -491 522 -733 32 -51 61 -92 66 -90 4 2 94 113 201 248
385 489 514 647 613 749 415 427 797 574 1090 418 258 -137 482 -585 503
-1008 4 -77 2 -133 -6 -165 -7 -26 -16 -104 -21 -173 -12 -179 -83 -437 -162
-596 -128 -254 -468 -655 -1015 -1196 -385 -381 -615 -581 -822 -714 -83 -54
-60 -52 -205 -14 l-39 11 205 206 c490 495 961 1061 1310 1577 523 772 688
1318 507 1676 -67 135 -152 230 -252 282 -61 32 -63 32 -202 32 -126 -1 -148
-4 -220 -29 -312 -107 -528 -402 -655 -893 -51 -194 -71 -363 -77 -631 -5
-218 -7 -243 -22 -239 -9 3 -99 30 -201 61 -353 108 -576 139 -725 101 -33 -8
-111 -41 -174 -72 l-113 -57 -134 -4 -134 -5 0 94 c-1 52 -3 119 -5 149 -2 30
-6 123 -9 207 -11 290 -52 573 -106 730 -106 306 -284 489 -547 565 -65 19
-103 23 -223 23 -140 0 -147 -1 -205 -29 -147 -73 -275 -265 -312 -470 -57
-318 143 -821 592 -1491 275 -410 637 -879 931 -1207 136 -151 418 -426 516
-503 77 -60 82 -75 28 -75 -14 0 -55 -8 -91 -18 l-66 -19 -89 60 c-226 151
-498 390 -884 777 -778 779 -989 1095 -1097 1645 -13 69 -17 141 -18 310 0
245 9 308 71 494 126 378 323 608 569 661 55 12 208 4 280 -15z m-145 -239
c86 -35 216 -114 269 -164 53 -50 53 -50 -109 7 -167 59 -254 55 -360 -15
-101 -67 -208 -246 -239 -399 -18 -86 -19 -89 -30 -60 -25 63 -33 132 -28 240
6 130 30 207 85 279 88 116 276 167 412 112z m3435 -10 c99 -45 183 -142 226
-262 27 -74 31 -246 7 -308 l-15 -40 -12 64 c-30 154 -176 346 -313 414 -79
39 -134 35 -310 -23 -82 -27 -148 -46 -148 -42 0 34 206 166 340 217 51 20
159 11 225 -20z m-3302 -321 c133 -28 264 -120 365 -257 67 -91 140 -228 173
-328 30 -89 33 -105 33 -235 1 -138 0 -142 -43 -280 -45 -144 -91 -304 -91
-318 0 -8 172 -93 262 -130 48 -20 53 -43 33 -132 -10 -42 -17 -112 -17 -175
1 -87 -19 -234 -32 -248 -9 -8 -132 205 -211 363 -164 332 -245 663 -245 1005
0 124 -15 249 -36 300 -49 116 -166 150 -396 115 -134 -21 -138 -20 -138 45 0
102 165 291 255 290 11 0 50 -7 88 -15z m3082 -4 c45 -20 132 -110 171 -176
22 -38 24 -53 22 -117 l-3 -75 -100 30 c-133 39 -220 45 -282 22 -56 -21 -130
-88 -172 -154 l-30 -46 1 -215 c1 -243 -12 -343 -68 -547 -66 -240 -174 -471
-351 -746 l-50 -77 -6 83 c-4 46 -10 169 -13 273 l-7 191 54 26 c30 14 88 40
130 57 120 48 115 27 53 240 -74 256 -90 359 -75 472 15 118 44 205 102 317
132 253 296 408 472 446 84 18 105 18 152 -4z m-1827 -270 l213 -171 207 179
c114 98 208 178 210 176 2 -2 -39 -63 -91 -136 -52 -74 -147 -214 -212 -312
l-117 -177 -92 122 c-100 133 -282 384 -335 461 -24 35 -28 46 -15 39 11 -6
115 -87 232 -181z m384 112 c-17 -21 -62 -69 -101 -108 l-71 -70 -90 90 -90
90 138 1 c91 1 154 7 187 17 28 8 52 16 53 16 2 1 -10 -16 -26 -36z m-1657
-390 c91 -538 261 -1055 540 -1639 l74 -155 -40 31 c-60 48 -190 209 -298 370
-306 454 -529 904 -548 1103 -8 92 29 208 94 295 23 31 26 32 98 32 l74 0 6
-37z m3141 5 c68 -81 102 -215 84 -330 -33 -215 -202 -545 -496 -968 -95 -138
-331 -459 -356 -485 -14 -14 39 105 350 790 27 61 61 143 76 183 64 180 125
468 146 692 7 69 14 131 16 138 2 8 27 12 78 12 71 0 75 -1 102 -32z m-4015
-853 c175 -247 388 -530 566 -752 89 -112 159 -203 155 -203 -4 0 -68 31 -143
68 l-135 67 45 -55 c44 -54 131 -183 131 -194 0 -4 -33 21 -72 55 -184 154
-510 389 -870 626 -120 79 -218 145 -218 147 0 2 28 20 63 40 122 71 241 190
311 310 22 37 42 63 46 59 4 -4 58 -80 121 -168z m4830 98 c50 -89 208 -241
303 -293 l79 -44 -24 -15 c-212 -139 -803 -584 -1012 -763 -37 -32 -70 -58
-72 -58 -6 0 81 185 111 237 13 23 24 44 24 48 0 3 -37 -23 -82 -58 -107 -82
-183 -134 -173 -116 5 8 68 93 140 189 271 360 655 901 655 921 0 24 22 3 51
-48z m-5710 -439 c257 -48 613 -242 1039 -565 546 -414 1058 -895 1300 -1221
98 -132 172 -259 165 -283 -4 -11 -14 -57 -23 -102 -9 -46 -20 -83 -23 -83 -4
0 -60 57 -124 126 -220 233 -627 604 -950 863 -516 415 -937 696 -1310 877
-197 95 -324 144 -485 187 -103 27 -131 30 -270 31 -137 1 -163 -2 -225 -22
-198 -66 -360 -211 -406 -364 -47 -153 5 -348 137 -518 152 -196 467 -413 736
-508 204 -72 354 -81 568 -34 74 17 158 33 186 37 65 8 129 -8 150 -39 14 -22
12 -35 -24 -172 -31 -118 -48 -162 -80 -212 -22 -35 -53 -100 -69 -145 -25
-74 -28 -95 -28 -217 0 -105 4 -147 19 -190 27 -80 72 -168 117 -226 29 -38
45 -73 60 -134 23 -89 23 -200 1 -222 -9 -9 -68 -5 -270 22 -141 19 -291 34
-333 33 -248 -6 -595 -166 -875 -405 -303 -258 -400 -612 -228 -828 77 -98
227 -191 364 -227 101 -27 278 -23 410 10 422 104 944 399 1687 953 376 281
606 477 869 739 104 104 232 243 284 309 l94 118 12 -58 c6 -33 19 -85 29
-118 l19 -58 -39 -72 c-110 -203 -269 -402 -534 -667 -593 -592 -1276 -1099
-1720 -1273 -161 -64 -245 -79 -416 -78 -492 3 -931 145 -1134 368 -97 105
-141 225 -141 380 0 288 141 549 471 869 239 231 509 425 998 713 10 6 -115
110 -445 372 -252 201 -497 400 -544 444 -236 218 -392 440 -456 651 -26 87
-26 307 0 388 67 203 277 369 591 466 273 84 650 122 846 85z m7065 5 c279
-39 648 -257 776 -459 66 -104 82 -161 82 -290 0 -125 -12 -187 -63 -315 -115
-286 -420 -611 -866 -921 -140 -97 -381 -250 -482 -305 -35 -19 -63 -37 -63
-40 0 -4 39 -38 88 -76 753 -599 894 -715 986 -807 250 -252 387 -501 403
-736 7 -106 -7 -178 -55 -273 -101 -203 -452 -437 -752 -503 -36 -8 -137 -17
-225 -20 -142 -5 -169 -4 -245 15 -48 13 -135 24 -200 28 -102 5 -126 10 -215
44 -411 159 -1135 698 -1716 1279 -124 124 -261 270 -305 325 -43 55 -91 116
-106 135 -15 19 78 -144 208 -363 130 -219 234 -400 232 -401 -4 -4 -107 57
-660 386 -224 134 -408 245 -407 248 0 3 33 20 74 39 l75 34 62 -33 c35 -18
133 -71 219 -116 86 -46 159 -84 162 -84 2 0 -48 100 -112 223 l-117 222 35
65 c43 82 40 78 57 56 17 -23 19 -13 3 16 -10 18 0 79 28 177 2 9 97 -78 251
-230 330 -327 545 -519 897 -800 708 -565 1285 -913 1715 -1034 104 -29 261
-55 337 -55 220 0 490 148 581 318 56 104 59 261 8 396 -64 169 -233 356 -456
505 -351 235 -649 310 -955 242 -55 -12 -143 -25 -195 -28 -92 -5 -97 -5 -125
20 l-29 25 43 183 c27 113 56 209 77 252 93 195 82 453 -27 630 -45 73 -81
206 -87 320 -3 63 0 102 7 110 12 15 7 15 341 -30 107 -15 222 -26 255 -25
189 7 436 97 655 239 332 216 502 433 529 678 20 173 -37 308 -174 412 -238
181 -508 199 -890 59 -287 -106 -735 -362 -1180 -674 -697 -489 -1232 -962
-1511 -1336 l-59 -80 -2 45 c-2 24 -8 74 -14 112 -11 66 -10 68 21 125 117
207 372 511 765 910 489 498 930 866 1170 978 166 77 535 157 865 188 83 7
214 5 286 -5z m-7666 -295 l55 -17 -75 -13 c-99 -17 -216 -76 -311 -157 -128
-109 -186 -207 -198 -330 l-6 -69 -44 82 c-37 70 -43 90 -42 136 1 69 33 153
78 206 71 85 187 156 290 177 63 13 185 6 253 -15z m7935 11 c144 -31 259
-115 317 -233 30 -60 33 -76 33 -152 0 -78 -4 -92 -38 -162 -48 -99 -130 -221
-162 -242 -14 -9 -25 -15 -25 -12 0 2 21 66 47 142 69 209 62 276 -46 397
-104 115 -250 201 -377 221 l-79 12 65 17 c123 31 164 33 265 12z m-3539 -173
c-37 -216 -143 -447 -324 -712 -82 -121 -222 -300 -233 -300 -15 0 -177 209
-263 340 -98 148 -161 263 -209 380 -57 139 -57 137 0 97 119 -85 250 -127
398 -127 260 0 498 144 608 367 18 35 33 59 35 54 2 -5 -4 -50 -12 -99z
m-4326 -157 c0 -22 -7 -80 -16 -130 -20 -115 -15 -159 31 -252 44 -88 107
-157 153 -166 18 -4 105 1 195 9 220 22 418 15 547 -19 182 -47 270 -91 735
-366 l120 -71 -55 0 c-119 0 -300 -42 -437 -101 l-42 -18 -11 57 c-33 167 -90
285 -153 315 -35 18 -42 18 -115 3 -43 -9 -138 -34 -211 -56 -144 -43 -272
-70 -330 -70 -251 1 -625 274 -725 529 -26 67 -32 160 -13 198 31 58 161 150
261 184 59 20 66 15 66 -46z m7637 49 c96 -33 214 -135 234 -204 24 -80 -32
-236 -128 -354 -72 -88 -241 -219 -358 -277 -199 -99 -306 -100 -620 -6 -205
62 -253 71 -290 57 -59 -22 -123 -129 -170 -282 -14 -48 -29 -89 -33 -92 -12
-7 -129 23 -288 75 -83 27 -163 49 -177 49 -14 0 -28 4 -31 8 -7 11 311 179
495 261 204 91 327 136 457 167 98 24 119 26 252 21 80 -4 195 -11 255 -16
130 -13 200 -2 246 36 73 62 97 173 75 356 -13 110 -20 189 -17 210 2 12 48 8
98 -9z m-7005 -74 c205 -54 505 -214 848 -453 130 -91 510 -377 510 -384 0 -2
-3 -2 -7 0 -12 8 -488 231 -701 328 -374 173 -639 239 -953 239 l-127 0 -6 38
c-3 20 -8 62 -12 92 l-6 55 46 34 c26 18 70 41 99 52 72 25 209 25 309 -1z
m6550 0 c30 -11 78 -34 108 -52 l55 -33 0 -80 0 -80 -76 -7 c-294 -27 -1096
-298 -1594 -539 -71 -35 -134 -65 -140 -67 -25 -11 120 129 209 200 242 195
713 481 976 593 200 85 351 107 462 65z m-4539 -521 c105 -62 302 -177 437
-257 135 -80 273 -162 307 -181 35 -20 63 -38 63 -41 0 -3 -22 -15 -48 -27
-26 -12 -59 -29 -73 -39 -26 -17 -28 -16 -213 80 -103 54 -189 96 -191 94 -1
-1 42 -87 97 -190 l100 -187 -37 -66 c-21 -36 -38 -65 -40 -63 -1 2 -61 100
-132 218 -71 118 -207 340 -301 493 -94 152 -169 277 -166 277 2 0 91 -50 197
-111z m2371 -10 c-37 -63 -175 -295 -307 -517 l-240 -403 -37 78 -38 78 105
198 c57 110 103 201 101 203 -3 2 -90 -41 -194 -96 -104 -55 -194 -100 -199
-100 -6 0 -15 4 -21 10 -5 5 -33 22 -62 38 l-53 29 503 301 c276 166 504 300
506 298 2 -2 -27 -55 -64 -117z m-669 -643 c-16 -37 -17 -38 -36 -20 -27 24
-24 38 14 56 39 19 42 13 22 -36z m-1137 7 c-10 -13 -14 -12 -25 3 -20 27 -16
35 12 22 20 -9 23 -14 13 -25z m-1176 -44 c117 -38 322 -139 456 -224 106 -66
357 -250 380 -278 11 -13 -2 -27 -90 -97 -271 -215 -566 -380 -787 -441 -42
-11 -85 -23 -95 -26 -10 -3 12 26 50 64 291 292 265 754 -58 1018 l-33 27 42
-6 c23 -3 84 -20 135 -37z m3551 -5 c-58 -48 -130 -146 -169 -229 -121 -260
-60 -576 149 -772 31 -29 50 -53 43 -53 -39 0 -251 79 -358 133 -175 89 -409
249 -548 376 l-45 41 55 52 c130 122 317 244 542 353 125 61 320 134 358 134
8 1 -4 -15 -27 -35z m-5628 -211 c77 -55 204 -144 283 -197 78 -54 142 -99
142 -101 0 -11 -618 -455 -634 -455 -3 0 75 102 175 227 168 209 181 228 169
247 -7 12 -81 103 -164 204 -83 101 -158 193 -166 205 -14 20 -12 20 20 -4 19
-14 98 -71 175 -126z m7799 110 c-31 -42 -245 -306 -298 -368 l-34 -40 169
-200 c92 -110 173 -208 179 -218 6 -9 -36 15 -92 55 -57 40 -198 138 -315 219
l-212 146 32 24 c177 131 585 419 595 419 2 0 -8 -17 -24 -37z m-7847 -315
l93 -93 -121 -120 c-104 -103 -120 -116 -115 -90 23 111 29 221 18 309 -6 52
-15 102 -19 112 -6 16 -4 16 23 -3 16 -12 71 -64 121 -115z m7788 -93 l0 -165
-85 86 -85 85 85 79 c47 44 85 80 85 80 0 0 0 -74 0 -165z m-4590 -369 l33
-56 -108 -207 c-60 -114 -107 -209 -106 -211 2 -1 98 48 215 109 l211 111 80
-35 81 -34 -528 -313 c-290 -172 -532 -316 -538 -319 -5 -3 -3 6 7 20 36 55
253 409 428 697 101 166 185 300 187 298 2 -2 19 -29 38 -60z m5975 -89 c0 -2
-17 -19 -37 -38 l-38 -34 34 38 c33 34 41 42 41 34z m-4725 -135 c-2 -2 -26 9
-55 23 l-52 27 28 29 28 30 27 -53 c15 -29 26 -54 24 -56z m-1116 64 l23 -25
-42 -21 c-23 -12 -44 -19 -47 -17 -4 5 34 87 40 87 2 0 14 -11 26 -24z m5747
-15 c-9 -10 -40 -31 -69 -46 -64 -35 -59 -27 19 24 68 45 73 48 50 22z m-7636
-146 c69 -20 188 -52 265 -71 77 -20 142 -37 144 -40 6 -6 -403 -203 -544
-263 -253 -105 -435 -159 -570 -168 -63 -3 -135 1 -244 16 -85 12 -177 21
-206 21 -101 0 -166 -37 -201 -115 -35 -75 -39 -150 -19 -317 10 -80 15 -153
12 -162 -10 -25 -79 -20 -135 8 -64 33 -148 110 -172 157 -54 105 5 262 160
423 193 200 404 316 575 316 76 0 151 -18 345 -82 259 -84 356 -78 410 28 23
45 25 59 24 172 -1 108 1 122 15 118 9 -3 72 -21 141 -41z m4969 -17 c27 -143
72 -250 123 -293 30 -26 37 -27 98 -22 38 3 132 27 224 57 203 65 266 80 346
80 176 0 390 -110 581 -300 94 -93 153 -191 175 -288 23 -103 15 -133 -55
-201 -61 -60 -180 -128 -243 -138 l-38 -6 0 59 c0 33 7 88 16 124 27 115 24
167 -18 251 -41 83 -96 152 -139 174 -37 20 -72 19 -263 -6 -239 -31 -384 -20
-596 46 -123 39 -204 79 -411 202 -101 60 -224 132 -273 159 l-88 49 88 7
c122 9 242 34 354 73 52 18 98 33 101 34 4 0 12 -27 18 -61z m-2666 -15 l57
-6 -222 -226 c-345 -350 -581 -614 -863 -966 -688 -859 -1025 -1484 -1060
-1965 -19 -254 129 -542 329 -640 110 -54 273 -52 453 5 110 35 195 88 289
180 95 94 127 140 195 274 132 266 201 616 216 1109 3 111 7 202 9 202 1 0 15
-5 31 -11 89 -34 484 -140 576 -154 130 -20 180 -14 397 50 236 70 260 75 379
82 l113 6 -6 -39 c-20 -134 -30 -324 -31 -569 0 -279 0 -280 27 -361 87 -256
411 -613 679 -749 226 -115 448 -72 594 112 61 77 100 160 126 263 18 72 21
103 16 215 -8 210 -63 386 -217 700 -191 387 -556 939 -965 1460 -342 435
-708 810 -939 961 -41 27 -75 52 -75 57 -1 4 16 7 37 7 21 0 64 5 96 11 l57
12 112 -76 c62 -41 159 -114 217 -160 421 -339 1138 -1054 1471 -1467 167
-208 225 -314 288 -533 37 -128 40 -147 40 -260 0 -121 14 -218 45 -306 20
-54 20 -126 1 -256 -54 -376 -256 -749 -472 -869 -129 -73 -285 -89 -448 -47
-187 48 -415 194 -621 398 -224 221 -489 572 -705 934 -40 66 -75 121 -78 123
-3 2 -170 -204 -371 -458 -496 -627 -668 -799 -932 -930 -231 -114 -466 -120
-633 -15 -192 119 -368 419 -446 757 -30 127 -37 409 -15 562 31 215 106 480
174 615 114 229 393 565 861 1038 209 211 497 483 652 613 207 176 447 338
484 329 11 -3 46 -8 78 -12z m-1688 -199 c-126 -154 -549 -436 -980 -654 -403
-203 -549 -224 -747 -103 l-58 34 0 78 0 77 208 41 c493 99 1010 280 1487 520
66 34 122 59 124 57 2 -2 -13 -24 -34 -50z m4155 -229 c430 -184 770 -281
1076 -308 l131 -11 11 -86 11 -85 -27 -23 c-15 -13 -55 -37 -90 -54 -81 -39
-195 -49 -292 -24 -215 54 -587 247 -965 499 -181 120 -260 182 -365 284 l-95
93 235 -114 c129 -63 296 -140 370 -171z m-2305 217 c130 -145 235 -299 334
-495 99 -194 157 -357 179 -501 8 -52 8 -57 -4 -41 -8 10 -14 23 -14 27 0 25
-91 146 -150 201 -130 121 -285 181 -460 180 -154 0 -261 -31 -376 -108 -35
-24 -64 -38 -64 -32 1 24 90 221 143 315 68 119 186 289 287 411 41 50 77 91
78 91 2 0 23 -22 47 -48z m-4279 -369 c-3 -10 -16 -54 -30 -98 -35 -114 -56
-199 -56 -229 0 -14 10 -51 22 -83 50 -136 268 -290 459 -326 33 -6 56 -14 52
-18 -23 -21 -125 -39 -223 -39 -174 0 -278 37 -361 128 -83 91 -115 256 -71
367 46 115 176 315 204 315 5 0 7 -8 4 -17z m8511 -27 c45 -52 116 -172 150
-258 78 -193 -53 -416 -285 -488 -112 -35 -295 -22 -357 24 -20 15 -20 15 1
10 35 -9 132 14 199 47 76 37 190 139 251 225 113 159 119 328 14 447 -17 20
-27 37 -22 37 6 0 28 -20 49 -44z m-6030 -338 c-14 -24 -44 -77 -67 -118 -24
-41 -52 -91 -64 -110 l-21 -35 50 37 c162 121 218 160 205 142 -8 -12 -64 -83
-125 -158 -146 -182 -289 -383 -507 -711 -99 -148 -181 -271 -183 -273 -17
-17 -121 117 -140 179 -26 86 -83 147 -125 134 -13 -4 -127 61 -158 90 -2 2
59 45 136 97 241 164 561 404 897 672 66 52 121 96 123 96 2 0 -8 -19 -21 -42z
m3793 -214 c178 -133 364 -263 587 -409 100 -66 182 -122 182 -125 0 -3 -32
-23 -71 -45 -88 -49 -225 -176 -280 -261 -23 -35 -45 -64 -48 -64 -3 0 -50 62
-105 138 -171 237 -393 530 -542 715 -79 97 -140 177 -135 177 4 0 70 -31 145
-69 75 -37 137 -67 137 -64 0 2 -19 27 -43 56 -53 65 -137 182 -137 191 0 4
40 -26 88 -67 48 -40 148 -118 222 -173z m-3116 -296 c-166 -332 -216 -442
-255 -558 -75 -230 -119 -495 -119 -732 l0 -87 -32 -17 c-43 -22 -147 -16
-185 12 -48 34 -83 119 -90 215 -7 98 14 193 73 337 126 303 448 838 653 1084
67 79 145 158 158 158 2 0 -90 -186 -203 -412z m2150 182 c210 -273 513 -794
611 -1050 82 -214 79 -318 -13 -477 l-36 -63 -77 0 -78 0 -5 58 c-37 387 -198
866 -525 1561 -50 107 -91 196 -91 200 0 15 149 -144 214 -229z m-1823 -215
c6 -99 13 -214 16 -256 5 -70 3 -78 -17 -97 -24 -22 -163 -81 -238 -101 -50
-14 -52 8 20 -231 69 -229 78 -273 78 -370 0 -157 -45 -296 -148 -460 -153
-241 -315 -367 -488 -378 -65 -4 -78 -2 -116 21 -47 28 -87 67 -142 140 -34
46 -36 52 -36 128 0 43 1 79 3 79 1 0 63 -14 137 -31 109 -25 149 -30 208 -26
103 8 173 43 209 105 26 44 28 55 35 232 20 485 109 862 275 1170 76 140 186
297 190 270 1 -8 8 -96 14 -195z m1636 35 c120 -227 225 -491 278 -700 46
-183 58 -281 57 -499 -1 -233 2 -243 85 -332 69 -73 129 -93 263 -85 58 3 130
9 161 12 l56 7 7 -37 c9 -45 -17 -108 -76 -183 -64 -83 -111 -113 -178 -113
-64 0 -143 21 -212 56 -155 78 -329 307 -399 523 -64 200 -61 311 17 579 25
85 51 181 59 213 l13 58 -36 22 c-47 27 -211 99 -228 99 -7 0 -22 12 -33 26
-29 37 -27 118 4 235 14 52 35 138 47 191 l21 98 17 -28 c9 -15 44 -79 77
-142z m-856 -1248 c14 -20 90 -129 169 -242 79 -113 168 -241 199 -284 30 -44
49 -76 41 -71 -15 9 -285 228 -375 304 -33 28 -63 51 -67 51 -5 0 -336 -272
-417 -344 -32 -28 -30 -25 155 245 89 128 183 267 209 307 26 39 51 72 54 72
3 -1 18 -17 32 -38z m166 -548 c-1 -1 -29 4 -62 12 -37 10 -110 16 -188 16
l-129 1 88 88 89 89 102 -102 c56 -56 101 -103 100 -104z m-2203 -21 c86 -164
243 -303 359 -319 44 -6 157 19 291 66 33 11 62 18 64 15 17 -17 -128 -119
-267 -188 -75 -37 -92 -42 -150 -41 -172 4 -317 129 -375 323 -24 81 -21 205
6 288 l23 68 6 -71 c5 -55 15 -88 43 -141z m4093 32 c7 -91 -9 -173 -51 -260
-43 -90 -100 -154 -173 -193 -76 -40 -178 -59 -230 -42 -55 18 -168 76 -243
125 -69 45 -141 114 -106 101 66 -23 268 -78 307 -83 97 -12 206 53 318 189
74 90 118 174 134 257 l12 63 13 -43 c7 -24 16 -75 19 -114z m-2230 -1531 c-3
-3 -12 -4 -19 -1 -8 3 -5 6 6 6 11 1 17 -2 13 -5z m210 0 c-3 -3 -12 -4 -19
-1 -8 3 -5 6 6 6 11 1 17 -2 13 -5z m-94 -11 c-13 -2 -33 -2 -45 0 -13 2 -3 4
22 4 25 0 35 -2 23 -4z"/>
</g>
</svg>
