<?xml version="1.0" standalone="no"?>
<!DOCTYPE svg PUBLIC "-//W3C//DTD SVG 20010904//EN"
 "http://www.w3.org/TR/2001/REC-SVG-20010904/DTD/svg10.dtd">
<svg version="1.0" xmlns="http://www.w3.org/2000/svg"
 width="1262.000000pt" height="1280.000000pt" viewBox="0 0 1262.000000 1280.000000"
 preserveAspectRatio="xMidYMid meet">
<metadata>
Created by potrace 1.15, written by Peter Selinger 2001-2017
</metadata>
<g transform="translate(0.000000,1280.000000) scale(0.100000,-0.100000)"
fill="#edb176" stroke="none">
<path d="M6085 12794 c-167 -10 -359 -28 -530 -49 -1503 -191 -2912 -926
-3919 -2045 -463 -515 -811 -1054 -1112 -1726 -308 -688 -443 -1218 -506
-1979 -17 -206 -17 -1033 0 -1235 31 -368 74 -628 152 -935 427 -1675 1443
-3035 2945 -3942 623 -376 1345 -635 2209 -792 312 -57 527 -79 851 -88 941
-24 1957 206 2871 652 689 335 1219 714 1721 1229 585 600 938 1118 1288 1891
317 701 481 1324 547 2085 19 222 16 862 -5 1085 -102 1048 -409 1999 -928
2872 -395 663 -937 1275 -1514 1707 -321 241 -791 515 -1235 721 -672 312
-1243 465 -1975 531 -158 14 -724 26 -860 18z m910 -494 c295 -18 433 -43 774
-141 460 -132 837 -274 1176 -444 l260 -131 6 -300 c4 -164 10 -705 14 -1201
l7 -902 -73 -47 c-325 -208 -1807 -1004 -1870 -1004 -22 0 -27 32 -39 222 -20
319 -7 601 30 685 42 95 92 133 445 328 365 203 433 256 456 359 13 61 9 340
-6 355 -14 14 -153 -54 -439 -214 -409 -227 -833 -483 -870 -524 -34 -37 -61
-535 -72 -1311 -6 -451 2 -630 29 -657 12 -13 43 0 228 95 118 60 459 244 759
409 971 534 1249 675 1396 706 l52 11 187 -102 c102 -57 423 -237 713 -401
777 -440 802 -451 802 -361 0 89 -100 408 -211 669 -56 133 -102 211 -123 211
-22 0 -73 -47 -125 -116 l-47 -62 -370 223 -369 223 1 1029 c0 968 6 1204 30
1266 12 33 59 20 151 -42 122 -82 218 -165 437 -381 279 -275 487 -512 685
-780 348 -475 652 -1068 856 -1674 184 -546 269 -1005 300 -1621 l6 -120 -498
-295 c-1299 -769 -1411 -834 -1531 -896 -68 -34 -69 -34 -111 -19 -151 53
-1008 564 -1487 887 -239 161 -278 193 -264 218 12 23 281 202 450 300 180
105 396 211 439 217 46 6 168 -53 462 -222 215 -125 424 -232 467 -241 57 -12
254 84 345 169 40 37 41 38 21 57 -86 85 -1187 710 -1250 710 -109 0 -1224
-605 -1659 -901 -110 -75 -151 -112 -140 -129 18 -29 416 -281 1095 -693 751
-456 1031 -634 1055 -670 41 -63 56 -394 81 -1714 5 -287 9 -365 20 -374 47
-39 196 85 385 322 111 141 233 328 249 384 17 61 3 76 -81 86 -70 8 -86 20
-101 75 -15 57 -22 730 -9 839 10 79 14 92 43 122 33 35 244 181 423 293 270
170 1403 846 1452 867 55 22 92 17 104 -14 39 -99 -74 -734 -218 -1223 -279
-953 -798 -1820 -1529 -2555 -349 -351 -881 -755 -993 -755 -87 0 -1676 898
-2044 1155 -36 26 -60 51 -67 70 -41 126 -63 1090 -40 1702 10 256 21 358 40
377 30 30 567 -253 760 -402 81 -62 113 -108 130 -187 12 -56 35 -402 46 -690
4 -132 11 -199 21 -218 30 -59 241 -187 309 -187 38 0 38 0 55 165 15 145 15
932 0 1100 -16 176 -19 184 -99 243 -256 189 -1065 672 -1457 870 -186 94
-192 96 -204 73 -22 -41 -33 -366 -41 -1296 -11 -1188 -12 -1196 -101 -1260
-76 -54 -393 -251 -879 -545 -666 -404 -920 -567 -920 -595 0 -16 44 -49 86
-66 225 -88 847 -191 1058 -175 137 10 137 39 -5 146 -44 34 -85 73 -92 87
-10 23 -8 28 23 55 93 78 546 362 695 435 l74 37 68 -28 c310 -125 1746 -985
1940 -1160 47 -43 47 -43 30 -69 -9 -14 -36 -37 -59 -51 -115 -66 -908 -326
-1180 -387 -227 -50 -651 -79 -1288 -86 -508 -6 -776 3 -936 31 -441 78 -1207
328 -1599 521 -154 77 -221 124 -241 170 -33 80 -38 252 -39 1245 0 1021 3
1116 44 1185 21 37 114 96 504 319 1214 694 1223 698 1286 700 l36 1 7 -55 c8
-75 9 -522 1 -762 l-6 -196 -41 -23 c-117 -65 -623 -370 -698 -421 -100 -66
-121 -98 -137 -200 -12 -72 -1 -166 23 -203 9 -13 29 -26 46 -30 59 -13 134
23 504 239 509 299 676 408 731 481 l28 35 8 273 c23 796 31 1182 28 1362 -5
282 -12 289 -186 215 -157 -68 -423 -211 -998 -540 -651 -372 -989 -552 -1109
-589 -41 -13 -78 -18 -94 -14 -88 21 -493 249 -957 540 -585 366 -785 470
-830 433 -38 -31 -9 -131 166 -571 128 -323 206 -494 240 -525 30 -27 47 -11
104 102 45 89 53 99 75 96 50 -5 651 -384 713 -449 52 -55 58 -115 65 -663 12
-855 -5 -1591 -38 -1624 -14 -14 -94 13 -172 59 -143 85 -363 280 -694 616
-343 347 -458 484 -638 754 -600 901 -945 1910 -1004 2930 -14 225 -2 283 70
356 75 75 565 377 1298 801 569 329 575 332 672 347 136 22 230 -20 858 -382
610 -351 870 -511 938 -574 70 -67 21 -135 -153 -211 -60 -27 -191 -94 -290
-150 -208 -118 -322 -166 -368 -156 -46 10 -234 97 -381 176 -314 169 -489
248 -554 248 -86 0 -282 -127 -282 -183 0 -29 58 -86 146 -142 211 -136 874
-494 1026 -554 125 -50 87 -62 503 162 726 391 1122 618 1192 681 71 64 80 82
56 108 -40 44 -392 267 -1033 653 -662 399 -1016 622 -1053 662 -27 31 -36
231 -47 1063 -9 681 -20 1016 -36 1041 -10 16 -27 9 -81 -33 -149 -114 -539
-600 -593 -736 -11 -29 -11 -35 1 -43 14 -10 149 -5 202 7 l27 6 0 -429 c0
-473 -3 -506 -60 -588 -57 -83 -71 -92 -845 -547 -841 -494 -993 -576 -1108
-600 -54 -12 -58 -11 -80 10 -19 20 -22 32 -20 95 3 107 92 570 159 827 339
1300 1126 2481 2176 3266 278 208 462 314 545 314 53 0 158 -51 678 -333 806
-436 1297 -716 1321 -753 31 -46 36 -173 41 -979 6 -975 -4 -1182 -58 -1231
-17 -15 -22 -15 -82 13 -117 55 -524 297 -655 390 -115 82 -120 101 -132 548
-12 409 -24 585 -44 624 -22 41 -66 75 -149 115 -95 45 -123 51 -136 28 -19
-35 -32 -324 -38 -827 -6 -525 0 -653 32 -715 18 -36 140 -119 420 -287 484
-291 1164 -663 1211 -663 49 0 65 345 84 1810 l9 725 38 34 c66 58 243 169
798 503 702 422 920 564 939 614 15 39 -43 68 -225 112 -155 38 -335 73 -550
106 -176 28 -249 32 -249 16 0 -6 37 -47 83 -93 105 -103 110 -118 54 -169
-107 -98 -445 -326 -613 -414 -103 -54 -109 -53 -254 8 -174 73 -529 265
-1345 728 -439 249 -566 325 -609 365 l-28 26 27 29 c68 71 484 232 932 361
361 104 523 129 1008 158 192 12 966 12 1150 1z"/>
<path d="M6050 12054 c-417 -29 -955 -126 -1244 -225 -152 -53 -194 -80 -181
-118 9 -28 135 -121 306 -226 236 -145 1018 -585 1039 -585 6 0 65 36 130 80
116 79 190 147 190 174 0 24 -89 94 -240 188 -162 101 -230 152 -230 174 0 20
48 39 140 55 115 21 623 18 810 -4 692 -84 1358 -256 1518 -391 38 -33 40 -45
10 -73 -58 -54 -439 -293 -1128 -708 -560 -337 -923 -561 -992 -612 -39 -28
-51 -44 -63 -85 -25 -86 -34 -371 -40 -1333 -5 -849 -15 -1305 -31 -1413 -6
-41 -8 -43 -33 -37 -40 9 -297 136 -439 216 -168 95 -1111 641 -1282 742 -177
105 -409 258 -437 289 -53 57 -67 281 -68 1058 0 632 10 903 38 1045 12 58 13
60 42 59 71 -3 454 -200 668 -344 108 -73 112 -77 124 -123 22 -89 35 -279 47
-662 l11 -380 75 -52 c144 -100 251 -139 264 -95 27 87 50 547 50 1023 1 430
0 448 -19 468 -10 12 -66 51 -124 87 -283 176 -1233 726 -1483 858 l-127 67
-46 -20 c-252 -111 -987 -793 -1367 -1268 -338 -421 -619 -898 -808 -1367
-128 -320 -270 -803 -270 -922 0 -42 24 -84 49 -84 26 0 102 37 232 113 80 47
290 166 465 265 319 178 477 273 566 337 36 26 51 46 67 90 41 110 37 314 -8
358 -18 18 -21 18 -77 2 -33 -9 -131 -50 -219 -90 -157 -72 -246 -98 -259 -76
-12 18 43 159 120 311 125 248 303 529 456 722 278 349 787 851 931 918 50 23
76 15 94 -28 22 -54 32 -409 33 -1192 1 -723 11 -1129 30 -1243 11 -60 17 -71
54 -103 65 -56 240 -164 676 -414 679 -390 1404 -821 1618 -961 48 -31 82 -61
82 -70 0 -47 -212 -184 -846 -547 -718 -410 -1286 -712 -1385 -736 -37 -8 -85
10 -308 123 -530 265 -1380 754 -1479 851 -47 45 -50 57 -22 92 67 85 754 478
840 480 43 1 320 -138 659 -332 l265 -152 35 17 c79 37 218 126 254 161 l38
37 -38 39 c-48 50 -195 149 -398 270 -88 52 -274 163 -413 246 -237 141 -337
192 -381 192 -53 0 -664 -332 -1271 -690 -273 -161 -457 -281 -527 -344 -72
-65 -79 -93 -64 -266 32 -386 158 -964 296 -1360 264 -759 729 -1522 1235
-2031 144 -144 275 -255 316 -265 38 -10 70 3 83 33 30 75 34 141 38 758 l5
631 -91 79 c-110 97 -183 139 -226 131 -72 -14 -102 -96 -114 -311 -9 -163
-21 -205 -57 -205 -85 0 -465 637 -642 1075 -184 456 -332 1009 -332 1239 0
55 5 89 14 101 13 18 17 19 53 6 108 -38 458 -227 1263 -681 652 -368 886
-490 939 -490 30 0 117 38 324 141 296 148 604 318 1422 784 499 285 665 375
732 399 40 14 41 14 47 -8 39 -155 57 -1831 26 -2381 l-9 -160 -35 -30 c-94
-82 -1212 -744 -1495 -885 -152 -76 -245 -109 -268 -94 -39 24 -46 62 -54 289
-4 121 -8 320 -8 442 l-1 222 58 37 c31 21 203 125 382 232 366 220 411 256
429 340 15 70 16 275 1 301 -6 12 -19 21 -29 21 -61 0 -883 -460 -1201 -673
l-95 -63 -3 -184 c-3 -176 11 -1106 25 -1683 l6 -268 91 -46 c358 -180 696
-302 1156 -417 393 -99 591 -130 959 -148 496 -24 1156 25 1566 117 331 74
593 162 638 213 41 45 32 52 -353 311 -426 285 -793 515 -855 535 -32 9 -129
-20 -219 -67 -83 -43 -186 -131 -186 -159 0 -36 70 -105 245 -240 142 -110
173 -143 159 -166 -25 -38 -226 -69 -521 -78 -459 -15 -925 43 -1463 182 -425
110 -720 233 -720 301 0 29 240 189 661 440 1515 904 1544 922 1577 981 39 72
43 162 52 1337 10 1266 17 1440 66 1459 50 19 145 -17 340 -129 305 -174 1737
-1012 1796 -1051 39 -26 84 -66 108 -98 38 -50 42 -61 50 -143 25 -239 20
-1724 -6 -1918 -7 -46 -7 -47 -38 -41 -42 9 -262 118 -431 214 -201 115 -387
241 -407 277 -33 58 -40 154 -47 575 l-6 415 -100 68 c-132 90 -189 119 -228
115 -49 -5 -75 -65 -88 -210 -15 -165 -7 -1130 10 -1183 30 -93 69 -122 546
-402 589 -346 1177 -673 1245 -694 26 -8 47 -8 77 0 56 15 229 133 360 245
188 160 524 493 719 711 495 554 909 1281 1153 2027 154 472 166 588 61 588
-82 0 -241 -77 -635 -305 -256 -148 -539 -321 -608 -371 -27 -20 -55 -50 -62
-68 -33 -80 -27 -345 10 -417 30 -56 66 -50 250 47 127 66 239 109 257 98 30
-19 -26 -171 -133 -367 -139 -251 -310 -512 -457 -697 -283 -355 -766 -830
-869 -856 -88 -22 -96 56 -118 1116 -16 773 -31 1289 -41 1378 -7 65 58 21
-709 477 -1193 709 -1735 1047 -1735 1085 0 26 160 132 560 372 746 448 1675
958 1745 958 41 0 532 -268 1165 -635 424 -246 591 -350 617 -384 37 -49 25
-63 -132 -166 -114 -74 -671 -410 -698 -420 -8 -4 -105 44 -228 113 -118 65
-340 188 -493 272 l-279 153 -41 -23 c-143 -81 -184 -107 -228 -150 -32 -31
-47 -52 -43 -62 26 -67 1209 -808 1290 -808 68 0 1193 670 1605 957 70 49 126
96 145 121 42 61 45 168 11 407 -171 1174 -596 2125 -1362 3045 -160 193 -334
368 -396 400 -68 35 -81 25 -92 -76 -15 -134 -13 -1217 2 -1304 17 -100 50
-169 98 -207 51 -40 150 -90 197 -98 32 -6 40 -3 66 22 36 37 48 92 55 273 10
219 28 249 101 168 216 -238 642 -1214 755 -1728 17 -80 45 -203 61 -273 34
-150 31 -167 -31 -167 -90 0 -261 86 -900 452 -403 231 -744 421 -1105 616
l-130 71 -200 -103 c-214 -111 -438 -235 -1180 -654 -872 -493 -1168 -649
-1213 -640 -11 2 -20 20 -27 53 -6 31 -9 514 -8 1285 l1 1235 26 20 c52 42
400 257 641 397 510 297 1134 628 1183 628 53 0 67 -110 67 -525 0 -389 -4
-421 -63 -478 -82 -78 -331 -232 -764 -472 l-108 -60 0 -157 c0 -255 13 -266
210 -175 154 71 331 167 786 424 l381 216 7 661 c3 364 9 834 12 1046 l7 385
-144 77 c-195 105 -329 166 -489 226 -424 158 -961 274 -1515 327 -153 15
-639 27 -755 19z m346 -5549 c68 -52 93 -157 48 -206 -9 -10 -41 -28 -71 -39
l-55 -20 -34 20 c-18 12 -47 38 -64 60 -46 58 -40 115 21 185 30 34 36 37 76
32 26 -3 57 -16 79 -32z"/>
</g>
</svg>
