<?xml version="1.0" standalone="no"?>
<!DOCTYPE svg PUBLIC "-//W3C//DTD SVG 20010904//EN"
 "http://www.w3.org/TR/2001/REC-SVG-20010904/DTD/svg10.dtd">
<svg version="1.0" xmlns="http://www.w3.org/2000/svg"
 width="1280.000000pt" height="1280.000000pt" viewBox="0 0 1280.000000 1280.000000"
 preserveAspectRatio="xMidYMid meet">
<metadata>
Created by potrace 1.15, written by Peter Selinger 2001-2017
</metadata>
<g transform="translate(0.000000,1280.000000) scale(0.100000,-0.100000)"
fill="#edb176" stroke="none">
<path d="M5400 12757 c-152 -120 -211 -253 -165 -374 23 -60 101 -143 176
-189 l57 -34 -41 -84 -42 -83 -70 -6 c-90 -7 -215 -48 -310 -102 -41 -24 -75
-39 -75 -34 0 5 7 26 15 46 19 46 19 50 -3 30 -10 -9 -31 -43 -46 -74 -15 -32
-41 -68 -58 -80 -17 -12 -65 -53 -107 -91 -77 -70 -77 -70 -106 -55 -120 61
-167 191 -131 357 29 130 82 249 201 456 l26 45 -53 -57 c-148 -158 -270 -444
-254 -598 10 -100 33 -149 104 -218 l64 -64 -30 -31 c-16 -18 -58 -73 -94
-123 -35 -50 -69 -89 -74 -87 -6 2 -16 -2 -22 -10 -10 -11 -22 -12 -74 -1 -35
6 -104 17 -153 24 l-90 13 0 86 c0 72 -4 95 -26 141 -31 66 -98 136 -178 184
-126 77 -366 147 -498 145 -58 0 -58 -1 72 -35 363 -97 555 -241 555 -414 0
-82 -15 -120 -48 -120 -15 0 -79 -5 -142 -10 -103 -8 -121 -7 -182 11 -84 26
-122 21 -56 -6 27 -11 48 -22 48 -25 0 -3 -32 -13 -72 -22 -95 -23 -243 -97
-304 -151 l-49 -45 -91 30 -91 30 13 46 c22 72 28 173 14 230 -18 78 -58 125
-137 164 -65 32 -72 33 -183 33 -70 -1 -123 -5 -135 -13 l-20 -11 20 -1 c76
-2 212 -23 259 -40 86 -33 136 -104 136 -195 -1 -130 -103 -356 -285 -630
-162 -244 -232 -328 -342 -412 -124 -95 -354 -248 -459 -305 -160 -88 -326
-147 -414 -148 -85 0 -158 52 -190 136 -17 47 -38 183 -40 259 l-1 20 -11 -20
c-8 -12 -12 -65 -13 -135 0 -109 2 -119 32 -182 37 -78 86 -120 165 -138 57
-14 158 -8 230 14 l46 13 30 -91 30 -91 -45 -49 c-54 -61 -128 -209 -151 -304
-9 -40 -19 -72 -22 -72 -3 0 -14 21 -25 48 -28 66 -32 26 -6 -57 18 -60 19
-75 9 -207 l-11 -143 -30 -11 c-17 -5 -55 -10 -87 -10 -173 0 -317 192 -414
555 -34 130 -35 130 -35 72 -2 -132 68 -372 145 -498 46 -76 113 -143 178
-177 45 -24 62 -27 142 -27 l91 0 13 -90 c7 -49 18 -118 24 -153 11 -52 10
-64 -1 -74 -8 -6 -12 -16 -10 -22 2 -5 -37 -39 -87 -74 -50 -36 -105 -78 -123
-94 l-31 -30 -64 64 c-67 69 -116 93 -213 104 -151 18 -445 -106 -603 -254
l-57 -53 45 26 c257 148 434 215 568 215 98 0 200 -59 241 -139 l19 -35 -70
-77 c-38 -42 -79 -90 -91 -107 -12 -17 -48 -43 -80 -58 -31 -15 -65 -36 -74
-46 -20 -22 -16 -22 30 -3 20 8 41 15 46 15 5 0 -10 -34 -34 -75 -54 -95 -95
-220 -102 -310 l-6 -70 -83 -42 -83 -41 -31 50 c-138 224 -320 259 -497 95
-44 -41 -118 -135 -112 -142 2 -2 38 26 79 61 93 80 177 124 237 124 183 0
319 -279 419 -855 37 -210 37 -320 0 -530 -100 -576 -236 -855 -419 -855 -60
0 -144 44 -237 124 -41 35 -77 63 -79 61 -6 -7 68 -101 112 -142 106 -98 214
-127 314 -83 58 25 134 99 183 178 l31 50 83 -41 83 -42 6 -70 c7 -90 48 -215
102 -310 24 -41 39 -75 34 -75 -5 0 -26 7 -46 15 -46 19 -50 19 -30 -3 9 -10
43 -31 74 -46 32 -15 68 -41 80 -58 12 -17 53 -65 91 -107 70 -77 70 -77 55
-106 -61 -119 -183 -165 -349 -131 -130 26 -252 79 -464 201 l-45 26 57 -53
c158 -148 452 -272 603 -254 97 11 146 35 213 104 l64 64 31 -30 c18 -16 73
-58 123 -94 50 -35 89 -69 87 -74 -2 -6 3 -16 11 -23 10 -9 12 -20 6 -39 -4
-15 -15 -84 -25 -152 l-18 -125 -86 0 c-102 0 -170 -26 -239 -94 -119 -116
-217 -363 -228 -576 l-4 -90 35 130 c101 366 242 555 415 555 32 0 70 -5 87
-10 l30 -11 11 -143 c10 -132 9 -147 -9 -207 -26 -83 -22 -123 6 -57 11 27 22
48 25 48 3 0 13 -32 22 -72 23 -96 97 -243 151 -304 l45 -49 -29 -85 c-32 -97
-20 -91 -157 -69 -192 31 -308 -47 -343 -229 -12 -65 -7 -179 10 -224 7 -18
10 -5 15 57 23 276 107 363 310 322 140 -29 315 -115 551 -272 244 -162 328
-232 411 -340 275 -362 453 -703 454 -870 0 -91 -50 -162 -136 -195 -46 -17
-174 -37 -259 -40 -17 -1 -17 -3 5 -12 14 -6 75 -12 135 -12 106 -1 113 0 178
32 79 39 119 86 137 164 14 57 8 158 -14 230 l-13 46 91 30 91 30 49 -45 c61
-54 209 -128 304 -151 40 -9 72 -19 72 -22 0 -3 -21 -14 -48 -25 -66 -27 -28
-32 56 -6 61 18 79 19 182 11 63 -5 127 -10 142 -10 33 0 48 -38 48 -120 0
-173 -192 -317 -555 -414 -130 -34 -130 -35 -72 -35 132 -2 372 68 498 145 76
46 143 113 177 178 24 45 27 62 27 142 l0 91 90 13 c50 7 118 18 152 24 34 7
66 9 70 5 5 -4 14 -9 22 -11 8 -2 44 -43 79 -93 36 -49 78 -104 94 -122 l30
-31 -64 -64 c-71 -69 -94 -118 -104 -218 -16 -154 106 -441 254 -598 50 -53
52 -54 31 -18 -152 263 -218 435 -219 567 0 105 56 206 139 248 l35 19 77 -70
c42 -38 90 -79 107 -91 17 -12 43 -48 58 -80 15 -31 36 -65 46 -74 22 -20 22
-16 3 30 -8 20 -15 41 -15 46 0 5 34 -10 75 -34 95 -54 220 -95 310 -102 l70
-6 42 -83 41 -84 -57 -34 c-75 -46 -153 -129 -176 -189 -37 -96 -6 -202 88
-304 42 -45 135 -118 142 -111 2 2 -25 37 -61 78 -80 92 -124 177 -124 237 0
183 280 320 855 419 210 37 320 37 530 0 575 -99 855 -236 855 -419 0 -60 -44
-144 -124 -237 -35 -41 -63 -77 -61 -79 7 -6 101 68 142 112 94 102 125 208
88 304 -23 60 -101 143 -176 189 l-57 34 41 84 42 83 70 6 c90 7 215 48 310
102 41 24 75 39 75 34 0 -5 -7 -26 -15 -46 -19 -46 -19 -50 3 -30 10 9 31 43
46 74 15 32 41 68 58 80 17 12 65 53 107 91 l77 70 35 -19 c80 -41 139 -143
139 -241 0 -134 -67 -311 -215 -568 l-26 -45 53 57 c148 158 270 444 254 598
-10 100 -33 149 -104 218 l-64 64 30 31 c16 18 58 73 94 123 35 50 69 89 74
87 6 -2 16 2 22 10 10 11 22 12 74 1 35 -6 104 -17 153 -24 l90 -13 0 -91 c0
-79 4 -98 27 -141 69 -132 227 -233 457 -292 53 -13 137 -26 186 -29 l90 -4
-130 35 c-366 101 -555 242 -555 415 0 82 15 120 48 120 15 0 79 5 142 10 103
8 121 7 182 -11 84 -26 122 -21 56 6 -27 11 -48 22 -48 25 0 3 32 13 72 22 95
23 243 97 304 151 l49 45 91 -30 90 -30 -17 -67 c-32 -122 -19 -234 35 -306
15 -20 54 -48 93 -67 65 -32 72 -33 178 -32 60 0 121 6 135 12 22 9 22 11 5
12 -85 3 -213 23 -259 40 -86 33 -136 104 -136 195 1 167 179 508 454 870 80
105 158 171 385 323 240 163 428 257 574 289 203 44 290 -46 313 -322 5 -62 8
-75 15 -57 17 45 22 159 10 224 -35 182 -151 260 -343 229 -137 -22 -125 -28
-157 69 l-29 85 45 49 c54 61 128 208 151 304 9 40 19 72 22 72 3 0 14 -21 25
-48 27 -66 32 -28 6 56 -18 61 -19 79 -11 182 5 63 10 127 10 142 0 33 38 48
120 48 117 0 212 -79 299 -250 60 -118 75 -159 117 -312 l33 -123 0 58 c2 120
-59 343 -127 467 -54 100 -117 166 -197 208 -43 23 -62 27 -141 27 l-91 0 -18
125 c-10 68 -21 137 -25 152 -6 19 -4 30 6 39 8 7 13 17 11 23 -2 5 37 39 87
74 50 36 105 78 123 94 l31 30 64 -64 c67 -69 116 -93 213 -104 151 -18 445
106 603 254 l57 53 -45 -26 c-257 -148 -434 -215 -568 -215 -98 0 -200 59
-241 139 l-19 35 70 77 c38 42 79 90 91 107 12 17 48 43 80 58 31 15 65 36 74
46 20 22 16 22 -30 3 -20 -8 -41 -15 -46 -15 -5 0 10 34 34 75 54 95 95 220
102 310 l6 70 83 42 83 41 31 -50 c138 -224 320 -259 497 -95 44 41 118 135
112 142 -2 2 -38 -26 -79 -61 -175 -150 -287 -163 -394 -43 -106 118 -193 376
-262 774 -37 210 -37 320 0 530 69 398 156 656 262 774 107 120 219 107 394
-43 41 -35 77 -63 79 -61 6 7 -68 101 -112 142 -102 94 -208 125 -304 88 -60
-23 -143 -101 -189 -176 l-34 -57 -84 41 -83 42 -6 70 c-7 90 -48 215 -102
310 -24 41 -39 75 -34 75 5 0 26 -7 46 -15 46 -19 50 -19 30 3 -9 10 -43 31
-74 46 -32 15 -68 41 -80 58 -12 17 -53 65 -91 107 -70 77 -70 77 -55 106 61
119 183 165 349 131 130 -26 252 -79 464 -201 l45 -26 -57 53 c-158 148 -452
272 -603 254 -97 -11 -146 -35 -213 -104 l-64 -64 -31 30 c-18 16 -73 58 -123
94 -50 35 -89 69 -87 74 2 6 -2 16 -10 22 -11 10 -12 22 -1 74 6 35 17 104 24
153 l13 90 91 0 c79 0 97 3 141 27 80 42 143 108 197 208 68 124 129 347 127
467 0 58 -1 58 -35 -72 -97 -363 -241 -555 -414 -555 -82 0 -120 15 -120 48 0
15 -5 79 -10 142 -8 103 -7 121 11 182 26 84 21 122 -6 56 -11 -27 -22 -48
-25 -48 -3 0 -13 32 -22 72 -23 95 -97 243 -151 304 l-45 49 30 91 30 91 47
-15 c26 -8 88 -15 141 -16 84 -1 101 2 145 24 56 29 106 94 127 163 15 50 15
231 1 267 -9 21 -12 13 -17 -55 -23 -276 -107 -363 -310 -322 -180 37 -482
205 -789 440 -110 84 -180 168 -342 412 -182 274 -284 500 -285 630 0 91 50
162 136 195 46 17 174 37 259 40 17 1 17 3 -5 12 -14 6 -75 12 -135 12 -106 1
-113 0 -178 -32 -79 -39 -119 -86 -137 -164 -14 -57 -8 -158 14 -230 l13 -46
-91 -30 -91 -30 -49 45 c-61 54 -209 128 -304 151 -40 9 -72 19 -72 22 0 3 21
14 48 25 66 27 28 32 -56 6 -61 -18 -79 -19 -182 -11 -63 5 -127 10 -142 10
-33 0 -48 38 -48 120 0 117 78 211 250 299 110 56 151 72 315 117 l120 33 -58
0 c-132 2 -372 -68 -498 -145 -76 -46 -143 -113 -177 -178 -24 -45 -27 -62
-27 -142 l0 -91 -90 -13 c-49 -7 -118 -18 -153 -24 -52 -11 -64 -10 -74 1 -6
8 -16 12 -22 10 -5 -2 -39 37 -74 87 -36 50 -78 105 -94 123 l-30 31 64 64
c71 69 94 118 104 218 16 154 -106 440 -254 598 l-53 57 26 -45 c148 -257 215
-434 215 -568 0 -98 -59 -200 -139 -241 l-35 -19 -77 70 c-42 38 -90 79 -107
91 -17 12 -43 48 -58 80 -15 31 -36 65 -46 74 -22 20 -22 16 -3 -30 8 -20 15
-41 15 -46 0 -5 -34 10 -75 34 -95 54 -220 95 -310 102 l-70 6 -42 83 -41 83
50 31 c224 138 259 320 95 497 -41 44 -135 118 -142 112 -2 -2 26 -38 61 -79
180 -209 163 -341 -57 -463 -182 -101 -692 -221 -939 -221 -116 0 -343 35
-548 85 -461 112 -640 261 -548 454 24 51 48 84 124 174 24 28 40 51 35 51 -4
0 -33 -19 -63 -43z m379 -712 c64 -18 135 -36 158 -40 46 -7 68 -25 32 -25
-12 0 -61 -9 -110 -21 l-88 -20 -123 20 c-68 11 -144 23 -170 27 l-46 6 18 52
c10 28 23 63 28 78 l11 27 87 -35 c48 -20 139 -50 203 -69z m1564 19 l26 -72
-47 -6 c-26 -4 -102 -16 -170 -27 l-123 -20 -88 20 c-49 12 -98 21 -110 21
-42 0 -11 17 51 30 85 16 267 72 353 108 39 16 73 27 76 23 4 -3 18 -38 32
-77z m-768 -154 c235 -16 236 -19 27 -68 -99 -23 -190 -42 -202 -42 -12 0
-103 19 -202 42 -210 49 -209 52 32 69 85 6 157 13 159 15 3 2 12 2 20 0 9 -3
84 -10 166 -16z m-1233 -52 l-8 -33 -80 -6 c-92 -8 -181 -28 -279 -63 l-70
-25 29 24 c37 30 175 97 246 120 60 20 163 34 168 24 2 -4 -1 -22 -6 -41z
m2283 16 c67 -22 205 -90 241 -119 l29 -24 -70 25 c-96 35 -229 64 -297 64
-63 0 -63 0 -73 51 l-7 36 64 -9 c35 -4 86 -15 113 -24z m-2071 8 c8 -4 -136
-62 -156 -62 -4 0 -6 6 -4 13 3 6 7 25 11 40 l6 29 67 -7 c37 -4 71 -10 76
-13z m1842 -9 c3 -16 7 -34 10 -40 5 -18 -2 -17 -92 16 -79 29 -82 37 -14 44
86 9 89 9 96 -20z m-1509 -58 c59 -14 149 -35 198 -47 l90 -22 -40 -12 c-55
-17 -87 -17 -255 2 -146 16 -275 42 -264 53 5 5 139 49 156 50 3 1 55 -10 115
-24z m1213 3 c41 -11 79 -24 83 -28 13 -12 -111 -37 -263 -54 -168 -19 -200
-19 -255 -2 l-40 12 160 38 c88 21 174 42 190 46 44 12 43 12 125 -12z m-635
-142 l40 -12 -52 -13 c-43 -11 -63 -11 -105 0 l-53 13 40 12 c22 7 51 12 65
12 14 0 43 -5 65 -12z m-1145 -70 c0 -19 -6 -24 -37 -29 -63 -10 -238 -20
-233 -14 9 10 213 66 243 66 22 1 27 -3 27 -23z m2316 -7 c59 -16 111 -33 114
-36 5 -6 -171 4 -232 14 -32 5 -38 10 -38 29 0 32 21 31 156 -7z m-2201 1 c-3
-5 -15 -10 -26 -10 -10 0 -19 5 -19 10 0 6 12 10 26 10 14 0 23 -4 19 -10z
m1975 0 c0 -5 -9 -10 -19 -10 -11 0 -23 5 -26 10 -4 6 5 10 19 10 14 0 26 -4
26 -10z m-1221 -16 c2 -2 1 -7 -2 -11 -4 -3 -22 1 -40 10 l-32 16 35 -6 c19
-3 37 -7 39 -9z m471 1 c-29 -17 -50 -19 -50 -6 0 8 20 14 65 19 6 1 -1 -5
-15 -13z m-822 -110 c3 -3 3 -7 1 -9 -7 -6 -258 -66 -303 -72 -43 -6 -45 -5
-75 36 -17 24 -31 48 -31 55 0 8 44 19 123 32 l122 19 79 -28 c43 -15 81 -30
84 -33z m1515 25 c25 0 21 -21 -14 -70 -29 -40 -33 -42 -72 -37 -65 9 -307 70
-307 78 0 4 36 20 80 36 l81 29 107 -17 c59 -10 115 -18 125 -19z m-901 18
l40 -12 -34 -17 c-42 -23 -68 -23 -113 -2 l-36 17 33 12 c43 16 62 16 110 2z
m-1085 -87 l31 -60 -66 -7 c-88 -9 -226 1 -282 21 -52 18 -120 61 -120 75 0 6
55 10 138 11 111 1 228 9 263 18 3 0 19 -26 36 -58z m2316 42 c103 -3 187 -10
187 -14 0 -13 -70 -56 -120 -74 -56 -20 -194 -30 -282 -21 l-66 7 31 60 c23
44 35 58 46 53 9 -3 100 -8 204 -11z m-2833 -12 c0 -4 19 -30 42 -56 84 -96
209 -130 441 -123 l140 4 56 -37 c64 -42 164 -79 216 -79 19 0 35 -3 35 -7 0
-23 -368 -154 -481 -173 -208 -33 -461 12 -642 114 -73 41 -200 137 -199 150
0 9 369 216 385 216 4 0 7 -4 7 -9z m3310 -98 c96 -52 179 -99 184 -103 11
-10 -88 -89 -183 -145 -187 -111 -444 -160 -660 -125 -113 19 -481 150 -481
173 0 4 16 7 35 7 52 0 152 37 216 79 l56 37 140 -4 c163 -5 256 8 340 47 55
27 143 107 143 132 0 16 13 10 210 -98z m-2127 13 c15 -19 27 -39 26 -43 -1
-20 -63 -54 -116 -64 -85 -16 -248 -6 -303 18 l-45 20 40 11 c22 5 101 24 175
42 74 18 144 36 155 41 33 13 39 11 68 -25z m967 -17 c69 -17 143 -36 165 -41
l40 -11 -45 -19 c-48 -22 -210 -36 -272 -24 -18 3 -50 21 -72 39 l-39 33 29
31 c19 21 36 30 49 27 11 -2 76 -18 145 -35z m-3405 -177 c-98 -51 -177 -103
-240 -157 l-41 -34 -33 21 -34 22 39 33 c53 46 181 108 284 137 122 36 127 31
25 -22z m5631 22 c109 -31 236 -91 288 -136 l39 -34 -33 -21 -34 -21 -30 24
c-94 77 -143 109 -237 159 -57 30 -99 55 -93 55 7 0 52 -11 100 -26z m-4881
-36 c-30 -223 -75 -349 -178 -503 -52 -77 -175 -200 -252 -252 -65 -44 -215
-121 -298 -154 -29 -12 -74 -30 -101 -40 l-49 -20 17 23 c61 86 94 163 110
259 5 29 19 46 73 90 89 72 186 188 226 268 29 60 32 74 32 159 l0 92 85 26
c132 41 314 93 328 93 9 1 11 -11 7 -41z m202 -114 c117 -98 250 -167 393
-204 131 -34 355 -39 487 -11 95 20 269 75 381 120 l53 21 -3 -27 c-3 -23 -12
-29 -63 -47 l-60 -21 63 -3 62 -3 0 -32 c0 -95 65 -244 152 -347 l56 -68 -61
-50 c-145 -118 -312 -311 -418 -483 -166 -273 -240 -509 -241 -768 l0 -133
-73 75 c-232 240 -592 395 -1015 438 -107 11 -389 6 -423 -7 -11 -4 -15 14
-20 79 -11 141 -54 256 -134 355 l-35 43 27 25 c35 32 27 39 -19 17 -33 -15
-38 -15 -52 -1 -14 14 -2 22 121 81 166 81 279 154 368 237 137 128 251 313
299 485 18 65 22 108 22 230 l1 150 42 -55 c22 -30 63 -74 90 -96z m3841 114
c-14 -62 -3 -250 21 -340 42 -159 129 -311 258 -448 110 -117 257 -211 501
-320 79 -36 81 -37 63 -54 -18 -16 -22 -16 -71 9 -29 14 -54 25 -56 23 -2 -3
14 -21 35 -42 l39 -38 -34 -48 c-70 -98 -113 -232 -114 -354 0 -48 -3 -57 -16
-52 -8 3 -83 9 -167 12 -245 11 -460 -20 -703 -101 -242 -80 -401 -173 -555
-326 l-89 -88 0 123 c0 217 -43 387 -154 611 -130 262 -287 463 -515 657 l-55
46 43 44 c87 92 145 206 164 324 l12 74 35 1 35 1 -37 15 c-28 12 -38 22 -38
38 0 22 3 21 139 -26 223 -77 314 -93 500 -86 125 4 173 10 244 30 106 31 213
80 299 138 69 47 194 169 203 200 12 37 23 18 13 -23z m191 11 c58 -17 150
-44 203 -60 l96 -30 -5 -73 c-7 -87 10 -147 66 -233 40 -62 134 -163 213 -229
43 -36 48 -45 62 -110 16 -78 50 -153 92 -203 14 -18 25 -33 23 -36 -6 -5
-206 78 -299 125 -122 61 -194 113 -281 199 -147 148 -248 340 -278 531 -20
131 -22 150 -10 150 6 0 59 -14 118 -31z m-2126 -5 c72 -37 158 -106 182 -148
28 -49 33 -112 11 -154 -19 -36 -98 -110 -168 -157 l-57 -37 -68 49 c-188 133
-217 230 -105 342 36 36 146 114 170 120 2 1 17 -6 35 -15z m-3331 -132 c4 -4
-9 -27 -28 -52 -20 -25 -65 -86 -99 -135 -57 -82 -73 -97 -159 -153 -53 -33
-96 -59 -96 -56 0 2 27 50 61 105 61 102 130 238 161 316 l16 43 69 -31 c37
-16 71 -33 75 -37z m6723 11 c28 -74 101 -217 161 -313 30 -49 54 -91 54 -94
0 -3 -43 23 -96 56 -86 56 -102 71 -159 153 -34 50 -79 110 -99 134 -20 23
-36 45 -36 48 0 7 144 71 151 67 3 -2 14 -25 24 -51z m-6016 -172 c-24 -48
-58 -92 -125 -158 -51 -51 -96 -93 -102 -93 -5 0 -19 26 -30 57 l-21 57 37 31
c81 66 214 189 240 221 l27 34 3 -41 c2 -31 -5 -59 -29 -108z m5311 -45 c58
-50 104 -95 103 -101 -7 -34 -37 -105 -45 -105 -5 0 -51 42 -102 93 -105 105
-156 191 -156 263 l0 43 48 -51 c26 -28 94 -92 152 -142z m158 57 c27 -20 30
-27 22 -44 -6 -10 -14 -19 -18 -19 -10 0 -212 168 -212 176 0 8 169 -84 208
-113z m-5608 93 c-38 -36 -184 -156 -191 -156 -5 0 -13 9 -19 19 -12 24 16 48
130 110 78 42 105 51 80 27z m-443 -20 c15 -13 26 -26 23 -29 -8 -8 -143 -67
-146 -64 -4 4 80 117 88 117 4 0 20 -11 35 -24z m6402 -51 c18 -25 30 -45 28
-45 -9 0 -157 70 -157 74 0 2 15 13 32 24 38 24 44 21 97 -53z m-6225 -146
c-25 -27 -37 -23 -18 6 9 14 20 22 26 19 5 -3 2 -14 -8 -25z m5976 -13 c0 -5
-9 -1 -20 9 -11 10 -17 22 -14 27 6 9 33 -20 34 -36z m-6277 -42 c-15 -27 -50
-76 -78 -109 -29 -33 -75 -91 -104 -130 -51 -67 -75 -89 -135 -122 l-30 -16
15 24 c8 13 57 92 109 175 l93 152 76 40 c42 23 77 39 78 38 2 -2 -9 -25 -24
-52z m6680 -33 c21 -20 216 -334 212 -339 -11 -12 -113 76 -161 138 -31 41
-78 100 -104 130 -43 51 -100 139 -100 155 0 10 131 -63 153 -84z m-6304 -22
c6 -18 11 -47 11 -65 0 -31 -6 -38 -82 -87 -124 -79 -210 -128 -216 -123 -3 3
10 39 29 80 33 71 40 79 134 150 55 41 103 75 107 75 3 1 11 -13 17 -30z
m5929 -49 c86 -62 92 -69 127 -143 21 -43 35 -80 32 -83 -5 -6 -200 108 -263
154 l-41 30 8 51 c4 28 11 56 14 61 8 12 8 12 123 -70z m-6659 -97 c-13 -21
-60 -96 -104 -168 l-81 -130 -130 -80 c-71 -45 -147 -92 -169 -105 l-39 -24
32 44 c65 91 220 261 302 332 83 73 202 168 208 168 2 0 -7 -17 -19 -37z
m7341 -41 c195 -161 203 -169 372 -375 37 -44 66 -82 64 -84 -1 -2 -77 43
-167 100 l-165 102 -100 159 c-54 88 -101 164 -103 170 -5 13 -1 11 99 -72z
m-6620 -58 c-44 -116 -184 -256 -269 -270 l-43 -7 6 29 c7 34 -1 50 -29 55
-13 3 14 23 90 66 61 34 139 82 175 106 77 53 82 55 70 21z m5915 -39 c44 -29
120 -74 168 -100 l88 -49 -3 -41 -3 -40 -60 3 c-68 4 -95 21 -183 110 -48 49
-79 96 -102 158 -8 19 -7 23 3 18 6 -5 48 -31 92 -59z m-6495 -144 c-6 -12
-15 -21 -21 -21 -6 0 -2 14 8 30 19 33 31 24 13 -9z m7003 -21 c-6 -6 -33 30
-33 44 0 6 9 0 20 -14 10 -14 16 -27 13 -30z m-7189 -58 c-19 -35 -42 -57 -76
-76 l-49 -28 29 47 c23 37 95 99 120 104 2 1 -9 -21 -24 -47z m7442 -49 c33
-53 30 -56 -19 -26 -35 21 -97 96 -97 118 0 16 97 -61 116 -92z m-3631 -37
c213 -178 358 -357 474 -587 89 -178 106 -245 105 -419 0 -107 -5 -154 -23
-225 -68 -264 -221 -547 -507 -936 -54 -74 -113 -158 -130 -187 l-33 -54 -17
34 c-9 18 -62 96 -118 173 -343 472 -489 747 -542 1022 -21 111 -18 283 6 377
51 201 220 474 409 665 89 89 247 221 266 221 5 0 55 -38 110 -84z m-4429 -87
c-67 -105 -81 -119 -191 -197 -50 -34 -105 -74 -123 -89 l-32 -26 -35 76 c-19
42 -35 78 -35 80 0 3 12 8 28 11 44 11 280 131 362 184 41 27 76 48 77 47 2
-1 -21 -39 -51 -86z m739 69 c-16 -53 -31 -72 -69 -85 -22 -7 -41 -11 -44 -9
-9 10 40 75 71 95 41 27 50 26 42 -1z m7149 1 c31 -18 83 -86 73 -96 -17 -16
-117 75 -117 106 0 15 4 14 44 -10z m748 -45 c95 -58 249 -136 325 -166 l43
-16 -23 -49 c-13 -26 -30 -61 -38 -76 l-15 -28 -40 32 c-21 17 -82 62 -135
100 -86 61 -102 78 -157 164 -33 52 -59 95 -57 95 2 0 46 -25 97 -56z m-8303
-21 c-12 -21 -28 -46 -34 -55 -6 -9 -53 -49 -105 -88 -52 -40 -111 -87 -130
-105 -35 -32 -130 -89 -137 -82 -2 2 16 38 39 79 l42 76 170 106 c94 58 172
106 174 106 2 0 -7 -17 -19 -37z m8206 -152 c27 -18 54 -51 82 -101 23 -40 41
-76 39 -78 -7 -6 -98 49 -131 78 -16 15 -75 63 -130 105 -58 46 -114 98 -132
126 -18 27 -33 51 -33 54 0 5 224 -130 305 -184z m-8059 71 c-6 -10 -66 -34
-66 -27 0 1 15 12 32 23 32 21 45 22 34 4z m7674 -20 c-12 -4 -50 17 -50 28 0
5 13 1 30 -8 16 -9 25 -18 20 -20z m-6908 -79 c19 -10 43 -38 56 -63 21 -40
23 -54 18 -130 -3 -47 -12 -107 -18 -135 l-13 -50 -60 -13 c-33 -7 -96 -13
-140 -15 -89 -2 -130 14 -169 66 -42 56 -22 302 26 328 36 19 152 38 210 35
32 -2 73 -13 90 -23z m6398 1 l58 -16 21 -84 c26 -103 26 -166 2 -221 -38 -82
-104 -101 -265 -78 -61 9 -114 21 -117 27 -11 17 -29 153 -29 214 0 160 119
218 330 158z m-7855 -207 c-19 -43 -36 -77 -39 -77 -6 0 -49 71 -45 74 74 58
112 86 115 83 3 -2 -11 -38 -31 -80z m9079 4 c12 -14 11 -21 -10 -50 l-23 -35
-36 78 c-19 42 -35 79 -35 82 0 7 87 -56 104 -75z m-8369 49 c3 -5 22 -10 41
-10 31 0 34 -3 34 -29 0 -34 -69 -132 -143 -203 -44 -42 -164 -114 -174 -105
-2 2 17 35 43 73 25 38 73 117 106 177 56 100 78 122 93 97z m7656 -52 c20
-39 122 -209 164 -271 l18 -29 -39 16 c-62 26 -140 84 -188 140 -41 49 -44 56
-48 119 l-3 67 37 0 c34 0 40 -4 59 -42z m-7877 -75 c-21 -38 -62 -106 -92
-152 l-55 -83 -55 5 c-30 3 -59 10 -64 15 -6 6 19 48 66 112 69 93 81 105 143
135 37 18 74 34 81 34 9 1 0 -23 -24 -66z m8099 27 c32 -16 66 -39 75 -52 9
-13 42 -58 75 -102 36 -48 55 -82 49 -88 -5 -5 -34 -12 -64 -15 l-56 -6 -39
59 c-44 65 -143 231 -143 240 0 8 36 -5 103 -36z m-8695 -31 l20 -32 -63 -79
c-34 -44 -88 -128 -119 -186 -61 -114 -65 -105 -19 43 29 92 80 194 124 248
17 20 32 37 34 37 2 0 12 -14 23 -31z m9337 -94 c34 -60 87 -208 99 -275 5
-26 -5 -13 -41 55 -48 91 -107 180 -162 245 l-30 36 22 33 21 34 29 -34 c15
-19 43 -61 62 -94z m-9090 -45 c-10 -11 -22 -17 -28 -13 -6 4 -3 12 8 20 28
20 41 16 20 -7z m8748 6 c10 -8 14 -17 9 -20 -5 -3 -17 3 -27 14 -21 23 -9 26
18 6z m-8815 -87 c-6 -17 -161 -200 -165 -195 -7 6 71 151 103 194 21 27 28
31 45 21 11 -6 19 -14 17 -20z m612 -19 c-11 -27 -29 -72 -40 -100 -32 -80
-110 -231 -153 -295 -51 -76 -174 -199 -252 -252 -134 -91 -269 -143 -434
-167 -58 -9 -107 -13 -109 -11 -5 5 35 150 89 327 l30 96 73 -5 c87 -7 147 10
233 66 62 40 163 134 229 213 36 43 45 48 112 62 74 15 178 64 208 97 29 33
34 21 14 -31z m7715 -10 c49 -30 115 -53 185 -64 29 -5 47 -20 98 -81 79 -94
178 -177 262 -218 59 -29 73 -32 157 -32 l93 0 29 -95 c45 -143 93 -321 89
-325 -2 -2 -39 1 -83 6 -285 34 -550 190 -704 414 -55 79 -153 274 -195 389
l-26 68 22 -16 c13 -9 46 -30 73 -46z m655 -66 c29 -52 50 -97 48 -99 -3 -3
-36 32 -74 78 -108 128 -101 117 -79 133 26 19 41 4 105 -112z m-8822 19 c23
-8 42 -19 42 -25 0 -5 -42 -51 -92 -102 -107 -106 -192 -156 -265 -156 l-44 0
63 59 c35 33 99 102 143 155 55 65 85 94 95 90 8 -4 34 -13 58 -21z m670 7
c10 -17 8 -28 -14 -71 -14 -28 -24 -53 -22 -55 3 -2 22 14 43 36 l38 39 43
-38 c87 -76 236 -131 357 -131 36 0 68 -4 71 -8 2 -4 1 -66 -4 -137 -22 -324
46 -674 185 -961 64 -133 151 -253 255 -354 l77 -75 -141 -1 c-108 0 -165 -5
-246 -23 -235 -51 -508 -189 -730 -368 -78 -63 -266 -252 -296 -298 -9 -14
-20 -25 -26 -25 -5 0 -27 17 -49 38 -100 93 -202 142 -337 163 l-82 12 -1 46
-1 46 -14 -35 c-23 -56 -30 -65 -54 -68 -19 -3 -21 -1 -15 15 35 82 108 309
125 393 29 135 25 358 -10 490 -51 198 -178 399 -309 490 -28 19 -50 38 -51
41 0 4 17 3 38 -2 62 -14 202 -10 297 10 251 52 502 227 650 454 53 82 195
363 195 386 0 17 14 13 28 -9z m8040 -92 c51 -58 115 -127 143 -152 l51 -46
-44 0 c-74 0 -159 50 -265 156 -51 51 -93 97 -93 102 0 9 97 51 111 48 3 0 47
-49 97 -108z m-732 -68 c86 -178 161 -289 258 -386 145 -146 328 -247 511
-285 95 -20 235 -24 298 -10 38 9 53 -3 18 -14 -31 -9 -153 -134 -200 -204
-59 -87 -114 -209 -141 -311 -32 -120 -39 -352 -15 -470 17 -88 83 -300 116
-377 l19 -44 -27 3 c-21 2 -29 12 -42 48 l-16 45 -5 -50 -5 -50 -47 -7 c-107
-15 -213 -67 -316 -155 l-55 -47 -40 50 c-70 84 -238 247 -324 312 -164 124
-367 234 -540 293 -140 47 -235 63 -390 63 l-142 1 77 76 c178 174 284 362
367 649 60 210 70 288 70 561 l0 246 60 2 c123 3 239 41 340 111 l47 32 29
-28 c33 -32 36 -28 12 20 -13 29 -14 38 -3 51 7 8 15 14 17 11 3 -2 33 -64 69
-136z m-5743 -6 c209 -30 439 -110 560 -193 267 -183 443 -584 546 -1241 31
-196 52 -302 63 -324 9 -17 7 -18 -13 -12 -48 14 -169 36 -354 66 -727 118
-1103 308 -1270 640 -104 207 -164 525 -151 795 6 119 20 253 28 260 2 2 41 8
88 13 141 16 380 14 503 -4z m4609 5 c57 -6 105 -13 106 -14 2 -2 11 -70 19
-152 28 -283 -10 -573 -107 -819 -160 -404 -543 -607 -1395 -739 -151 -23
-208 -34 -268 -51 -15 -5 -16 -2 -6 23 6 15 28 135 50 267 65 395 112 585 193
786 104 260 236 428 424 539 107 64 383 146 552 164 81 9 337 6 432 -4z
m-7312 -868 c98 -148 149 -308 157 -501 6 -143 -8 -240 -57 -385 -39 -117
-113 -295 -122 -295 -5 0 -8 16 -8 35 0 52 -37 152 -79 216 l-37 56 4 140 c5
163 -8 256 -47 340 -25 53 -81 115 -126 140 -20 11 -18 14 138 297 l61 109 33
-39 c19 -21 56 -72 83 -113z m9663 32 c159 -292 152 -275 132 -286 -40 -22
-98 -84 -121 -129 -44 -86 -56 -167 -53 -338 l4 -155 -37 -56 c-42 -65 -78
-162 -78 -214 0 -19 -3 -35 -7 -35 -23 0 -154 368 -173 481 -33 208 11 459
114 643 31 56 141 206 151 206 2 0 32 -53 68 -117z m-5522 -193 c150 -171 334
-324 473 -395 59 -30 90 -39 140 -42 59 -3 69 0 162 46 161 81 392 282 537
468 23 29 42 51 43 50 1 -1 -2 -42 -8 -92 -13 -119 -3 -459 16 -555 47 -226
99 -298 248 -345 165 -52 432 -73 682 -52 l98 8 -88 -74 c-188 -157 -358 -356
-436 -512 -35 -69 -41 -89 -41 -145 0 -56 6 -76 41 -145 78 -156 248 -355 436
-512 l89 -75 -94 9 c-143 12 -401 7 -511 -11 -245 -40 -336 -96 -383 -236 -14
-41 -32 -109 -41 -150 -19 -96 -29 -436 -16 -555 6 -49 10 -91 9 -92 -1 -1
-34 37 -72 84 -143 175 -361 361 -512 438 -69 35 -86 40 -149 40 -63 0 -80 -4
-148 -39 -43 -22 -115 -67 -160 -100 -90 -66 -333 -305 -386 -378 -18 -27 -35
-46 -37 -45 -2 2 1 46 7 98 21 199 9 440 -31 608 -41 178 -93 242 -230 286
-164 51 -397 72 -623 55 -81 -6 -150 -10 -151 -8 -2 2 35 35 82 73 175 143
351 350 434 510 34 67 39 84 39 145 0 61 -5 78 -39 145 -83 160 -259 367 -434
510 -47 38 -84 71 -82 73 1 2 70 -2 151 -8 317 -24 649 28 746 118 51 48 75
95 103 206 34 136 49 305 42 491 -4 88 -9 178 -12 200 l-6 40 23 -30 c13 -16
53 -64 89 -105z m-4757 -215 c-35 -96 -64 -228 -64 -297 0 -31 -3 -59 -8 -62
-4 -2 -24 -7 -44 -11 l-37 -7 5 38 c15 114 54 220 122 336 25 43 47 76 48 75
2 -2 -8 -34 -22 -72z m10773 -68 c49 -100 70 -163 81 -245 l9 -64 -36 7 c-51
10 -51 10 -51 73 0 68 -29 201 -64 297 -25 69 -25 70 -2 42 12 -15 41 -65 63
-110z m-10443 76 c14 -21 32 -58 41 -83 20 -56 30 -194 21 -282 l-7 -66 -60
31 c-44 23 -58 35 -53 46 3 9 8 100 11 204 3 103 10 187 14 187 5 0 20 -17 33
-37z m10097 -95 c0 -73 3 -165 7 -205 l8 -72 -58 -29 -57 -30 -7 56 c-11 90 1
240 25 304 22 58 55 108 72 108 5 0 9 -58 10 -132z m-10235 -80 c-12 -165 -15
-178 -42 -178 -18 0 -24 5 -24 23 0 18 28 129 57 230 12 39 15 11 9 -75z
m10363 -22 c38 -136 39 -156 7 -156 -19 0 -25 6 -29 33 -9 51 -20 243 -14 237
3 -3 20 -55 36 -114z m-10389 -245 c0 -11 -4 -23 -10 -26 -6 -4 -10 5 -10 19
0 14 5 26 10 26 6 0 10 -9 10 -19z m10400 -6 c0 -14 -4 -25 -10 -25 -5 0 -10
11 -10 25 0 14 5 25 10 25 6 0 10 -11 10 -25z m264 10 c28 -6 28 -6 22 -63
-12 -101 -16 -102 -47 -17 -33 89 -34 96 -16 91 6 -3 25 -7 41 -11z m-10894 2
c0 -16 -58 -158 -62 -151 -3 5 -9 38 -13 73 -8 70 -2 81 48 81 15 0 27 -1 27
-3z m398 -64 c17 -13 32 -33 32 -44 0 -32 -71 -318 -80 -324 -4 -3 -21 31 -37
75 l-29 80 20 129 c22 145 18 141 94 84z m-538 -172 l21 -125 -22 -105 c-12
-58 -25 -110 -29 -114 -4 -5 -11 13 -15 40 -10 69 -70 271 -104 356 -17 40
-31 78 -33 86 -2 9 23 23 72 41 l75 28 7 -41 c4 -23 16 -98 28 -166z m10673
96 c9 -62 17 -121 17 -132 0 -26 -50 -165 -60 -165 -7 0 -65 225 -76 297 -5
30 -2 48 7 60 17 19 70 53 85 53 6 0 18 -50 27 -113z m630 47 c-1 -5 -20 -58
-43 -117 -22 -59 -56 -166 -74 -238 -33 -130 -46 -163 -46 -119 0 12 -9 63
-21 111 l-21 89 20 123 c11 67 23 143 27 169 l6 47 77 -28 c42 -16 76 -32 75
-37z m-10606 -289 c6 -108 -8 -204 -33 -242 l-15 -24 -21 26 c-17 22 -27 26
-49 21 -16 -3 -29 -2 -29 2 0 4 12 48 25 97 14 50 35 131 46 180 31 140 29
137 52 85 13 -31 21 -76 24 -145z m9799 67 c14 -61 36 -148 49 -193 l24 -83
-25 -25 -24 -24 -48 49 -47 49 0 125 c0 98 4 135 19 173 10 27 20 46 23 44 2
-3 15 -54 29 -115z m-10286 -32 c0 -14 7 -88 16 -165 14 -116 15 -150 5 -198
-7 -32 -15 -57 -17 -54 -2 2 -25 90 -49 196 l-46 193 22 76 c12 43 24 81 27
87 7 12 42 -100 42 -135z m10768 47 l21 -77 -45 -192 c-24 -105 -46 -193 -48
-195 -5 -5 -35 120 -31 127 2 4 13 85 24 181 20 173 38 257 51 242 4 -5 17
-43 28 -86z m-7925 -12 c263 -39 553 -182 943 -462 161 -115 294 -207 317
-217 9 -5 9 -7 0 -12 -23 -10 -156 -102 -317 -217 -395 -284 -681 -423 -954
-464 -188 -28 -339 0 -542 102 -245 123 -447 293 -636 537 l-37 48 41 52 c188
242 392 413 637 535 210 105 344 129 548 98z m5407 -15 c101 -27 313 -135 429
-218 120 -85 260 -218 368 -349 l85 -103 -85 -102 c-194 -235 -393 -392 -640
-508 -138 -65 -223 -84 -367 -83 -197 1 -329 37 -575 158 -177 87 -300 163
-529 328 -218 157 -278 197 -293 197 -7 0 -13 5 -13 10 0 6 6 10 13 10 14 0
101 58 315 213 394 283 697 429 965 467 89 13 240 3 327 -20z m-8340 -482 l43
-188 -44 -190 c-32 -140 -46 -185 -51 -168 -4 13 -14 98 -21 191 -11 138 -11
194 -1 325 13 152 22 228 28 221 2 -2 22 -88 46 -191z m10950 -30 c11 -155 1
-418 -18 -508 -7 -32 -10 -24 -36 85 -15 66 -36 153 -46 193 -17 69 -17 75 0
145 10 39 31 126 46 192 26 109 29 117 36 85 4 -19 12 -106 18 -192z m-10684
55 c-9 -21 -12 -15 -20 32 l-6 40 16 -28 c8 -16 13 -36 10 -44z m10367 30 c-3
-18 -9 -33 -14 -33 -12 0 -11 14 3 45 14 32 17 29 11 -12z m-9650 -17 c38 -16
110 -91 162 -169 l38 -57 -38 -57 c-52 -78 -124 -153 -162 -169 -96 -41 -188
15 -279 169 l-33 57 33 58 c91 153 183 209 279 168z m9080 0 c45 -19 102 -80
149 -158 l40 -68 -40 -67 c-91 -153 -183 -203 -281 -154 -43 22 -77 58 -145
155 l-48 66 23 32 c60 87 133 170 167 188 44 23 91 25 135 6z m-9876 -278
l-14 -53 -11 40 c-7 22 -12 51 -12 65 0 14 5 43 12 65 l11 40 14 -52 c11 -45
11 -61 0 -105z m10530 0 l-14 -53 -12 53 c-11 42 -11 62 0 105 l12 52 14 -52
c11 -44 11 -62 0 -105z m-10360 5 l-24 -46 -11 33 c-7 18 -12 45 -12 60 0 15
5 42 12 60 l11 33 24 -46 23 -47 -23 -47z m10202 3 c-15 -65 -29 -42 -29 50 0
85 10 101 28 42 10 -33 10 -54 1 -92z m-10304 -213 c-16 -27 -16 -27 -11 -3 3
14 6 34 6 45 1 18 1 18 11 3 7 -13 5 -25 -6 -45z m10375 28 c0 -11 3 -28 6
-38 3 -10 -2 -7 -10 7 -18 29 -20 50 -6 50 6 0 10 -9 10 -19z m-10516 -116 c2
-144 -44 -460 -65 -438 -4 4 -17 42 -28 85 -24 85 -26 66 36 323 30 127 37
146 46 125 5 -14 10 -56 11 -95z m10758 -265 c2 -47 -41 -189 -52 -169 -24 45
-71 414 -59 464 23 95 20 99 66 -85 24 -96 44 -191 45 -210z m-10317 214 c11
-24 19 -73 22 -148 5 -98 3 -123 -16 -185 -20 -66 -41 -87 -41 -41 0 11 -18
90 -41 177 -59 226 -56 204 -21 197 24 -5 33 -1 48 19 23 30 26 28 49 -19z
m885 27 c0 -18 246 -264 325 -326 230 -179 484 -306 715 -356 80 -18 138 -23
245 -23 l140 -1 -86 -85 c-184 -183 -302 -406 -379 -720 -48 -199 -64 -391
-50 -635 l5 -90 -90 -6 c-144 -11 -266 -59 -352 -141 l-31 -30 -37 41 c-21 23
-40 40 -42 37 -2 -2 8 -28 22 -56 26 -52 26 -53 8 -72 -19 -18 -20 -17 -42 39
-42 104 -151 306 -209 387 -92 127 -248 258 -398 334 -125 64 -295 97 -448 89
l-110 -6 30 19 c99 65 228 232 284 367 62 149 73 210 74 408 1 159 -2 191 -23
270 -18 72 -73 235 -116 348 -6 13 -2 17 14 17 16 0 27 -13 45 -52 l24 -53 1
46 1 46 82 12 c44 7 103 21 131 32 63 25 173 97 211 138 29 30 56 41 56 22z
m8091 -17 c38 -41 162 -120 224 -143 32 -12 80 -25 108 -29 l52 -7 0 -42 c1
-58 10 -62 27 -11 12 35 20 44 41 46 l26 3 -29 -72 c-158 -381 -165 -705 -24
-999 67 -140 147 -239 276 -340 4 -3 -59 -5 -140 -5 -172 0 -249 -18 -398 -90
-259 -125 -435 -327 -588 -674 -25 -57 -30 -62 -43 -48 -14 14 -14 20 1 57 16
40 16 41 -3 30 -11 -6 -24 -18 -29 -27 -8 -14 -17 -11 -71 25 -98 66 -203 99
-321 103 l-65 2 0 246 c0 262 -7 323 -60 521 -79 292 -180 482 -356 665 l-97
100 142 1 c94 0 169 6 224 18 343 72 732 310 985 602 45 52 84 94 87 94 4 0
17 -12 31 -26z m894 2 l23 -25 -24 -81 c-13 -45 -34 -131 -48 -192 -14 -61
-27 -112 -29 -115 -3 -2 -13 17 -23 44 -15 38 -19 75 -19 175 l0 127 45 46
c24 25 46 45 48 45 3 0 15 -11 27 -24z m-10565 -59 c0 -12 9 -60 20 -105 20
-83 20 -84 1 -195 -11 -62 -22 -138 -26 -169 l-7 -57 -72 26 c-39 14 -75 29
-79 33 -5 4 0 25 11 46 29 56 86 233 113 351 22 93 39 124 39 70z m11205 -103
c36 -141 65 -230 101 -312 l23 -53 -22 -8 c-12 -4 -48 -18 -79 -29 l-57 -21
-5 32 c-3 18 -15 92 -26 166 l-21 134 22 113 c13 62 25 111 27 110 2 -2 18
-62 37 -132z m-10656 -152 c16 -66 33 -141 36 -165 7 -42 5 -46 -27 -70 -77
-58 -73 -62 -95 83 l-21 129 32 85 c19 53 34 80 38 71 4 -7 21 -67 37 -133z
m10135 61 l29 -78 -18 -125 c-9 -69 -19 -127 -20 -128 -7 -8 -47 11 -75 35
-19 15 -30 34 -30 50 0 34 70 323 79 323 3 0 19 -35 35 -77z m-9795 -144 c87
-219 105 -300 105 -469 1 -207 -38 -359 -133 -515 -57 -93 -132 -188 -142
-178 -11 11 -209 376 -209 385 0 4 12 14 28 22 115 60 169 220 159 469 l-5
139 39 61 c41 64 79 168 79 221 1 28 2 29 14 13 8 -10 37 -77 65 -148z m9461
110 c0 -42 38 -140 77 -198 l36 -55 1 -190 c2 -208 12 -255 71 -344 20 -31 79
-82 112 -97 4 -2 -125 -243 -174 -328 l-40 -68 -40 48 c-96 116 -169 255 -204
390 -30 113 -37 322 -15 433 21 102 60 222 117 358 42 99 58 113 59 51z
m-10240 -182 c0 -7 11 -42 25 -77 14 -35 22 -67 18 -71 -5 -3 -23 -2 -42 3
l-34 9 7 52 c3 29 6 62 6 75 0 12 5 22 10 22 6 0 10 -6 10 -13z m10964 -79 c7
-57 7 -57 -21 -63 -15 -4 -34 -8 -40 -11 -18 -5 -17 0 14 89 30 86 35 84 47
-15z m-6368 20 c-12 -41 -34 -161 -51 -273 -95 -630 -235 -991 -469 -1212 -97
-92 -187 -143 -347 -196 -201 -68 -304 -82 -564 -81 -126 1 -252 6 -280 10
l-50 9 -7 50 c-4 28 -10 127 -13 220 -8 192 6 337 50 508 87 342 229 525 521
674 217 111 446 176 878 248 153 25 288 50 300 55 33 14 39 12 32 -12z m1884
-1 c41 -9 149 -28 240 -42 621 -98 960 -234 1182 -473 214 -233 315 -706 252
-1183 l-6 -48 -77 -8 c-42 -4 -170 -8 -286 -7 -240 1 -328 15 -542 86 -152 50
-255 110 -347 201 -218 216 -347 545 -441 1119 -20 123 -44 258 -54 301 -12
51 -14 76 -7 74 6 -3 45 -12 86 -20z m-6201 -84 c1 -7 -5 -13 -12 -13 -10 0
-12 10 -9 32 4 28 6 30 13 13 4 -11 8 -26 8 -32z m10401 12 c0 -14 -4 -25 -10
-25 -5 0 -10 11 -10 25 0 14 5 25 10 25 6 0 10 -11 10 -25z m-10174 -215 c-3
-52 -12 -117 -20 -143 -15 -51 -60 -127 -75 -127 -4 0 -11 80 -15 178 -3 97
-9 189 -12 203 -5 24 -1 29 53 57 l58 29 8 -51 c5 -28 6 -94 3 -146z m10043
82 c-4 -31 -8 -123 -8 -204 -1 -82 -5 -148 -9 -148 -26 0 -74 91 -91 168 -12
57 -15 220 -5 270 l6 30 57 -30 57 -29 -7 -57z m-10541 62 c30 -6 31 -8 37
-73 8 -78 48 -254 70 -307 25 -61 9 -50 -34 23 -54 92 -90 181 -107 271 -20
104 -22 97 34 86z m10962 -30 c0 -20 -7 -64 -16 -98 -16 -66 -101 -246 -134
-286 l-21 -25 16 39 c30 77 67 229 73 309 7 75 9 82 32 88 46 13 50 10 50 -27z
m-10676 -46 c3 -29 8 -91 11 -138 l5 -85 -31 90 c-17 50 -33 111 -36 138 -6
45 -5 47 19 47 23 0 26 -5 32 -52z m10401 5 c-4 -27 -20 -86 -36 -133 l-29
-85 6 104 c7 146 11 161 41 161 24 0 25 -2 18 -47z m-5029 -388 c195 -274 284
-415 364 -580 120 -246 169 -440 157 -624 -9 -134 -28 -196 -107 -356 -80
-161 -171 -292 -285 -413 -83 -88 -282 -262 -300 -262 -18 0 -176 131 -265
220 -143 143 -250 295 -342 486 -67 141 -89 232 -89 374 1 313 137 622 494
1116 72 101 147 209 166 240 l34 56 15 -29 c8 -15 79 -118 158 -228z m-4837
-561 c146 -26 279 -86 409 -184 169 -127 264 -264 383 -550 26 -63 46 -116 44
-119 -2 -2 -18 9 -36 23 -50 42 -125 76 -203 92 -67 14 -74 18 -115 67 -110
129 -226 222 -317 256 -58 22 -146 27 -187 12 -24 -9 -25 -8 -70 142 -57 192
-77 262 -77 276 0 12 27 10 169 -15z m9451 19 c0 -11 -97 -343 -113 -388 -10
-25 -20 -38 -28 -36 -40 14 -133 11 -178 -4 -98 -32 -247 -152 -347 -277 -25
-32 -38 -39 -100 -52 -75 -15 -145 -46 -203 -90 -19 -14 -36 -24 -38 -23 -3 4
57 152 100 247 157 348 454 574 812 619 97 12 95 12 95 4z m-9289 -515 c46
-22 91 -58 157 -125 50 -51 92 -97 92 -101 0 -5 -27 -18 -59 -29 l-59 -21 -54
66 c-29 36 -92 105 -139 154 l-87 88 43 0 c27 0 64 -11 106 -32z m9018 -55
c-68 -71 -141 -155 -189 -215 -3 -4 -34 3 -70 16 l-64 23 100 101 c109 110
194 162 268 162 l39 0 -84 -87z m-5593 -106 c2 -304 118 -612 347 -920 68 -92
240 -273 322 -338 l53 -43 -46 -52 c-91 -102 -149 -225 -159 -336 l-6 -57 -61
-3 -61 -3 60 -21 c51 -18 60 -24 63 -47 4 -31 1 -32 -37 -13 -45 24 -260 96
-346 116 -256 61 -499 37 -721 -70 -120 -58 -232 -144 -299 -229 -26 -34 -49
-61 -50 -61 -1 0 2 24 8 53 23 123 -11 331 -78 483 -41 92 -133 223 -220 310
-97 99 -210 174 -396 263 -133 64 -139 68 -116 80 20 11 29 10 55 -3 45 -23
49 -20 18 13 l-28 29 37 48 c78 101 119 215 132 358 6 76 6 76 32 69 14 -4
116 -7 226 -7 215 0 314 11 500 60 292 75 494 184 675 361 52 51 95 93 95 93
0 0 0 -60 1 -133z m2432 -111 c182 -121 415 -206 687 -252 98 -16 355 -24 495
-15 l65 5 7 -85 c9 -129 64 -273 130 -345 19 -21 19 -22 -24 -57 -23 -20 -40
-38 -37 -41 2 -3 29 6 59 20 48 22 55 23 69 10 8 -9 13 -17 10 -19 -2 -2 -75
-38 -162 -80 -87 -42 -191 -98 -230 -124 -207 -138 -370 -360 -439 -598 -19
-68 -23 -103 -23 -231 0 -146 -1 -151 -17 -126 -29 44 -131 143 -193 187 -187
133 -448 199 -690 174 -100 -10 -278 -56 -412 -107 l-83 -31 0 23 c0 17 10 27
38 39 l37 15 -35 1 -35 1 -17 87 c-21 110 -72 212 -146 294 l-56 62 35 30
c261 227 410 414 540 682 105 217 139 348 146 570 l6 151 86 -86 c48 -48 131
-116 189 -154z m-5861 11 c53 -65 55 -68 37 -82 -17 -13 -21 -12 -45 15 -14
17 -47 72 -73 122 l-47 93 36 -40 c20 -22 61 -71 92 -108z m9030 25 c-65 -114
-80 -130 -102 -112 -8 7 -15 16 -15 20 0 12 162 201 167 196 3 -3 -20 -50 -50
-104z m-9264 -117 c11 -16 44 -60 73 -96 l52 -66 -21 -33 -21 -33 -34 39 c-47
55 -108 183 -137 289 -14 49 -25 94 -25 100 1 5 21 -30 46 -80 25 -49 55 -103
67 -120z m9522 107 c-28 -104 -79 -215 -130 -285 -38 -51 -47 -52 -70 -6 -15
28 -15 30 24 71 49 55 124 170 163 254 17 36 32 63 34 61 2 -2 -7 -44 -21 -95z
m-8907 -164 c80 -125 126 -208 114 -208 -5 0 -43 16 -84 35 -59 27 -81 43
-103 77 -15 24 -48 69 -73 101 -53 70 -46 83 49 86 36 1 39 -2 97 -91z m8383
75 c5 -5 -24 -54 -64 -110 -73 -103 -79 -108 -195 -159 l-53 -24 12 22 c22 41
121 203 152 247 l30 44 55 -6 c30 -3 59 -10 63 -14z m-8224 -39 c86 -50 223
-213 223 -265 0 -26 -4 -29 -30 -29 -17 0 -40 -6 -51 -12 -17 -11 -23 -10 -30
2 -5 8 -48 80 -95 160 -48 80 -93 152 -100 161 -8 8 -14 18 -14 22 0 9 47 -10
97 -39z m7967 19 c-47 -71 -134 -213 -159 -260 -27 -50 -30 -53 -68 -53 -32 0
-38 3 -33 16 3 9 6 40 6 69 0 52 1 55 68 124 48 49 88 79 133 101 35 16 66 30
68 30 2 0 -5 -12 -15 -27z m-8378 -70 c-8 -9 -46 18 -40 28 4 6 13 4 25 -7 11
-9 17 -19 15 -21z m8747 30 c4 -3 -1 -12 -11 -19 -25 -20 -34 -17 -20 6 13 21
21 24 31 13z m-7470 -44 c81 -13 80 -12 98 -157 15 -116 5 -167 -40 -213 -43
-43 -100 -54 -200 -40 -118 17 -144 30 -159 77 -46 156 -30 272 43 320 53 34
102 37 258 13z m6456 -12 c70 -42 87 -136 50 -281 l-21 -84 -61 -18 c-89 -25
-202 -25 -247 2 -60 35 -80 76 -80 163 1 68 20 205 31 216 3 2 47 11 99 19
111 17 182 12 229 -17z m-7885 -173 c20 -43 35 -79 33 -81 -4 -3 -42 25 -116
83 -3 3 38 74 44 74 1 0 19 -34 39 -76z m9076 36 l21 -29 -58 -46 c-32 -25
-61 -45 -65 -45 -3 0 10 34 30 75 20 41 39 75 43 75 4 0 17 -13 29 -30z
m-8879 -121 c29 -16 77 -52 108 -79 31 -26 87 -71 125 -99 71 -53 75 -57 116
-126 l25 -40 -25 15 c-14 9 -93 58 -177 110 l-151 94 -41 73 c-55 98 -56 97
20 52z m8641 -41 c-27 -49 -54 -83 -84 -104 -53 -39 -308 -196 -308 -190 0 3
14 27 31 55 20 32 59 71 108 108 42 31 100 77 130 102 52 44 137 99 154 100 5
1 -9 -32 -31 -71z m-8817 -60 c49 -35 100 -74 113 -88 21 -21 132 -187 132
-197 0 -1 -31 17 -68 42 -86 55 -258 145 -337 176 -33 13 -61 24 -63 25 -2 1
13 37 32 79 l36 78 32 -26 c18 -15 73 -55 123 -89z m9159 34 l37 -73 -43 -17
c-78 -30 -235 -110 -328 -166 -50 -31 -93 -56 -95 -56 -2 0 24 43 57 95 55 86
71 103 157 164 53 38 114 83 135 100 22 17 40 30 41 29 2 -2 19 -36 39 -76z
m-8486 -161 c5 -15 -18 -5 -53 24 -19 14 -18 15 14 2 19 -7 37 -19 39 -26z
m7652 9 c-14 -10 -27 -16 -30 -13 -6 6 30 33 44 33 6 0 0 -9 -14 -20z m-7441
-74 c22 -10 58 -82 47 -94 -17 -16 -116 79 -116 111 0 9 31 2 69 -17z m7252
-15 c-11 -21 -36 -48 -56 -60 -43 -25 -45 -25 -45 -7 0 20 84 106 103 106 16
0 16 -3 -2 -39z m-7597 -146 l129 -80 81 -130 c149 -238 145 -226 56 -156
-175 139 -403 374 -465 480 -9 16 -8 15 199 -114z m8045 58 c-73 -94 -166
-200 -213 -242 -111 -102 -157 -141 -215 -185 -35 -27 -62 -45 -60 -40 2 6 48
82 103 170 l98 159 162 102 c88 55 165 101 169 102 5 1 -15 -29 -44 -66z
m-7824 -18 c17 -12 41 -41 53 -64 l24 -42 -49 30 c-26 16 -54 40 -62 53 -8 13
-21 34 -30 47 -15 24 -15 24 9 11 14 -7 39 -23 55 -35z m7490 -8 c-22 -35 -87
-87 -109 -87 -3 0 6 19 19 41 20 36 103 103 114 93 2 -2 -9 -23 -24 -47z
m-6900 -57 c80 -39 224 -209 225 -267 0 -7 -34 10 -75 38 -42 27 -122 75 -177
107 -71 40 -96 58 -83 61 27 5 36 21 29 54 -5 23 -2 27 17 27 12 0 41 -9 64
-20z m6389 4 c3 -9 6 -28 6 -42 0 -24 -11 -33 -82 -72 -44 -25 -124 -73 -177
-107 -53 -34 -97 -60 -99 -58 -2 2 5 23 16 47 47 106 183 234 256 241 23 2 48
4 57 5 9 1 20 -5 23 -14z m-5988 -125 c329 -144 533 -352 625 -639 31 -96 62
-282 48 -288 -8 -3 -419 115 -426 122 -2 2 1 15 7 30 47 125 -49 306 -257 486
-58 50 -73 69 -73 90 0 51 -39 156 -80 214 -22 31 -40 59 -40 61 0 6 78 -25
196 -76z m5624 22 c-43 -63 -73 -138 -84 -211 -6 -40 -13 -51 -63 -90 -87 -70
-188 -186 -230 -264 -36 -68 -38 -75 -38 -168 l0 -96 -130 -41 c-169 -53 -285
-84 -291 -78 -8 8 15 160 36 240 40 151 121 294 235 416 90 95 161 147 294
215 85 44 292 135 309 136 1 0 -16 -27 -38 -59z m-6379 23 c14 -37 6 -39 -15
-4 -10 17 -13 30 -6 30 6 0 15 -12 21 -26z m6989 -4 c-12 -16 -23 -30 -26 -30
-2 0 2 14 11 30 9 17 20 30 26 30 6 0 1 -13 -11 -30z m-7025 -158 c6 -4 41
-46 78 -95 38 -48 86 -108 108 -133 45 -52 98 -150 77 -142 -7 3 -44 23 -81
45 -66 39 -70 43 -163 193 -130 209 -125 198 -72 166 23 -15 48 -30 53 -34z
m7078 -49 c-148 -241 -145 -238 -225 -282 -40 -22 -74 -38 -76 -36 -9 8 52 98
133 200 46 57 92 116 101 130 15 24 108 92 126 94 4 1 -22 -47 -59 -106z
m-6535 -56 c78 -50 92 -63 92 -86 0 -27 -18 -101 -25 -101 -2 0 -51 34 -108
75 -108 78 -120 94 -174 233 -6 14 77 -32 215 -121z m6172 118 c0 -3 -16 -40
-36 -83 -38 -82 -24 -69 -224 -211 -18 -12 -21 -11 -28 10 -5 13 -12 41 -15
61 -7 45 -2 50 173 157 110 68 130 78 130 66z m-5916 -308 c111 -99 186 -220
186 -303 l0 -34 -73 72 c-40 41 -106 102 -147 137 -41 35 -78 67 -82 70 -5 4
-2 25 6 46 8 22 17 48 20 58 8 25 14 22 90 -46z m5550 6 l18 -58 -63 -55 c-35
-30 -103 -93 -151 -139 -49 -47 -91 -82 -94 -79 -14 15 20 122 57 176 37 56
190 212 207 212 5 0 16 -26 26 -57z m-6403 -7 c101 -64 106 -69 218 -222 l89
-122 -75 -36 c-41 -21 -76 -36 -77 -34 -1 2 -17 39 -35 83 -39 93 -95 198
-162 308 -27 42 -47 77 -45 77 1 0 40 -24 87 -54z m7221 17 c-45 -64 -138
-235 -178 -328 -26 -60 -49 -99 -56 -97 -32 8 -138 62 -138 70 0 5 7 16 17 23
9 8 52 65 96 127 75 106 87 118 176 176 53 35 98 62 100 60 2 -2 -6 -15 -17
-31z m-3556 -44 c74 -53 141 -116 160 -151 18 -35 18 -101 -1 -137 -20 -39
-112 -121 -174 -154 l-52 -29 -57 34 c-31 18 -79 56 -108 83 -121 116 -91 219
102 353 32 23 62 41 65 41 3 1 32 -18 65 -40z m-3051 -58 c14 -23 -15 -18 -30
5 -16 25 -16 25 4 15 11 -6 22 -15 26 -20z m5965 22 c-1 -15 -30 -46 -37 -40
-3 4 2 16 12 27 19 21 25 24 25 13z m-5796 -158 c52 -44 93 -81 91 -83 -10
-10 -225 117 -225 133 0 14 22 36 32 33 5 -2 51 -39 102 -83z m5713 65 c11
-17 8 -22 -30 -48 -69 -48 -203 -118 -188 -98 20 24 190 166 199 166 4 0 13
-9 19 -20z m-6114 -55 c37 -16 67 -33 67 -37 0 -3 -14 -17 -31 -29 l-31 -22
-27 33 c-39 49 -66 94 -55 89 6 -2 40 -17 77 -34z m6432 -25 c-49 -63 -50 -64
-100 -26 -19 14 -16 16 55 50 41 19 79 35 83 36 5 0 -13 -27 -38 -60z m-4318
-65 c44 -8 113 -26 154 -40 112 -38 309 -119 309 -127 0 -5 -15 -8 -34 -8 -54
0 -156 -36 -216 -76 l-54 -37 -191 -2 c-168 -1 -197 -3 -247 -22 -77 -29 -141
-75 -169 -120 -12 -21 -24 -40 -25 -42 -3 -4 -149 73 -297 156 l-98 56 22 23
c32 34 154 116 225 152 179 90 424 124 621 87z m2584 -13 c145 -39 298 -119
417 -220 l33 -28 -83 -46 c-46 -26 -135 -74 -198 -108 -103 -55 -116 -59 -125
-44 -27 47 -86 100 -138 125 -84 39 -177 52 -341 47 -140 -5 -141 -5 -181 22
-82 55 -171 90 -232 90 -18 0 -33 4 -33 8 0 23 381 158 495 176 73 11 311 -3
386 -22z m-4440 -100 c25 -17 86 -51 135 -77 98 -50 82 -52 -61 -8 -96 30
-200 83 -252 128 l-38 32 34 21 34 21 51 -43 c28 -24 72 -57 97 -74z m6053 97
c20 -12 36 -23 36 -24 0 -12 -139 -100 -197 -124 -76 -33 -222 -76 -229 -68
-3 3 25 19 63 36 82 39 217 128 257 170 17 17 31 31 32 31 2 0 19 -9 38 -21z
m-3524 -267 c14 -6 36 -20 48 -32 l24 -20 -25 -30 c-14 -16 -27 -34 -29 -41
-3 -8 -38 -2 -113 19 -61 16 -135 35 -165 42 -127 28 -136 31 -115 43 53 29
103 37 225 33 69 -2 136 -8 150 -14z m1170 -9 c42 -19 43 -21 20 -26 -36 -8
-311 -76 -337 -83 -17 -5 -23 -2 -23 9 0 9 -10 23 -22 31 l-22 16 33 34 c42
43 50 45 191 42 90 -3 125 -8 160 -23z m-1775 -85 c3 -3 -6 -31 -21 -62 -20
-44 -30 -56 -43 -51 -9 4 -103 9 -209 12 -190 6 -192 6 -175 26 26 28 90 59
153 74 53 12 283 13 295 1z m2365 -13 c47 -16 120 -62 120 -75 0 -4 -84 -10
-187 -13 -104 -3 -196 -8 -205 -12 -13 -5 -23 6 -47 54 l-31 60 28 5 c59 10
277 -2 322 -19z m-2067 -41 c86 -21 157 -41 157 -44 0 -4 -36 -21 -81 -37
l-80 -29 -127 20 c-70 10 -129 21 -131 22 -2 2 11 26 30 54 21 31 41 50 54 50
11 0 91 -16 178 -36z m1657 -6 c16 -22 30 -46 30 -52 0 -7 -49 -20 -125 -32
l-124 -20 -87 31 c-48 17 -83 34 -78 37 5 3 65 20 134 36 220 54 211 54 250 0z
m-887 -55 l32 -16 -30 -13 c-38 -17 -58 -17 -107 -2 l-40 12 34 17 c42 23 71
23 111 2z m-1170 -90 c28 -4 37 -10 37 -25 0 -10 -7 -21 -15 -24 -17 -7 -155
25 -220 51 -39 15 -38 15 60 10 55 -4 117 -9 138 -12z m2447 8 c-22 -13 -201
-61 -227 -61 -18 0 -23 6 -23 24 0 22 5 25 53 30 28 3 66 8 82 9 64 8 130 6
115 -2z m-1540 -11 c0 -5 -9 -10 -19 -10 -11 0 -28 -3 -38 -6 -10 -3 -7 2 7
10 29 18 50 20 50 6z m470 -6 l25 -15 -25 5 c-14 3 -31 6 -37 6 -7 0 -13 5
-13 10 0 14 21 12 50 -6z m-1225 -14 c4 -6 -5 -10 -19 -10 -14 0 -26 5 -26 10
0 6 9 10 19 10 11 0 23 -4 26 -10z m1970 0 c4 -6 -5 -10 -19 -10 -14 0 -26 5
-26 10 0 6 9 10 19 10 11 0 23 -4 26 -10z m-940 -54 l40 -12 -52 -13 c-43 -11
-63 -11 -105 0 l-53 13 40 12 c22 7 51 12 65 12 14 0 43 -5 65 -12z m-300 -87
c17 -2 -42 -18 -221 -59 -95 -22 -178 -38 -185 -36 -8 3 -48 15 -89 27 l-75
22 45 13 c25 8 124 23 220 35 96 11 176 22 178 23 2 2 29 -2 60 -10 31 -7 62
-14 67 -15z m728 6 c65 -8 132 -15 150 -15 18 0 59 -9 92 -19 l60 -18 -75 -23
c-41 -13 -88 -24 -105 -24 -36 1 -388 84 -381 91 8 9 111 31 126 27 8 -2 68
-10 133 -19z m-1903 -27 c83 -30 218 -58 282 -58 l57 0 10 -37 c15 -53 15 -52
-26 -47 -115 15 -227 56 -345 126 -65 38 -88 59 -50 43 9 -4 42 -16 72 -27z
m2880 12 c-37 -29 -187 -105 -245 -124 -27 -9 -78 -20 -112 -24 -69 -10 -75
-4 -53 52 9 23 15 26 62 26 67 0 214 31 298 63 81 31 80 31 50 7z m-1272 -92
c145 -34 177 -44 155 -50 -31 -8 -295 -30 -358 -30 -73 1 -320 22 -350 30 -27
8 -23 10 50 26 44 10 123 29 175 41 52 13 106 24 120 24 14 1 107 -18 208 -41z
m-1113 -7 c85 -31 84 -35 -17 -47 -62 -7 -60 -8 -72 49 -4 15 -3 27 2 27 4 0
44 -13 87 -29z m1915 12 c0 -10 -3 -28 -6 -41 -6 -22 -9 -23 -73 -16 -36 3
-70 9 -75 12 -8 4 124 60 147 61 4 1 7 -7 7 -16z m-1527 -125 c59 -13 107 -25
107 -28 0 -3 -28 -12 -62 -19 -88 -18 -281 -77 -361 -111 -37 -15 -69 -24 -72
-20 -11 18 -56 143 -52 146 2 2 52 11 113 19 60 9 127 20 149 24 60 13 62 13
178 -11z m1347 -8 c74 -11 136 -23 138 -25 5 -4 -34 -124 -46 -143 -7 -9 -24
-5 -74 18 -76 34 -263 92 -356 110 -67 14 -91 29 -45 31 15 0 60 9 98 19 78
21 95 20 285 -10z"/>
</g>
</svg>
