<?xml version="1.0" standalone="no"?>
<!DOCTYPE svg PUBLIC "-//W3C//DTD SVG 20010904//EN"
 "http://www.w3.org/TR/2001/REC-SVG-20010904/DTD/svg10.dtd">
<svg version="1.0" xmlns="http://www.w3.org/2000/svg"
 width="1280.000000pt" height="1128.000000pt" viewBox="0 0 1280.000000 1128.000000"
 preserveAspectRatio="xMidYMid meet">
<metadata>
Created by potrace 1.15, written by Peter Selinger 2001-2017
</metadata>
<g transform="translate(0.000000,1128.000000) scale(0.100000,-0.100000)"
fill="#edb176" stroke="none">
<path d="M8080 11273 c-108 -16 -213 -65 -276 -129 -57 -56 -109 -164 -124
-257 -27 -155 12 -371 99 -553 27 -57 48 -104 46 -104 -1 0 -34 13 -71 29
-660 280 -1380 262 -2020 -50 -237 -115 -457 -272 -650 -464 -444 -442 -718
-1016 -799 -1675 -28 -229 -19 -589 21 -820 131 -765 581 -1393 1179 -1646
217 -92 390 -127 625 -127 177 0 281 14 434 58 575 166 1036 678 1181 1308 46
202 59 498 29 708 -52 373 -210 700 -450 930 -152 145 -312 236 -509 291 -110
31 -343 36 -466 10 -199 -41 -381 -139 -528 -282 -114 -112 -180 -201 -246
-335 -155 -313 -161 -645 -15 -949 42 -89 178 -286 261 -379 100 -112 66 -37
-84 188 -55 82 -115 182 -133 221 -169 364 -92 785 200 1101 305 329 764 413
1151 211 116 -61 171 -102 276 -207 113 -114 170 -193 242 -336 227 -450 222
-1031 -13 -1508 -85 -171 -170 -289 -314 -432 -224 -222 -442 -343 -739 -407
-148 -32 -417 -32 -567 1 -193 41 -395 131 -565 249 -108 75 -334 304 -417
422 -253 359 -388 783 -405 1270 -31 915 409 1776 1142 2235 255 160 587 276
895 314 108 14 400 14 510 1 690 -84 1307 -482 1753 -1130 425 -619 643 -1482
587 -2322 -64 -956 -441 -1822 -1079 -2481 -146 -150 -237 -226 -411 -342
-611 -406 -1590 -781 -2556 -979 -574 -118 -1088 -174 -1629 -179 -246 -2
-251 -2 -295 22 -126 67 -256 182 -331 293 -264 389 -186 943 165 1170 212
137 492 97 659 -93 89 -100 147 -254 147 -389 0 -189 -101 -370 -248 -442 -39
-19 -63 -23 -142 -23 -83 0 -101 4 -145 27 -63 33 -139 113 -166 175 -11 25
-25 78 -31 117 -14 91 6 177 59 254 138 201 423 111 423 -134 0 -60 -12 -95
-64 -179 l-18 -30 27 30 c97 109 90 294 -15 389 -105 95 -253 86 -357 -23 -63
-66 -87 -134 -87 -256 -1 -118 16 -176 74 -258 133 -186 391 -209 560 -51 108
101 164 241 164 409 0 185 -58 329 -183 455 -105 105 -245 169 -376 170 -38 1
-39 1 -20 16 80 59 125 128 125 190 0 47 -49 97 -109 114 -54 14 -75 7 -68
-23 3 -12 10 -40 16 -61 12 -50 -2 -133 -34 -197 -21 -41 -29 -48 -71 -58
-330 -83 -559 -484 -513 -896 28 -256 136 -469 324 -643 l80 -73 -85 6 c-601
44 -1097 138 -1573 296 -240 80 -414 152 -662 274 -303 149 -509 274 -763 462
-133 98 -152 87 -24 -15 760 -606 1818 -1003 3002 -1126 316 -33 467 -40 885
-40 418 0 568 6 910 40 282 27 699 88 898 130 l71 15 54 -53 c65 -64 151 -191
186 -274 105 -252 112 -584 19 -862 -100 -299 -303 -554 -575 -720 -361 -222
-788 -219 -1061 6 -228 188 -316 495 -226 797 115 385 520 659 857 580 175
-41 302 -160 353 -327 29 -96 23 -233 -15 -332 -123 -323 -507 -469 -714 -273
-141 134 -128 356 29 501 61 57 102 74 239 104 40 9 42 10 13 11 -48 2 -132
-18 -189 -45 -68 -32 -147 -118 -187 -201 -28 -61 -32 -78 -32 -158 0 -79 4
-97 29 -149 127 -259 472 -272 716 -27 123 124 184 271 183 441 -2 300 -233
520 -544 520 -311 0 -634 -231 -770 -551 -56 -131 -72 -210 -72 -359 0 -119 3
-146 27 -225 96 -316 342 -523 683 -574 159 -24 345 -1 518 65 389 146 716
487 854 892 55 160 74 275 73 462 0 307 -71 532 -228 724 -25 32 -45 59 -43
60 2 2 65 18 139 35 762 178 1469 456 1937 761 63 42 83 49 159 60 127 18 401
8 532 -19 415 -87 744 -262 1028 -545 297 -297 497 -682 570 -1096 26 -147 26
-427 0 -565 -78 -417 -303 -736 -641 -908 -95 -48 -231 -92 -336 -107 -103
-15 -292 -8 -394 14 -282 63 -548 235 -726 472 -287 382 -350 848 -163 1205
97 184 273 324 474 375 88 23 254 23 345 0 213 -53 413 -206 530 -404 130
-221 152 -505 53 -703 -71 -142 -214 -248 -366 -271 -285 -45 -572 189 -608
493 -6 48 4 162 22 267 4 18 2 32 -4 32 -5 0 -12 -17 -16 -37 -3 -21 -13 -76
-21 -123 -52 -287 142 -586 437 -677 85 -27 226 -22 317 10 349 123 483 560
296 964 -118 256 -327 439 -592 520 -76 23 -106 27 -223 27 -101 0 -151 -4
-200 -18 -538 -149 -777 -766 -535 -1381 76 -194 183 -356 337 -507 258 -255
578 -391 918 -390 213 0 375 38 560 133 322 165 556 464 661 847 l22 82 18
-51 c38 -108 125 -209 198 -229 84 -23 157 -2 234 69 49 45 70 86 65 123 -3
21 -9 24 -77 30 -95 8 -194 56 -282 137 -117 107 -117 107 -123 321 -6 240
-31 387 -102 604 -190 579 -602 1054 -1139 1312 -240 116 -619 214 -825 214
-33 0 -60 3 -60 6 0 3 41 50 91 104 923 998 1314 2469 1024 3850 -122 579
-348 1084 -682 1522 -94 123 -108 174 -100 378 6 164 29 259 92 387 38 77 57
103 115 155 54 48 70 68 70 89 0 56 -106 99 -245 100 -98 1 -173 -20 -234 -65
-152 -112 -169 -363 -44 -625 l29 -60 -32 27 c-183 155 -241 201 -316 253
l-88 60 -2 67 c-8 271 40 507 144 697 43 78 130 178 212 241 31 24 39 36 39
62 0 40 -22 65 -87 97 -90 44 -247 65 -356 48z"/>
<path d="M9332 9173 c-137 -67 -87 -284 66 -286 92 -1 156 62 156 155 0 110
-120 181 -222 131z"/>
<path d="M9640 8759 c-22 -5 -49 -23 -72 -48 -34 -36 -38 -46 -38 -93 0 -94
61 -158 150 -158 182 0 206 260 28 299 -18 4 -49 4 -68 0z"/>
<path d="M9697 8226 c-51 -19 -67 -34 -89 -84 -25 -56 -17 -111 23 -157 38
-42 79 -59 133 -53 87 10 143 80 133 166 -11 100 -107 162 -200 128z"/>
<path d="M11850 8002 c-205 -69 -402 -226 -537 -428 -124 -185 -216 -367 -418
-824 -64 -146 -163 -359 -220 -475 -238 -485 -455 -715 -707 -752 l-53 -8 80
-6 c304 -25 896 75 1375 232 436 144 710 301 971 559 171 168 291 363 340 550
32 119 32 291 0 410 -68 261 -341 620 -548 722 -81 40 -199 48 -283 20z"/>
<path d="M6275 7769 c-123 -18 -192 -55 -227 -122 -20 -37 -23 -56 -23 -162 1
-112 3 -125 32 -193 41 -92 115 -206 263 -402 189 -252 250 -351 280 -462 12
-46 10 -121 -5 -163 -5 -14 1 -11 19 10 42 49 151 279 201 425 88 260 122 458
104 620 -30 270 -127 403 -326 445 -74 16 -223 18 -318 4z"/>
<path d="M12653 6433 c-28 -5 -72 -49 -79 -80 -10 -39 5 -88 35 -117 97 -93
242 25 171 141 -27 44 -75 65 -127 56z"/>
<path d="M12392 6046 c-56 -31 -78 -111 -46 -166 49 -81 169 -78 209 6 19 40
19 67 0 104 -33 63 -106 88 -163 56z"/>
<path d="M8240 5915 c0 -47 -45 -131 -102 -191 -129 -137 -321 -229 -783 -374
-367 -116 -481 -157 -630 -230 -152 -75 -228 -133 -311 -241 -69 -90 -99 -161
-99 -240 0 -56 6 -76 39 -145 33 -67 59 -98 165 -205 108 -108 138 -132 208
-167 106 -52 173 -66 298 -59 74 3 119 11 171 31 255 94 494 319 690 648 240
404 397 858 381 1102 -3 43 -10 83 -16 89 -8 8 -11 3 -11 -18z"/>
<path d="M11982 5880 c-34 -21 -62 -72 -62 -112 0 -34 35 -85 71 -104 78 -40
179 20 179 107 0 102 -102 161 -188 109z"/>
<path d="M11281 5159 c-195 -38 -402 -147 -906 -476 -408 -266 -588 -363 -783
-419 -81 -23 -107 -26 -195 -22 -78 3 -114 9 -152 26 -47 21 -49 22 -30 3 65
-65 372 -227 595 -314 398 -157 764 -240 1045 -239 497 1 855 176 995 485 53
118 63 187 57 384 -12 375 -93 521 -314 568 -74 16 -242 18 -312 4z"/>
<path d="M2751 4346 c-57 -32 -68 -111 -22 -157 62 -61 170 -17 171 69 0 44
-14 68 -50 87 -35 18 -67 19 -99 1z"/>
<path d="M2509 4041 c-50 -51 -31 -139 35 -161 45 -14 80 -4 111 32 55 66 12
158 -75 158 -33 0 -48 -6 -71 -29z"/>
<path d="M2534 3686 c-102 -45 -74 -186 36 -186 109 0 140 154 38 189 -38 13
-36 13 -74 -3z"/>
<path d="M11448 3654 c-80 -43 -75 -170 8 -209 44 -21 75 -19 115 8 123 82 7
272 -123 201z"/>
<path d="M10630 3562 c-50 -24 -76 -81 -61 -131 39 -132 232 -110 231 26 0 40
-20 74 -59 100 -41 28 -65 29 -111 5z"/>
<path d="M11033 3470 c-40 -24 -53 -48 -53 -97 0 -85 74 -140 154 -113 48 15
76 57 76 112 0 50 -19 82 -60 103 -39 20 -79 19 -117 -5z"/>
<path d="M10518 752 c-65 -39 -73 -131 -17 -183 79 -73 199 -24 199 81 0 91
-105 150 -182 102z"/>
<path d="M5448 572 c-31 -18 -58 -67 -58 -104 0 -37 37 -88 77 -105 71 -29
150 18 160 95 13 96 -96 166 -179 114z"/>
<path d="M4633 485 c-60 -26 -81 -110 -43 -172 21 -36 82 -60 122 -50 100 26
124 157 39 214 -39 26 -72 28 -118 8z"/>
<path d="M10235 416 c-51 -22 -70 -52 -70 -108 0 -44 4 -53 37 -84 28 -25 47
-34 73 -34 99 0 156 95 105 177 -31 51 -93 72 -145 49z"/>
<path d="M5034 391 c-62 -38 -69 -138 -14 -185 40 -33 80 -40 124 -22 82 34
98 132 32 193 -42 39 -93 44 -142 14z"/>
<path d="M9792 220 c-18 -11 -40 -36 -49 -55 -15 -32 -16 -40 -3 -78 45 -129
230 -106 230 29 0 49 -28 90 -76 110 -45 19 -63 18 -102 -6z"/>
</g>
</svg>
