<?xml version="1.0" encoding="UTF-8"?>
<svg xmlns="http://www.w3.org/2000/svg" xmlns:xlink="http://www.w3.org/1999/xlink" width="3007px" height="3007px" viewBox="0 0 3007 3007" version="1.1">
<g id="surface1">
<path style=" stroke:none;fill-rule:nonzero;fill:rgb(92.941176%,69.411765%,46.27451%);fill-opacity:1;" d="M 1422.453125 262.171875 C 1194.8125 279.792969 995.128906 347.917969 811.65625 471.019531 C 740.945312 518.238281 686.441406 563.34375 624.890625 624.890625 C 562.167969 687.617188 517.769531 741.882812 468.667969 815.179688 C 357.082031 982.441406 292.710938 1158.398438 267.339844 1365.367188 C 262.644531 1403.421875 262.171875 1419.164062 262.171875 1503.5 C 262.171875 1604.28125 264.523438 1637.40625 277.441406 1712.109375 C 321.136719 1967 441.183594 2198.398438 624.890625 2382.109375 C 687.617188 2444.832031 741.882812 2489.230469 815.179688 2538.332031 C 965.058594 2638.171875 1127.859375 2702.304688 1304.050781 2730.730469 C 1381.105469 2743.183594 1404.363281 2744.828125 1503.5 2744.828125 C 1602.636719 2744.828125 1625.894531 2743.183594 1702.949219 2730.730469 C 2172.085938 2655.085938 2561.117188 2312.570312 2695.726562 1856.824219 C 2716.636719 1785.875 2729.792969 1721.507812 2739.660156 1641.632812 C 2744.355469 1603.578125 2744.828125 1587.835938 2744.828125 1503.5 C 2744.828125 1402.71875 2742.476562 1369.125 2729.558594 1294.890625 C 2700.191406 1124.804688 2636.761719 964.121094 2542.792969 821.285156 C 2352.273438 532.097656 2050.398438 334.765625 1710.464844 277.207031 C 1641.867188 265.695312 1607.101562 262.878906 1518.769531 262.171875 C 1472.253906 261.703125 1429.03125 261.703125 1422.453125 262.171875 Z M 1609.214844 456.921875 C 1827.925781 479.710938 2031.605469 568.277344 2194.171875 711.109375 C 2389.625 882.835938 2512.253906 1111.648438 2546.554688 1367.714844 C 2574.039062 1574.679688 2537.390625 1788.695312 2442.246094 1976.867188 C 2380.226562 2099.027344 2298.476562 2204.273438 2194.171875 2295.890625 C 1878.199219 2573.335938 1421.277344 2634.179688 1043.992188 2449.296875 C 835.148438 2347.105469 666.707031 2180.308594 562.871094 1973.109375 C 413.699219 1675.933594 414.402344 1327.074219 564.753906 1030.132812 C 626.773438 907.972656 708.523438 802.726562 812.828125 711.109375 C 970.226562 572.972656 1165.449219 485.820312 1376.640625 459.273438 C 1445.472656 450.582031 1539.679688 449.640625 1609.214844 456.921875 Z M 1609.214844 456.921875 "/>
<path style=" stroke:none;fill-rule:nonzero;fill:rgb(92.941176%,69.411765%,46.27451%);fill-opacity:1;" d="M 1342.578125 807.894531 C 1331.300781 813.066406 1324.019531 820.582031 1319.085938 832.09375 C 1316.03125 839.84375 1315.5625 869.210938 1315.5625 1078.292969 L 1315.5625 1315.5625 L 1077.820312 1315.5625 C 851.59375 1315.5625 839.375 1315.796875 830.449219 1320.027344 C 819.171875 1325.195312 811.890625 1332.710938 806.957031 1344.222656 C 803.902344 1351.742188 803.433594 1372.882812 803.433594 1503.5 C 803.433594 1634.117188 803.902344 1655.257812 806.957031 1662.777344 C 811.890625 1674.289062 819.171875 1681.804688 830.449219 1686.972656 C 839.375 1691.203125 851.59375 1691.4375 1077.820312 1691.4375 L 1315.5625 1691.4375 L 1315.5625 1929.179688 C 1315.5625 2155.40625 1315.796875 2167.625 1320.027344 2176.550781 C 1325.195312 2187.828125 1332.710938 2195.109375 1344.222656 2200.042969 C 1351.742188 2203.097656 1372.882812 2203.566406 1503.96875 2203.566406 C 1645.394531 2203.566406 1655.730469 2203.097656 1664.421875 2199.105469 C 1676.167969 2193.933594 1685.800781 2182.894531 1689.089844 2171.148438 C 1690.496094 2165.511719 1691.4375 2081.644531 1691.4375 1926.828125 L 1691.4375 1691.4375 L 1928.707031 1691.4375 C 2137.789062 1691.4375 2167.15625 1690.96875 2174.90625 1687.914062 C 2186.417969 1682.980469 2193.933594 1675.699219 2199.105469 1664.421875 C 2203.097656 1655.496094 2203.566406 1645.863281 2203.566406 1503.5 C 2203.566406 1361.605469 2203.097656 1351.269531 2199.105469 1342.578125 C 2193.933594 1330.832031 2182.894531 1321.199219 2171.148438 1317.910156 C 2165.511719 1316.503906 2081.644531 1315.5625 1927.0625 1315.5625 L 1691.4375 1315.5625 L 1691.4375 1079.9375 C 1691.4375 925.355469 1690.496094 841.488281 1689.089844 835.851562 C 1685.800781 824.105469 1676.167969 813.066406 1664.421875 807.894531 C 1655.730469 803.902344 1645.394531 803.433594 1503.5 803.433594 C 1361.136719 803.433594 1351.503906 803.902344 1342.578125 807.894531 Z M 1342.578125 807.894531 "/>
</g>
</svg>
