<?xml version="1.0" standalone="no"?>
<!DOCTYPE svg PUBLIC "-//W3C//DTD SVG 20010904//EN"
 "http://www.w3.org/TR/2001/REC-SVG-20010904/DTD/svg10.dtd">
<svg version="1.0" xmlns="http://www.w3.org/2000/svg"
 width="1280.000000pt" height="640.000000pt" viewBox="0 0 1280.000000 640.000000"
 preserveAspectRatio="xMidYMid meet">
<metadata>
Created by potrace 1.15, written by Peter Selinger 2001-2017
</metadata>
<g transform="translate(0.000000,640.000000) scale(0.100000,-0.100000)"
fill="#edb176" stroke="none">
<path d="M31 4516 c8 -7 490 -216 679 -294 236 -97 518 -205 740 -282 189 -66
195 -57 -65 -90 -269 -34 -1308 -204 -1370 -223 -5 -2 15 -7 45 -10 30 -4 309
-38 620 -76 311 -39 752 -91 980 -116 228 -25 430 -47 448 -49 l32 -5 0 310
c0 170 3 309 8 309 4 0 104 13 222 30 423 58 862 105 1080 116 128 7 200 23
104 24 -65 0 -641 41 -1124 80 -785 64 -1667 164 -2208 251 -193 31 -198 31
-191 25z"/>
<path d="M12595 4494 c-461 -78 -1362 -182 -2115 -244 -453 -38 -1167 -90
-1234 -90 -96 -1 -24 -17 104 -24 221 -11 681 -61 1114 -121 99 -14 183 -25
188 -25 4 0 8 -139 8 -309 l0 -310 33 5 c17 2 199 22 402 44 375 41 771 88
1348 160 175 22 326 40 335 41 70 4 -968 178 -1391 233 -104 13 -190 26 -192
28 -2 2 53 23 123 47 204 71 556 204 780 297 206 85 663 283 671 290 8 7 -33
2 -174 -22z"/>
<path d="M3090 4066 c-613 -69 -706 -82 -650 -88 102 -11 617 -46 920 -63 151
-8 326 -17 388 -21 l112 -6 0 131 0 131 -27 -1 c-16 -1 -350 -38 -743 -83z"/>
<path d="M8940 4021 l0 -132 113 6 c61 3 236 12 387 21 303 16 818 51 920 62
56 6 -37 19 -640 85 -388 43 -722 81 -742 84 l-38 6 0 -132z"/>
<path d="M2212 3113 l3 -827 115 -23 c620 -125 1550 -242 2600 -327 650 -53
1451 -70 2130 -46 1055 37 2608 207 3410 373 l115 24 3 826 c2 745 1 827 -14
827 -8 0 -149 -22 -312 -50 -477 -79 -894 -134 -1412 -184 -388 -38 -1003 -74
-1869 -108 -570 -22 -576 -22 -1045 -5 -1233 46 -1684 76 -2401 157 -431 49
-565 68 -1026 145 -146 25 -273 45 -283 45 -15 0 -16 -63 -14 -827z"/>
</g>
</svg>
