<?xml version="1.0" standalone="no"?>
<!DOCTYPE svg PUBLIC "-//W3C//DTD SVG 20010904//EN"
 "http://www.w3.org/TR/2001/REC-SVG-20010904/DTD/svg10.dtd">
<svg version="1.0" xmlns="http://www.w3.org/2000/svg"
 width="1227.000000pt" height="1280.000000pt" viewBox="0 0 1227.000000 1280.000000"
 preserveAspectRatio="xMidYMid meet">
<metadata>
Created by potrace 1.15, written by Peter Selinger 2001-2017
</metadata>
<g transform="translate(0.000000,1280.000000) scale(0.100000,-0.100000)"
fill="#edb176" stroke="none">
<path d="M4335 12751 c-366 -124 -740 -326 -1015 -548 -88 -70 -346 -316 -360
-343 -6 -10 11 -62 49 -155 l57 -139 -118 -68 -118 -68 -75 21 c-41 11 -79 18
-84 15 -10 -7 -103 -170 -151 -265 -18 -36 -59 -97 -92 -135 -186 -220 -338
-539 -397 -831 -64 -320 -47 -609 56 -956 5 -17 17 -11 -1394 -754 l-641 -338
-23 -76 c-30 -99 -33 -250 -6 -328 26 -73 93 -161 158 -205 68 -47 174 -87
247 -94 l57 -5 855 540 c696 440 856 537 861 523 3 -9 9 -66 13 -127 22 -356
80 -862 225 -1985 48 -373 78 -656 83 -790 l3 -65 193 -116 c106 -65 190 -119
185 -122 -4 -2 -90 -39 -190 -82 l-183 -77 0 -241 c0 -444 -44 -852 -130
-1214 -29 -119 -112 -385 -129 -411 -6 -11 -28 -4 -102 32 -137 66 -243 90
-404 89 -106 -1 -148 -6 -230 -27 -179 -47 -334 -135 -448 -255 -42 -43 -56
-65 -49 -74 178 -228 323 -419 320 -422 -1 -1 -77 -10 -168 -19 -91 -9 -182
-19 -202 -22 l-38 -6 105 -91 c58 -50 105 -94 105 -97 0 -4 -69 -12 -152 -19
-84 -7 -161 -15 -172 -18 -17 -5 -18 -14 -13 -152 7 -194 35 -317 102 -451 38
-76 116 -179 140 -185 11 -3 67 -16 125 -29 58 -14 278 -65 490 -115 212 -49
637 -149 945 -221 1011 -237 1499 -351 1580 -370 73 -17 531 -124 1585 -371
449 -105 509 -119 650 -153 58 -13 330 -77 605 -141 275 -65 554 -131 620
-147 228 -55 327 -58 475 -17 284 78 583 355 848 784 220 357 365 660 493
1034 281 821 374 1765 289 2921 -27 357 -152 1447 -168 1460 -4 4 -131 31
-282 60 -151 29 -278 56 -283 59 -4 4 96 83 223 176 126 93 229 170 227 171
-1 2 -130 30 -287 64 -156 33 -285 61 -286 63 -1 1 125 88 281 192 322 215
294 183 275 327 -13 95 -46 464 -62 693 -16 238 -16 907 0 1095 30 337 87 662
157 910 20 68 37 125 38 126 7 8 185 25 341 34 283 16 485 3 1166 -76 362 -42
530 -48 630 -21 184 49 334 169 432 345 33 58 92 211 85 218 -1 1 -94 59 -207
129 -113 70 -209 130 -213 135 -5 4 87 65 205 135 117 70 217 131 222 135 13
12 -41 185 -89 286 -137 286 -398 495 -785 629 -504 174 -1011 259 -1900 316
-91 6 -406 13 -702 16 -570 6 -898 -3 -1423 -38 -379 -26 -1065 -36 -1330 -20
-650 39 -1113 152 -1457 354 -53 31 -98 57 -100 56 -2 0 -66 -22 -143 -48z"/>
</g>
</svg>
