<!-- icon666.com - MILLIONS vector ICONS FREE --><svg version="1.1" id="Layer_1" xmlns="http://www.w3.org/2000/svg" xmlns:xlink="http://www.w3.org/1999/xlink" x="0px" y="0px" viewBox="0 0 511.999 511.999" style="enable-background:new 0 0 511.999 511.999;" xml:space="preserve"><g><g><path d="M502.36,42.472c-1.266-2.879-3.623-5.138-6.552-6.279l-16.664-6.487c-6.104-2.376-12.974,0.646-15.348,6.747 l-16.86,43.314c-1.141,2.931-1.07,6.194,0.194,9.072c0.867,1.97,2.252,3.627,3.975,4.857l-19.928,51.188H346.14V84.168h7.831 c6.548,0,12.407-4.721,12.407-11.269V26.42c0-6.548-5.858-12.492-12.407-12.492h-17.881c-6.548,0-11.379,5.943-11.379,12.492 v46.478c0,0.549-0.427,1.085-0.355,1.613c-0.981,1.726-2.026,3.718-2.026,5.845v64.526h-63.447l-19.928-51.185 c4.314-3.075,6.179-8.773,4.168-13.936L226.264,36.45c-1.139-2.931-3.398-5.286-6.276-6.551c-2.877-1.266-6.143-1.335-9.072-0.194 l-16.664,6.487c-6.101,2.375-9.123,9.247-6.748,15.348l16.859,43.314c1.139,2.931,3.398,5.287,6.276,6.552 c1.518,0.668,3.144,1.002,4.771,1.002c0.484,0,0.967,0.077,1.449,0.018l56.33,144.839h25.443l-30.522-78.571h54.217v78.572h23.81 v-78.572h75.808l-30.521,78.572h10.798c4.839,0,9.595,0.233,14.268,0.852l56.707-145.748c0.483,0.06,0.967,0.071,1.446,0.071 c4.745,0,9.226-2.885,11.05-7.573l16.86-43.321C503.695,48.616,503.625,45.35,502.36,42.472z" fill="#000000" style="fill: rgb(237, 177, 118);"></path></g></g><g><g><path d="M73.296,59.474c3.667-3.823,4.438-9.774,1.504-14.473L50.184,5.577c-1.664-2.667-4.321-4.563-7.386-5.271 c-3.06-0.708-6.281-0.173-8.95,1.495L18.681,11.27c-5.554,3.467-7.245,10.781-3.777,16.335L39.519,67.03 c1.664,2.667,4.321,4.563,7.386,5.271c0.882,0.205,1.777,0.305,2.67,0.305c1.225,0,2.437-0.21,3.604-0.582l117.447,188.111 c7.42-3.226,15.105-5.882,22.993-7.943L73.296,59.474z" fill="#000000" style="fill: rgb(237, 177, 118);"></path></g></g><g><g><path d="M402.222,267.504H233.905c-2.966,0-5.916,0.046-8.848,0.229c-43.977,2.732-83.809,25.731-107.819,63.173l-0.767,1.183 L19.016,483.91c-3.455-1.143-7.357,0.144-9.282,3.405c-0.768,1.299-1.117,2.716-1.095,4.112c0.023,1.408,0.426,2.792,1.171,4.005 c0.005,0.008,0.007,0.016,0.013,0.024c0.651,1.055,1.557,1.952,2.699,2.626l21.732,12.825c0.37,0.219,0.754,0.389,1.142,0.542 c0.933,0.365,1.905,0.551,2.87,0.551c1.099,0,2.182-0.24,3.185-0.681c1.465-0.643,2.755-1.725,3.631-3.208 c0.779-1.318,1.13-2.769,1.098-4.194c-0.055-2.376-1.181-4.679-3.185-6.167l-0.002-0.001l64.309-98.754 c0.611-0.938,1.234-1.862,1.871-2.773c14.99-21.437,37.662-35.225,63.841-38.827c26.427-3.63,53.399,3.985,74.016,20.903 l35.068,28.81c28.737,23.584,65.008,36.589,102.173,36.589c0.154,0,0.302,0,0.456,0l17.745-0.082 c30.186-0.086,56.652-15.27,72.546-38.448c9.698-14.142,15.168-31.177,15.168-49.595c0-0.012,0-0.025,0-0.037 C490.187,306.809,450.952,267.504,402.222,267.504z" fill="#000000" style="fill: rgb(237, 177, 118);"></path></g></g></svg>