<!-- icon666.com - MILLIONS vector ICONS FREE --><svg viewBox="0 0 64 64" xmlns="http://www.w3.org/2000/svg"><g id="Outline"><path d="m61 27a1 1 0 0 0 1-1v-11a1 1 0 0 0 -1-1h-2v-6a1 1 0 0 0 -2 0v2h-.465l-3.7-5.555a1 1 0 0 0 -.835-.445v-1a1 1 0 0 0 -2 0v1a1 1 0 0 0 -.832.445l-3.703 5.555h-.465v-2a1 1 0 0 0 -2 0v6h-2a1 1 0 0 0 -1 1v20a1 1 0 0 0 1 1h1v16h-18v-4a1 1 0 0 0 -2 0v.764l-2.1-4.211a1 1 0 0 0 -.9-.553v-2a1 1 0 0 0 -2 0v2a1 1 0 0 0 -.895.553l-2.105 4.211v-.764a1 1 0 0 0 -2 0v.764l-2.1-4.211a1 1 0 0 0 -.9-.553v-2a1 1 0 0 0 -2 0v2a1 1 0 0 0 -.895.553l-2.105 4.211v-.764a1 1 0 0 0 -2 0v13a1 1 0 0 0 2 0v-7h18v7a1 1 0 0 0 2 0v-7h8v7a1 1 0 0 0 2 0v-7h8v7a1 1 0 0 0 2 0v-5h6v5a1 1 0 0 0 2 0v-5h2v5a1 1 0 0 0 2 0v-5h2v5a1 1 0 0 0 2 0v-9a1 1 0 0 0 -2 0v2h-2v-1a1 1 0 0 0 -2 0v1h-2v-5h7a1 1 0 0 0 1-1v-12h1a1 1 0 0 0 1-1v-5a1 1 0 0 0 -2 0v4h-18v-18h18v10a1 1 0 0 0 1 1zm-56.382 25 3-6h.764l3 6zm10 0 3-6h.764l3 6zm32.382-7a1 1 0 0 0 -1 1v1h-2v-5h6v5h-2v-1a1 1 0 0 0 -1-1zm-3-5v-4h2v4zm0 9h2v5h-2zm6 5h-2v-5h2zm2-12h2v5h-2zm4 5v-5h2v5zm2-7h-2v-1a1 1 0 0 0 -2 0v1h-2v-1a1 1 0 0 0 -2 0v1h-2v-4h10zm-7.465-34h.93l2.667 4h-6.264zm-5.535 6h2v2h-2zm4 2v-2h4v2zm6 0v-2h2v2z" fill="#000000" style="fill: rgb(237, 177, 118);"></path><path d="m46.021 21.516a1 1 0 0 0 -1.334.471 7.02 7.02 0 1 0 3.3-3.3 1 1 0 0 0 .862 1.8 5.018 5.018 0 1 1 -2.357 2.358 1 1 0 0 0 -.471-1.329z" fill="#000000" style="fill: rgb(237, 177, 118);"></path><path d="m51 22a1 1 0 0 0 -1 1v2a1 1 0 0 0 1 1h2a1 1 0 0 0 0-2h-1v-1a1 1 0 0 0 -1-1z" fill="#000000" style="fill: rgb(237, 177, 118);"></path><path d="m8 57a1 1 0 0 0 -1 1v3a1 1 0 0 0 2 0v-3a1 1 0 0 0 -1-1z" fill="#000000" style="fill: rgb(237, 177, 118);"></path><path d="m13 56a1 1 0 0 0 -1 1v4a1 1 0 0 0 2 0v-4a1 1 0 0 0 -1-1z" fill="#000000" style="fill: rgb(237, 177, 118);"></path><path d="m18 57a1 1 0 0 0 -1 1v3a1 1 0 0 0 2 0v-3a1 1 0 0 0 -1-1z" fill="#000000" style="fill: rgb(237, 177, 118);"></path><path d="m28 57a1 1 0 0 0 -1 1v3a1 1 0 0 0 2 0v-3a1 1 0 0 0 -1-1z" fill="#000000" style="fill: rgb(237, 177, 118);"></path><path d="m38 57a1 1 0 0 0 -1 1v3a1 1 0 0 0 2 0v-3a1 1 0 0 0 -1-1z" fill="#000000" style="fill: rgb(237, 177, 118);"></path><path d="m47 58a1 1 0 0 0 -1 1v2a1 1 0 0 0 2 0v-2a1 1 0 0 0 -1-1z" fill="#000000" style="fill: rgb(237, 177, 118);"></path><path d="m21.747 27.4a3.983 3.983 0 0 0 -5.2 1.6h-.547a5.006 5.006 0 0 0 -5 5 1 1 0 0 0 1 1h8a1 1 0 0 0 0-2h-6.829a3.006 3.006 0 0 1 2.829-2h1.184a1 1 0 0 0 .942-.665 2 2 0 0 1 1.874-1.335 1.978 1.978 0 0 1 1.44.621 1 1 0 0 0 1.686-.422 2.982 2.982 0 0 1 5.6-.439 1 1 0 0 0 1.368.473 1.979 1.979 0 0 1 2.787 1.114 1.11 1.11 0 0 0 1.119.653 1 1 0 0 1 0 2 .991.991 0 0 1 -.659-.258 1 1 0 0 0 -1.225-.082 2.028 2.028 0 0 1 -2.637-.382 1 1 0 0 0 -.7-.354.991.991 0 0 0 -.741.266 2.985 2.985 0 0 1 -2.038.81h-2a1 1 0 0 0 0 2h2a4.946 4.946 0 0 0 2.654-.773 4.054 4.054 0 0 0 3.967.431 2.964 2.964 0 0 0 1.379.342 3 3 0 0 0 .473-5.963 4.015 4.015 0 0 0 -4.4-1.923 4.973 4.973 0 0 0 -8.326.288z" fill="#000000" style="fill: rgb(237, 177, 118);"></path><path d="m3 19h8a3.958 3.958 0 0 0 2.156-.642 3.078 3.078 0 0 0 3.688 0 3.958 3.958 0 0 0 2.156.642 4 4 0 0 0 0-8 3.739 3.739 0 0 0 -.528.037 3.977 3.977 0 0 0 -6.944 0 4 4 0 0 0 -3.979 1.963h-.549a5.006 5.006 0 0 0 -5 5 1 1 0 0 0 1 1zm4-4h1.184a1 1 0 0 0 .942-.665 1.984 1.984 0 0 1 2.614-1.185 1 1 0 0 0 1.341-.668 1.983 1.983 0 0 1 3.838 0 1 1 0 0 0 1.341.668 2 2 0 1 1 .74 3.85 1.971 1.971 0 0 1 -1.5-.7 1 1 0 0 0 -.754-.344.928.928 0 0 0 -.106.006 1 1 0 0 0 -.77.512 1.014 1.014 0 0 1 -1.738 0 1 1 0 0 0 -1.632-.174 1.971 1.971 0 0 1 -1.5.7h-6.829a3.006 3.006 0 0 1 2.829-2z" fill="#000000" style="fill: rgb(237, 177, 118);"></path><path d="m29 19h6a1 1 0 0 0 0-2h-6a1 1 0 0 0 0 2z" fill="#000000" style="fill: rgb(237, 177, 118);"></path><path d="m27 41a1 1 0 0 0 0 2h6a1 1 0 0 0 0-2z" fill="#000000" style="fill: rgb(237, 177, 118);"></path><path d="m10 25h-6a1 1 0 0 0 0 2h6a1 1 0 0 0 0-2z" fill="#000000" style="fill: rgb(237, 177, 118);"></path></g></svg>