<!-- icon666.com - MILLIONS vector ICONS FREE --><svg version="1.1" id="Capa_1" xmlns="http://www.w3.org/2000/svg" xmlns:xlink="http://www.w3.org/1999/xlink" x="0px" y="0px" viewBox="0 0 512 512" style="enable-background:new 0 0 512 512;" xml:space="preserve"><g><g><rect x="123.76" y="236.81" width="30" height="66.43" fill="#000000" style="fill: rgb(237, 177, 118);"></rect></g></g><g><g><rect x="73.52" y="236.81" width="30" height="66.43" fill="#000000" style="fill: rgb(237, 177, 118);"></rect></g></g><g><g><path d="M475.446,303.246v28.481H354.724v-28.481h-30v28.481H204.001V208.333h16.724V94.037h-30v27.025h-11.28l-23.74-84.059V0 h-30v24.081h-24.13V0h-30v37.003l-23.74,84.059h-11.28V94.037h-30v114.296h16.724v123.394H6.554v30h16.724V512h482.168V303.246 H475.446z M97.925,54.081h31.429l18.917,66.981H79.008L97.925,54.081z M125.704,482h-24.13v-40.993 c0-6.653,5.413-12.065,12.065-12.065c6.652,0,12.065,5.412,12.065,12.065V482z M174.001,482h-18.296v-40.993 c0-23.195-18.871-42.065-42.065-42.065c-23.194,0-42.065,18.87-42.065,42.065V482H53.278V361.727h120.723V482z M174.001,331.727 H53.278V208.333h120.723V331.727z M190.725,178.333H36.554v-27.271h2.808h148.555h2.808V178.333z M276.427,482h-24.13v-40.993 c0-6.653,5.413-12.065,12.065-12.065c6.652,0,12.065,5.412,12.065,12.065V482z M324.724,482h-18.296v-40.993 c-0.001-23.195-18.871-42.065-42.066-42.065s-42.065,18.87-42.065,42.065V482h-18.296V361.727h120.723V482z M427.15,482h-24.13 v-40.993c0-6.653,5.413-12.065,12.065-12.065c6.652,0,12.065,5.412,12.065,12.065V482z M475.447,482H457.15v-40.993 c0-23.195-18.87-42.065-42.065-42.065s-42.065,18.87-42.065,42.065V482h-18.296V361.727h120.723V482z" fill="#000000" style="fill: rgb(237, 177, 118);"></path></g></g></svg>