<!-- icon666.com - MILLIONS vector ICONS FREE --><svg id="Capa_1" enable-background="new 0 0 512 512" viewBox="0 0 512 512" xmlns="http://www.w3.org/2000/svg"><path d="m208.063 0h-20l-10.022 10.008z" fill="#f9f7f8"></path><g><path d="m499.675 146.488-54.423 68.027c-2.645 3.307-7.578 3.58-10.572.585l-25.916-25.916-10.15-31.601v-74.873l10.15-51.181 90.757 105.897c2.222 2.591 2.287 6.396.154 9.062z" fill="#eb4340" style="fill: rgb(237, 177, 118);"></path><path d="m499.522 137.425-70.757-82.56v154.32l5.916 5.916c2.995 2.994 7.927 2.721 10.572-.585l54.423-68.027c2.132-2.667 2.067-6.472-.154-9.064z" fill="#eb4340" style="fill: rgb(237, 177, 118);"></path><path d="m408.765 31.529-10.15 51.181v74.873l10.15 31.602 20 20v-154.32z" fill="#d42f2e" style="fill: rgb(199, 133, 71);"></path><path d="m2.567 146.488 54.423 68.027c2.645 3.307 7.578 3.58 10.572.585l25.916-25.916 10.15-31.601v-75.55l-10.15-50.504-90.758 105.896c-2.221 2.592-2.286 6.397-.153 9.063z" fill="#eb4340" style="fill: rgb(237, 177, 118);"></path><path d="m22.567 146.488c-2.132-2.665-2.068-6.47.153-9.062l74.557-86.993-3.799-18.903-90.758 105.895c-2.221 2.592-2.286 6.397-.153 9.062l54.423 68.027c2.645 3.307 7.578 3.58 10.572.585l5.498-5.498z" fill="#d42f2e" style="fill: rgb(199, 133, 71);"></path><path d="m408.765 441.403h-126.109l-31.535-10.151-31.535 10.151h-63.051l-52.908-10.151-10.15-52.949v-63.058l10.15-31.534-10.15-31.535v-62.991l10.15-31.602-10.15-31.535v-94.519l63.052-21.018 16.275 4.726 15.259-15.237h126.115l16.478 15.643 15.06-5.131 63.049 21.017v94.519l-10.15 31.535 10.15 31.602v62.991l-10.15 31.535 10.15 31.534z" fill="#f9f7f8"></path><path d="m113.477 31.529 53.742-17.914-10.69-3.104-63.052 21.018v94.519l10.15 31.535-10.15 31.602v62.991l10.15 31.535-10.15 31.534v63.058l10.15 52.949 9.997 1.918z" fill="#efedef"></path><path d="m156.015 441.303.52.1h63.051l.074-.024z" fill="#f9f7f8"></path><path d="m100.57 441.373h55.965v-63.07h-63.07v55.965c0 3.924 3.181 7.105 7.105 7.105z" fill="#eb4340" style="fill: rgb(237, 177, 118);"></path><path d="m113.465 434.268v-55.965h-20v55.965c0 3.924 3.181 7.105 7.105 7.105h20c-3.924 0-7.105-3.181-7.105-7.105z" fill="#d42f2e" style="fill: rgb(199, 133, 71);"></path><path d="m219.586 378.303h63.07v63.07h-63.07z" fill="#eb4340" style="fill: rgb(237, 177, 118);"></path><path d="m156.529 315.239h63.07v63.07h-63.07z" fill="#eb4340" style="fill: rgb(237, 177, 118);"></path><path d="m282.647 315.239h63.07v63.07h-63.07z" fill="#eb4340" style="fill: rgb(237, 177, 118);"></path><path d="m93.465 252.176h63.07v63.07h-63.07z" fill="#eb4340" style="fill: rgb(237, 177, 118);"></path><path d="m93.465 252.176h20v63.07h-20z" fill="#d42f2e" style="fill: rgb(199, 133, 71);"></path><g fill="#eb4340"><path d="m345.701 252.176h63.07v63.07h-63.07z" fill="#eb4340" style="fill: rgb(237, 177, 118);"></path><path d="m219.586 252.176h63.07v63.07h-63.07z" fill="#eb4340" style="fill: rgb(237, 177, 118);"></path><path d="m156.529 189.112h63.07v63.07h-63.07z" fill="#eb4340" style="fill: rgb(237, 177, 118);"></path><path d="m282.647 189.112h63.07v63.07h-63.07z" fill="#eb4340" style="fill: rgb(237, 177, 118);"></path><path d="m93.465 126.048h63.07v63.07h-63.07z" fill="#eb4340" style="fill: rgb(237, 177, 118);"></path></g><path d="m93.465 126.048h20v63.07h-20z" fill="#d42f2e" style="fill: rgb(199, 133, 71);"></path><path d="m345.701 126.048h63.07v63.07h-63.07z" fill="#eb4340" style="fill: rgb(237, 177, 118);"></path><path d="m219.586 126.048h63.07v63.07h-63.07z" fill="#eb4340" style="fill: rgb(237, 177, 118);"></path><path d="m156.529 126.121h63.069v-63.07l-63.069-52.541z" fill="#eb4340" style="fill: rgb(237, 177, 118);"></path><path d="m282.647 126.121h63.069v-115.611l-63.069 52.541z" fill="#eb4340" style="fill: rgb(237, 177, 118);"></path><circle cx="408.771" cy="409.78" fill="#d8ecfe" r="94.607" style="fill: rgb(239, 184, 129);"></circle><path d="m408.771 371.896-41.278 29.99 15.767 48.524h51.022l15.766-48.524z" fill="#0593fc" style="fill: rgb(141, 82, 27);"></path><path d="m510.99 409.781c0-8.862-1.134-17.464-3.264-25.67-.039-.175-.085-.35-.137-.524-11.597-43.715-51.505-76.027-98.818-76.027-47.193 0-87.019 32.148-98.73 75.694-.065.211-.122.423-.168.635-2.167 8.272-3.322 16.95-3.322 25.892 0 34.872 17.553 65.722 44.288 84.178.143.121.291.237.445.349.289.21.588.396.894.56 16.214 10.819 35.68 17.132 56.593 17.132 20.922 0 40.395-6.318 56.613-17.146.298-.16.588-.342.869-.546.146-.106.286-.216.422-.33 26.75-18.455 44.315-49.313 44.315-84.197zm-20.17-28.932-39.232 12.745-35.204-25.577v-44.902c34.499 3.006 63.296 26.235 74.436 57.734zm-102.029 61.948-12.349-38.004 32.329-23.488 32.329 23.488-12.349 38.004zm12.367-119.681v44.902l-34.929 25.377-39.416-12.802c11.204-31.369 39.938-54.481 74.345-57.477zm-79.382 86.665c0-4.914.41-9.734 1.196-14.428l38.452 12.489 13.374 41.16-20.661 28.431c-19.727-15.962-32.361-40.36-32.361-67.652zm44.994 76.167 20.293-27.925h43.41l20.295 27.926c-12.458 6.897-26.778 10.826-41.997 10.826-15.221 0-29.542-3.93-42.001-10.827zm96.632-8.514-20.659-28.428 13.27-40.841 38.601-12.54c.757 4.608 1.151 9.337 1.151 14.156 0 27.293-12.635 51.692-32.363 67.653z" fill="#c4e2ff" style="fill: rgb(210, 130, 50);"></path><path d="m156.535 10.51c0 46.434 37.642 84.077 84.077 84.077h21.019c46.434 0 84.077-37.642 84.077-84.077l-31.53-10.51c0 34.826-28.232 63.057-63.057 63.057-34.826 0-63.057-28.232-63.057-63.057z" fill="#d42f2e" style="fill: rgb(199, 133, 71);"></path></g></svg>