<!-- icon666.com - MILLIONS vector ICONS FREE --><svg xmlns="http://www.w3.org/2000/svg" id="Icons" viewBox="0 0 60 60"><path d="M3,50H14.424a4.99,4.99,0,0,0,9.152,0H46.424a4.99,4.99,0,0,0,9.152,0H57a3,3,0,0,0,3-3V41.16A2.981,2.981,0,0,0,58.167,38.4c-.05-.021-.112-.043-.167-.064V31.81a2.952,2.952,0,0,0,1.952-3.333l-1.714-9.7A6.988,6.988,0,0,0,51.346,13H9a9.01,9.01,0,0,0-9,9V47A3,3,0,0,0,3,50ZM2,47V32H5V48H3A1,1,0,0,1,2,47Zm8-15V48H7V32Zm9,19a3,3,0,1,1,3-3A3,3,0,0,1,19,51Zm32,0a3,3,0,1,1,3-3A3,3,0,0,1,51,51Zm7-4a1,1,0,0,1-1,1H56a5,5,0,0,0-10,0H24a5,5,0,0,0-10,0H12V32H47.183A2.966,2.966,0,0,0,47,33v3.04a2.97,2.97,0,0,0,2.874,2.987A25.542,25.542,0,0,1,56.711,40a7.27,7.27,0,0,1,.691.245.983.983,0,0,1,.6.917Zm-8.057-9.971A.991.991,0,0,1,49,36.04V33a1,1,0,0,1,1-1h6v5.735A31.988,31.988,0,0,0,49.941,37.029ZM9,15H51.346a4.993,4.993,0,0,1,4.924,4.129l1.713,9.7a.979.979,0,0,1-.215.813A1,1,0,0,1,57,30H2V22A7.009,7.009,0,0,1,9,15Z" fill="#000000" style="fill: rgb(237, 177, 118);"></path><path d="M6.174,23H12a2,2,0,0,0,2-2V19a2,2,0,0,0-2-2H9a5,5,0,0,0-4.734,3.392,1.925,1.925,0,0,0,.265,1.761A2.022,2.022,0,0,0,6.174,23ZM9,19l3,0v2l-5.841.037A3,3,0,0,1,9,19Z" fill="#000000" style="fill: rgb(237, 177, 118);"></path><path d="M18,23h4a2,2,0,0,0,2-2V19a2,2,0,0,0-2-2H18a2,2,0,0,0-2,2v2A2,2,0,0,0,18,23Zm0-4h4l0,2H18Z" fill="#000000" style="fill: rgb(237, 177, 118);"></path><path d="M28,23h4a2,2,0,0,0,2-2V19a2,2,0,0,0-2-2H28a2,2,0,0,0-2,2v2A2,2,0,0,0,28,23Zm0-4h4l0,2H28Z" fill="#000000" style="fill: rgb(237, 177, 118);"></path><path d="M38,23h4a2,2,0,0,0,2-2V19a2,2,0,0,0-2-2H38a2,2,0,0,0-2,2v2A2,2,0,0,0,38,23Zm0-4h4l0,2H38Z" fill="#000000" style="fill: rgb(237, 177, 118);"></path><path d="M21,34H17a2,2,0,0,0-2,2v2a2,2,0,0,0,2,2h4a2,2,0,0,0,2-2V36A2,2,0,0,0,21,34Zm-4,4V36h4l0,2Z" fill="#000000" style="fill: rgb(237, 177, 118);"></path><path d="M31,34H27a2,2,0,0,0-2,2v2a2,2,0,0,0,2,2h4a2,2,0,0,0,2-2V36A2,2,0,0,0,31,34Zm-4,4V36h4l0,2Z" fill="#000000" style="fill: rgb(237, 177, 118);"></path><path d="M41,34H37a2,2,0,0,0-2,2v2a2,2,0,0,0,2,2h4a2,2,0,0,0,2-2V36A2,2,0,0,0,41,34Zm-4,4V36h4l0,2Z" fill="#000000" style="fill: rgb(237, 177, 118);"></path><path d="M48,23h4a2,2,0,0,0,2-2V19a2,2,0,0,0-2-2H48a2,2,0,0,0-2,2v2A2,2,0,0,0,48,23Zm0-4h4l0,2H48Z" fill="#000000" style="fill: rgb(237, 177, 118);"></path></svg>