<!-- icon666.com - MILLIONS vector ICONS FREE --><svg viewBox="0 -40 512 511" xmlns="http://www.w3.org/2000/svg"><path d="m216.117188 80.265625h15.953124v14.957031h-15.953124zm0 0" fill="#000000" style="fill: rgb(237, 177, 118);"></path><path d="m248.023438 80.265625h15.953124v14.957031h-15.953124zm0 0" fill="#000000" style="fill: rgb(237, 177, 118);"></path><path d="m279.929688 80.265625h15.953124v14.957031h-15.953124zm0 0" fill="#000000" style="fill: rgb(237, 177, 118);"></path><path d="m311.835938 80.265625h15.953124v14.957031h-15.953124zm0 0" fill="#000000" style="fill: rgb(237, 177, 118);"></path><path d="m510.6875 181.960938c-.203125-1.5-5.222656-36.996094-27.199219-58.976563-14.308593-14.308594-29.945312-21.109375-41.671875-24.339844 12.484375-3.777343 29.238282-10.777343 41.671875-23.210937 26.625-26.621094 27.25-58.554688 27.265625-59.902344l.074219-7.300781-7.550781.246093c-1.375 0-33.035156.066407-59.980469 27.015626-17.480469 17.480468-24.226563 43.371093-26.359375 54.046874-9.449219-6.285156-24.53125-15.605468-43.921875-24.925781-23.265625-11.175781-56.242187-23.75-93.976563-29.433593l34.898438-34.679688h-69.011719l-32.964843 32.714844c-29.226563 2.203125-56.652344 7.769531-81.863282 16.878906-2.957031-1.347656-6.242187-2.171875-9.699218-2.171875-10.375 0-19.1875 6.746094-22.261719 16.101563-31.621094 16.628906-46.554688 33.546874-47.195313 34.28125l-4.265625 4.902343 4.265625 4.902344c.582032.664063 14.519532 16.484375 43.941406 32.554687 26.628907 14.542969 71.738282 32.128907 135.71875 33.703126 2.34375 3.292968 5.066407 6.582031 8.265626 9.777343 17.933593 17.9375 46.816406 22.019531 48.039062 22.183594l9.722656 1.3125-1.3125-9.726563c-.164062-1.21875-4.246094-29.851562-22.183594-47.789062-7.136718-7.140625-14.6875-12.03125-21.671874-15.019531h101.246093c-17.179687 6.976562-36.941406 14.042969-58.402343 18.683593l3.160156 14.492188c10.421875-2.253906 20.425781-5.054688 29.941406-8.101562l31.5 23.59375 62.816406-31.425782-28.132812-21.105468c10.15625-5.667969 18.339844-10.863282 24.195312-14.800782 2.617188 12.039063 9.15625 30.382813 25.511719 46.738282 21.976563 21.976562 57.476563 26.992187 58.976563 27.195312l9.726562 1.3125zm-259.566406-166.507813h26.707031l-17.753906 17.507813c-6.574219-.523438-13.257813-.929688-20.027344-.929688-1.988281 0-3.960937.214844-5.9375.246094zm-130.722656 47.363281c4.671874 0 8.472656 3.800782 8.472656 8.476563 0 4.671875-3.800782 8.472656-8.472656 8.472656-4.675782 0-8.476563-3.800781-8.476563-8.472656 0-4.675781 3.800781-8.476563 8.476563-8.476563zm31.90625 85.167969c-20.9375-5.953125-37.386719-13.351563-49.777344-20.054687-17.742188-9.605469-29.226563-19.164063-35.320313-24.730469 5.636719-5.152344 16.121094-13.714844 31.703125-22.578125 3.613282 8.289062 11.882813 14.101562 21.488282 14.101562 12.917968 0 23.429687-10.511718 23.429687-23.433594 0-3.398437-.980469-6.625-2.289063-9.542968 3.625-1.203125 7.773438-2.324219 10.765626-3.382813zm14.957031 3.804687v-16.6875h49.347656l.007813.328126c.007812.683593-.039063 10.867187 5.292968 23.78125-20.265625-1.003907-37.699218-3.800782-54.648437-7.421876zm95.296875 8.664063c8.25 8.246094 12.9375 20.011719 15.433594 28.550781-8.539063-2.5-20.300782-7.1875-28.550782-15.4375-10.289062-10.289062-14.660156-21.945312-16.515625-29.71875 7.671875 1.800782 19.164063 6.136719 29.632813 16.605469zm97.925781 5.777344-16.078125-12.058594c12.71875-4.820313 24.324219-10.054687 34.574219-15.199219l14.410156 10.804688zm22.929687-46.082031h-216.152343v-65.59375c22.929687-5.105469 47.074219-7.691407 72.535156-7.691407 79.308594 0 147.589844 41.054688 170.65625 56.585938-6.109375 4.121093-15.253906 9.71875-27.039063 16.699219zm70.457032-74.332032c14.625-14.625 31.089844-19.90625 40.835937-21.808594-1.921875 9.78125-7.21875 26.273438-21.792969 40.851563-11.671874 11.667969-28.742187 17.757813-39.714843 20.660156 2.882812-10.957031 8.957031-27.988281 20.671875-39.703125zm0 106.785156c-14.460938-14.460937-19.792969-31.019531-21.75-40.84375 9.761718 1.914063 26.191406 7.203126 40.792968 21.800782 11.667969 11.667968 17.757813 28.742187 20.65625 39.714844-10.953124-2.886719-27.984374-8.960938-39.699218-20.671876zm0 0" fill="#000000" style="fill: rgb(237, 177, 118);"></path><path d="m279.929688 303.609375h15.953124v14.957031h-15.953124zm0 0" fill="#000000" style="fill: rgb(237, 177, 118);"></path><path d="m248.023438 303.609375h15.953124v14.957031h-15.953124zm0 0" fill="#000000" style="fill: rgb(237, 177, 118);"></path><path d="m216.117188 303.609375h15.953124v14.957031h-15.953124zm0 0" fill="#000000" style="fill: rgb(237, 177, 118);"></path><path d="m184.210938 303.609375h15.953124v14.957031h-15.953124zm0 0" fill="#000000" style="fill: rgb(237, 177, 118);"></path><path d="m413.863281 287.335938c-3.074219-9.355469-11.886719-16.132813-22.261719-16.132813-3.457031 0-6.742187.761719-9.699218 2.113281-25.210938-9.113281-52.636719-14.554687-81.863282-16.757812l-32.964843-32.714844h-69.011719l34.898438 34.648438c-37.734376 5.683593-70.710938 18.347656-93.976563 29.527343-19.390625 9.320313-34.472656 18.515625-43.921875 24.800781-2.132812-10.675781-8.878906-36.472656-26.359375-53.953124-26.949219-26.949219-58.609375-27.046876-59.976563-27.046876h-.003906l-7.550781-.246093.074219 7.425781c.015625 1.347656.640625 33.21875 27.265625 59.839844 12.433593 12.433594 29.1875 19.402344 41.667969 23.179687-11.722657 3.234375-27.359376 10.019531-41.667969 24.324219-21.976563 21.980469-26.996094 57.46875-27.199219 58.96875l-1.3125 9.722656 9.726562-1.3125c1.5-.203125 37-5.222656 58.976563-27.199218 16.351563-16.351563 22.890625-34.691407 25.511719-46.734376 5.851562 3.9375 14.039062 9.136719 24.179687 14.800782l-28.117187 21.089844 62.816406 31.40625 31.472656-23.601563c12.695313 4.0625 26.269532 7.5625 40.523438 10.097656-6.457032 13.882813-8.296875 26.867188-8.40625 27.675781l-1.316406 9.726563 9.726562-1.3125c1.222656-.164063 30.105469-4.246094 48.039062-22.183594 3.195313-3.195312 5.921876-6.484375 8.265626-9.78125 63.980468-1.570312 109.089843-19.160156 135.71875-33.703125 29.421874-16.066406 43.359374-31.890625 43.9375-32.554687l4.269531-4.90625-4.269531-4.910157c-.636719-.734374-15.570313-17.667968-47.191407-34.296874zm-374.773437.867187c-14.460938-14.460937-19.792969-31.019531-21.753906-40.84375 9.761718 1.914063 26.195312 7.203125 40.792968 21.800781 11.667969 11.667969 17.757813 28.742188 20.660156 39.714844-10.957031-2.882812-27.988281-8.960938-39.699218-20.671875zm19.039062 87.742187c-11.667968 11.667969-28.742187 17.757813-39.714844 20.660157 2.886719-10.957031 8.960938-27.988281 20.671876-39.699219 14.625-14.625 31.089843-19.910156 40.835937-21.8125-1.921875 9.785156-7.214844 26.273438-21.792969 40.851562zm333.472656-89.785156c4.675782 0 8.476563 3.800782 8.476563 8.476563 0 4.671875-3.800781 8.472656-8.476563 8.472656-4.671874 0-8.472656-3.800781-8.472656-8.472656 0-4.675781 3.800782-8.476563 8.472656-8.476563zm-130.722656-47.359375 17.011719 16.757813c-1.976563-.027344-3.949219-.183594-5.9375-.183594-6.769531 0-13.453125.46875-20.027344.992188l-17.753906-17.566407zm-109.363281 150.773438-32.90625-16.449219 14.386719-10.789062c10.25 5.148437 21.851562 10.386718 34.566406 15.203124zm111.042969 7.339843c-8.253906 8.253907-20.035156 12.941407-28.574219 15.441407 2.484375-8.523438 7.164063-20.265625 15.457031-28.558594 10.382813-10.386719 21.957032-14.738281 29.667969-16.558594-1.828125 7.734375-6.183594 19.308594-16.550781 29.675781zm81.183594-21.777343c-15.953126 3.617187-33.886719 6.414062-54.148438 7.421875 5.328125-12.914063 5.78125-23.101563 5.789062-23.785156l.007813-.324219h48.351563zm0-31.644531h-111.671876v14.957031h28.46875c-6.984374 2.988281-14.535156 7.878906-21.671874 15.019531-2.058594 2.058594-3.925782 4.386719-5.632813 6.671875-27.460937-4.320313-52.660156-12.71875-73.886719-21.695313h56.769532v-14.953124h-87.496094c-11.800782-6.980469-21.085938-12.582032-27.195313-16.699219 23.074219-15.535157 90.976563-56.460938 170.277344-56.460938 25.464844 0 50.105469 2.460938 72.039063 7.566407zm65.230468 7.78125c-12.386718 6.703124-28.339844 14.101562-50.273437 20.058593v-89.621093c3.988281 1.054687 7.640625 2.179687 11.261719 3.378906-1.304688 2.917968-1.914063 6.144531-1.914063 9.546875 0 12.917969 10.574219 23.429687 23.492187 23.429687 9.605469 0 17.90625-5.808594 21.519532-14.097656 15.582031 8.863281 25.960937 17.425781 31.589844 22.574219-6.09375 5.570312-17.9375 15.128906-35.675782 24.730469zm0 0" fill="#000000" style="fill: rgb(237, 177, 118);"></path></svg>