<!-- icon666.com - MILLIONS vector ICONS FREE --><svg id="Layer_1" viewBox="0 0 128 128" xmlns="http://www.w3.org/2000/svg" data-name="Layer 1"><path d="m113.12 67.58a1 1 0 0 0 .77-.36l1.26-1.53 1.25 1.53a1 1 0 0 0 1.6-1.22l-2-2.47a1 1 0 0 0 -.77-.36 1 1 0 0 0 -.78.36l-2 2.47a1 1 0 0 0 .14 1.4.94.94 0 0 0 .53.18z" fill="#000000" style="fill: rgb(237, 177, 118);"></path><path d="m115.15 81.82a3.35 3.35 0 0 0 -3.55 3.11v6.65a1 1 0 0 0 1 1h5.09a1 1 0 0 0 1-1v-6.65a3.35 3.35 0 0 0 -3.54-3.11zm1.54 8.76h-3.09v-5.65c0-.61.71-1.11 1.55-1.11s1.54.5 1.54 1.11z" fill="#000000" style="fill: rgb(237, 177, 118);"></path><path d="m115.15 98a3.35 3.35 0 0 0 -3.55 3.11v6.65a1 1 0 0 0 1 1h5.09a1 1 0 0 0 1-1v-6.65a3.35 3.35 0 0 0 -3.54-3.11zm1.54 8.76h-3.09v-5.65c0-.61.71-1.11 1.55-1.11s1.54.5 1.54 1.11z" fill="#000000" style="fill: rgb(237, 177, 118);"></path><path d="m115.15 111.11a1 1 0 0 0 -1 1v4.11a1 1 0 0 0 2 0v-4.11a1 1 0 0 0 -1-1z" fill="#000000" style="fill: rgb(237, 177, 118);"></path><path d="m88.83 85.23a1 1 0 0 0 1-1v-3.1a1 1 0 0 0 -2 0v3.1a1 1 0 0 0 1 1z" fill="#000000" style="fill: rgb(237, 177, 118);"></path><path d="m85 80.13a1 1 0 0 0 -1 1v3.1a1 1 0 0 0 2 0v-3.1a1 1 0 0 0 -1-1z" fill="#000000" style="fill: rgb(237, 177, 118);"></path><path d="m77.37 85.23a1 1 0 0 0 1-1v-3.1a1 1 0 0 0 -2 0v3.1a1 1 0 0 0 1 1z" fill="#000000" style="fill: rgb(237, 177, 118);"></path><path d="m73.54 80.13a1 1 0 0 0 -1 1v3.1a1 1 0 0 0 2 0v-3.1a1 1 0 0 0 -1-1z" fill="#000000" style="fill: rgb(237, 177, 118);"></path><path d="m65.81 85.23a1 1 0 0 0 1-1v-3.1a1 1 0 0 0 -2 0v3.1a1 1 0 0 0 1 1z" fill="#000000" style="fill: rgb(237, 177, 118);"></path><path d="m100.29 85.23a1 1 0 0 0 1-1v-3.1a1 1 0 0 0 -2 0v3.1a1 1 0 0 0 1 1z" fill="#000000" style="fill: rgb(237, 177, 118);"></path><path d="m96.47 80.13a1 1 0 0 0 -1 1v3.1a1 1 0 0 0 2 0v-3.1a1 1 0 0 0 -1-1z" fill="#000000" style="fill: rgb(237, 177, 118);"></path><path d="m10.83 67.58a1 1 0 0 0 .77-.36l1.25-1.53 1.26 1.53a1 1 0 0 0 1.54-1.22l-2-2.47a1 1 0 0 0 -.78-.36 1 1 0 0 0 -.77.36l-2 2.47a1 1 0 0 0 .14 1.4 1 1 0 0 0 .59.18z" fill="#000000" style="fill: rgb(237, 177, 118);"></path><path d="m12.85 81.82a3.35 3.35 0 0 0 -3.54 3.11v6.65a1 1 0 0 0 1 1h5.09a1 1 0 0 0 1-1v-6.65a3.35 3.35 0 0 0 -3.55-3.11zm1.55 8.76h-3.09v-5.65c0-.61.7-1.11 1.54-1.11s1.55.5 1.55 1.11z" fill="#000000" style="fill: rgb(237, 177, 118);"></path><path d="m12.85 98a3.35 3.35 0 0 0 -3.54 3.11v6.65a1 1 0 0 0 1 1h5.09a1 1 0 0 0 1-1v-6.65a3.35 3.35 0 0 0 -3.55-3.11zm1.55 8.76h-3.09v-5.65c0-.61.7-1.11 1.54-1.11s1.55.5 1.55 1.11z" fill="#000000" style="fill: rgb(237, 177, 118);"></path><path d="m12.85 111.11a1 1 0 0 0 -1 1v4.11a1 1 0 0 0 2 0v-4.11a1 1 0 0 0 -1-1z" fill="#000000" style="fill: rgb(237, 177, 118);"></path><path d="m1.82 127.5h124.36a1 1 0 0 0 1-1v-59.84c0-.14 0-.14-2.63-9.12a1 1 0 0 0 -1-.72 1 1 0 0 0 -1 .72l-.81 2.8c-.06-.84-.13-1.68-.22-2.51a78.7 78.7 0 0 0 -1.43-9l-4-24a1 1 0 0 0 -1-.83 1 1 0 0 0 -1 .83l-4 24a81 81 0 0 0 -1.43 9c-.09.83-.15 1.67-.21 2.51l-.82-2.8a1 1 0 0 0 -1.92 0c-2.63 9-2.63 9-2.63 9.12v11.63l-3.73-4.65v-10.45a.65.65 0 0 0 0-.2l-1.79-8.84a1 1 0 0 0 -1-.8 1 1 0 0 0 -1 .8l-1.32 6.53-4.64-6.76-1.7-8.63c-.91-7-4.69-11.43-10.08-16-1.1-.92-2.31-1.81-3.47-2.66-3.3-2.42-6.42-4.72-7.56-7.91l-1.79-17.32a1 1 0 0 0 -1-.9 1 1 0 0 0 -1 .9l-1.79 17.35c-1.14 3.2-4.25 5.5-7.56 7.92-1.16.86-2.37 1.74-3.47 2.66-5.39 4.53-9.17 9-10.08 16l-1.75 8.63-4.64 6.76-1.32-6.53a1 1 0 0 0 -1-.8 1 1 0 0 0 -1 .8l-1.75 8.81a.65.65 0 0 0 0 .2v10.44l-3.73 4.65v-11.63a.93.93 0 0 0 -.05-.29c-.08-.3-2.58-8.83-2.58-8.83a1 1 0 0 0 -1.92 0l-.82 2.8c-.06-.84-.12-1.67-.21-2.51a81.14 81.14 0 0 0 -1.43-9l-4-24a1 1 0 0 0 -1-.83 1 1 0 0 0 -1 .83l-4 24a78.7 78.7 0 0 0 -1.43 9c-.08.83-.15 1.67-.21 2.51l-.81-2.8a1 1 0 0 0 -1-.72 1 1 0 0 0 -1 .72l-2.59 8.83a.92.92 0 0 0 0 .29v59.84a1 1 0 0 0 .96 1zm1-31.44h3.18v29.44h-3.18zm14.89 29.44h-1.92v-5.87a1 1 0 0 0 -2 0v5.87h-1.87v-5.87a1 1 0 0 0 -2 0v5.87h-1.92v-29.44h9.72v15.25a1 1 0 0 0 2 0v-15.25h3.18v29.44h-3.19v-9.28a1 1 0 0 0 -2 0zm-8.07-75.57h6.43c.47 2.28.85 4.58 1.11 6.89h-8.66c.27-2.31.65-4.61 1.12-6.89zm7.74 8.89c.2 2.3.33 4.61.33 6.91v12.61l-4.08-5a1 1 0 0 0 -.78-.37 1 1 0 0 0 -.77.37l-4.08 5v-12.61c0-2.3.13-4.61.34-6.91zm-9.38 22.67 4.86-5.92 4.86 5.92v12.57h-9.72zm26.21-18 4.09-6v18.38l-2.94 3.66-1.16-1.43zm16.13-12.2-.57 2.83a1.36 1.36 0 0 0 0 .2v1.88h-5.9v-1.88c0-.07 0-.09-.6-3zm11.46 0-.57 2.83a1.36 1.36 0 0 0 0 .2v1.88h-5.9v-1.88c0-.07 0-.09-.59-3zm11.46 0c-.59 2.94-.59 3-.59 3v1.91h-5.88v-1.88a1.36 1.36 0 0 0 0-.2l-.57-2.83zm20.54 26.81-1.15 1.43-2.94-3.66v-18.33l4.09 6zm6.07 47.4h-3.09v-5.66c0-.6.71-1.1 1.55-1.1s1.54.5 1.54 1.1zm-1.54-8.76a3.35 3.35 0 0 0 -3.55 3.1v5.66h-4.31v-5.66a3.58 3.58 0 0 0 -7.1 0v5.66h-4.37v-5.66a3.58 3.58 0 0 0 -7.09 0v5.66h-4.36v-5.66a3.58 3.58 0 0 0 -7.1 0v5.66h-4.36v-5.66a3.58 3.58 0 0 0 -7.09 0v5.66h-4.37v-5.66a3.36 3.36 0 0 0 -3.55-3.1 3.35 3.35 0 0 0 -3.55 3.1v5.66h-4.31v-5.66a3.35 3.35 0 0 0 -3.55-3.1 3.36 3.36 0 0 0 -3.55 3.1v5.66h-1.23v-11.67h13a1 1 0 0 0 0-2h-13v-3.1h58.85a1 1 0 0 0 0-2h-1.55v-13.79a4.73 4.73 0 1 1 9.46 0v13.79h-3.52a1 1 0 0 0 0 2h15v3.1h-50.58a1 1 0 0 0 0 2h50.56v11.67h-1.24v-5.66a3.35 3.35 0 0 0 -3.54-3.1zm-9.86 8.76h-3.1v-5.66c0-.6.71-1.1 1.55-1.1s1.55.5 1.55 1.1zm-11.47 0h-3.09v-5.66c0-.6.71-1.1 1.54-1.1s1.55.5 1.55 1.1zm-11.45 0h-3.1v-5.66c0-.6.71-1.1 1.55-1.1s1.55.5 1.55 1.1zm-11.46 0h-3.09v-5.66c0-.6.71-1.1 1.55-1.1s1.54.5 1.54 1.1zm-11.46 0h-3.1v-5.66c0-.6.71-1.1 1.55-1.1s1.55.5 1.55 1.1zm-11.41 0h-3.1v-5.66c0-.6.71-1.1 1.55-1.1s1.55.5 1.55 1.1zm9.86-75c.36 1.79.7 3.48.79 3.9v19a1 1 0 0 0 -1.56 0v-19zm10.67 3.9.79-3.9c.36 1.79.71 3.48.79 3.9v19a1 1 0 0 0 -1.56 0zm11.46 0 .79-3.9.79 3.9v19a1 1 0 0 0 -1.56 0zm11.46 0c.08-.42.43-2.11.79-3.9l.79 3.9v19a1 1 0 0 0 -1.56 0v-19zm11.41-.1c.17-.63.42-1.75.84-3.81l.79 3.91v19a1 1 0 0 0 -1.56 0v-19.08zm5.57 33.83a6.65 6.65 0 0 0 -4.72-2 6.74 6.74 0 0 0 -4.74 2v-6.65l4.73-5.89 4.73 5.89zm-20.93 18.6v-13.79a4.74 4.74 0 1 1 9.47 0v13.79zm-11.44 0v-13.79a4.72 4.72 0 1 1 9.44 0v13.79zm-11.47 0v-13.79a4.74 4.74 0 1 1 9.47 0v13.79zm-3.94-39.84a2.94 2.94 0 0 1 5.88 0v9l-2.94 3.66-2.94-3.66zm11.46 0a2.94 2.94 0 1 1 5.88 0v9l-2.94 3.66-2.94-3.66zm11.46 0a2.94 2.94 0 0 1 5.88 0v9l-2.94 3.66-2.94-3.66zm11.46 0a2.94 2.94 0 1 1 5.88 0v9l-2.94 3.66-2.94-3.66zm1.94 14.59v6.67a6.72 6.72 0 0 0 -9.47 0v-6.65l4.74-5.91zm-11.47 0v6.69a6.69 6.69 0 0 0 -9.44 0v-6.71l4.72-5.87zm-11.44 0v6.65a6.72 6.72 0 0 0 -9.47 0v-6.65l4.73-5.89zm26.85-18.54a4.86 4.86 0 0 0 -5.88 0v-4.74h5.88zm-11.46 0a4.86 4.86 0 0 0 -5.88 0v-4.74h5.88zm-11.46 0a4.86 4.86 0 0 0 -5.88 0v-4.74h5.88zm-11.46 0a4.86 4.86 0 0 0 -5.88 0v-4.74h5.88zm-8.67 12.65 4.73 5.89v6.67a6.74 6.74 0 0 0 -4.74-2 6.65 6.65 0 0 0 -4.72 2v-6.67zm-4.73 17.35a4.73 4.73 0 1 1 9.46 0v13.79h-9.46zm66.76 13.79h-9.46v-13.79a4.73 4.73 0 1 1 9.46 0zm-19-52.62a1.49 1.49 0 0 0 0 .21v1.88h-5.86v-1.88a1.36 1.36 0 0 0 0-.2l-.57-2.83h7.06c-.32 1.49-.56 2.71-.59 2.82zm-49.8 52.62h-9.42v-13.79a4.73 4.73 0 1 1 9.46 0zm70.76-10.67h3.18v29.44h-3.18zm16.93 29.44v-15.41a1 1 0 0 0 -2 0v15.41h-1.93v-5.87a1 1 0 0 0 -2 0v5.87h-1.87v-5.87a1 1 0 0 0 -2 0v5.87h-1.92v-29.44h9.72v9a1 1 0 0 0 2 0v-9h3.17v29.44zm-11.72-44 4.86-5.92 4.86 5.91v12.57h-9.72zm1.64-31.56h6.43c.47 2.28.85 4.58 1.12 6.89h-8.66c.27-2.32.65-4.62 1.12-6.9zm11.66 11.45c.65 2.2 1.41 4.81 1.59 5.42v27.25h-3.17v-27.26zm-8.43-30.39 2.85 17h-5.71zm-8.45 30.38 1.59 5.42v5.66a1 1 0 0 0 2 0v-6.73c0-2.3.13-4.61.33-6.91h9c.21 2.3.34 4.61.34 6.91v12.61l-4.09-5a1 1 0 0 0 -.77-.37 1 1 0 0 0 -.78.37l-4.08 5v-1.34a1 1 0 0 0 -2 0v17h-3.18v-27.2c.23-.61 1-3.22 1.64-5.42zm-3.59 26.77a6.71 6.71 0 0 0 -9.46 0v-6.67l4.73-5.89 4.73 5.89zm-6.52-28.77.79 3.91v10.35l-1.58 2v-12.45a.57.57 0 0 0 0-.13c.2-.65.39-1.75.79-3.68zm-32.59-48.18.7 6.8h-1.4zm-1.16 8.8h2.32a13.57 13.57 0 0 0 3.17 4.39h-8.66a13.43 13.43 0 0 0 3.17-4.39zm-11.37 10.86c1.05-.88 2.23-1.74 3.37-2.58.84-.62 1.69-1.24 2.51-1.89h3.33c-.87 2.22-2.37 7-3 15.06a1 1 0 0 0 .91 1.08h.08a1 1 0 0 0 1-.91c.76-8.92 2.57-13.73 3.22-15.23h2.32a39.34 39.34 0 0 1 2.44 9 1 1 0 0 0 1 .83h.17a1 1 0 0 0 .75-1.22 44.29 44.29 0 0 0 -2.25-8.63h1.37a41 41 0 0 1 10.14 16.41 1 1 0 0 0 1 .7 1 1 0 0 0 .3 0 1 1 0 0 0 .65-1.25 42.1 42.1 0 0 0 -7.8-14.07l.22.17c1.14.84 2.32 1.7 3.37 2.58 6.08 5.1 8.64 9.07 9.38 14.6l-.78 3.83h-7.92l-.81-4a1 1 0 0 0 -2 0c-.33 1.62-.59 2.93-.81 4h-3a99.38 99.38 0 0 0 -.57-10.1 1 1 0 0 0 -1.1-.88 1 1 0 0 0 -.89 1.1 95.07 95.07 0 0 1 .56 9.88h-2.84l-.81-4a1 1 0 0 0 -1-.81 1 1 0 0 0 -1 .8l-.81 4h-2.89c0-1.28 0-2.55.09-3.76a1 1 0 0 0 -.95-1 1 1 0 0 0 -1.05.95c0 1.25-.08 2.54-.09 3.85h-3c-.22-1.08-.48-2.39-.81-4a1 1 0 0 0 -1-.8 1 1 0 0 0 -1 .8l-.81 4h-3.12a34.75 34.75 0 0 1 5.84-16 1 1 0 1 0 -1.67-1.09 36.22 36.22 0 0 0 -6.18 17.06h-2.66l-.78-3.83c.74-5.58 3.3-9.51 9.38-14.65zm-20.06 28.53c.36 1.79.7 3.48.79 3.9v12.32l-1.58-2v-10.32zm-1.79 16.2 4.73 5.89v6.67a6.74 6.74 0 0 0 -4.74-2 6.65 6.65 0 0 0 -4.72 2v-6.67zm-8.32-14.21c.88 3 1.33 4.51 1.61 5.28v27.4h-3.2v-27.25zm-8.45-30.38 2.86 17h-5.71zm-8.44 30.38 1.59 5.42v27.26h-3.18v-27.4c.25-.77.7-2.27 1.59-5.28z" fill="#000000" style="fill: rgb(237, 177, 118);"></path><path d="m39.17 85.23a1 1 0 0 0 1-1v-3.1a1 1 0 0 0 -2 0v3.1a1 1 0 0 0 1 1z" fill="#000000" style="fill: rgb(237, 177, 118);"></path><path d="m43 85.23a1 1 0 0 0 1-1v-3.1a1 1 0 0 0 -2 0v3.1a1 1 0 0 0 1 1z" fill="#000000" style="fill: rgb(237, 177, 118);"></path><path d="m50.63 80.13a1 1 0 0 0 -1 1v3.1a1 1 0 0 0 2 0v-3.1a1 1 0 0 0 -1-1z" fill="#000000" style="fill: rgb(237, 177, 118);"></path><path d="m54.46 85.23a1 1 0 0 0 1-1v-3.1a1 1 0 0 0 -2 0v3.1a1 1 0 0 0 1 1z" fill="#000000" style="fill: rgb(237, 177, 118);"></path><path d="m62.19 80.13a1 1 0 0 0 -1 1v3.1a1 1 0 1 0 2 0v-3.1a1 1 0 0 0 -1-1z" fill="#000000" style="fill: rgb(237, 177, 118);"></path><path d="m27.71 85.23a1 1 0 0 0 1-1v-3.1a1 1 0 0 0 -2 0v3.1a1 1 0 0 0 1 1z" fill="#000000" style="fill: rgb(237, 177, 118);"></path><path d="m31.53 85.23a1 1 0 0 0 1-1v-3.1a1 1 0 0 0 -2 0v3.1a1 1 0 0 0 1 1z" fill="#000000" style="fill: rgb(237, 177, 118);"></path><path d="m47.44 111.83h-4.57a1 1 0 1 0 0 2h4.57a1 1 0 0 0 0-2z" fill="#000000" style="fill: rgb(237, 177, 118);"></path></svg>