<!-- icon666.com - MILLIONS vector ICONS FREE --><svg id="Capa_1" enable-background="new 0 0 512 512" viewBox="0 0 512 512" xmlns="http://www.w3.org/2000/svg"><g><path d="m233.269 179.042c-2.119-8.009-10.33-12.783-18.338-10.664s-12.783 10.329-10.664 18.338c2.07 7.823 3.593 16.439 4.792 27.117.925 8.232 8.349 14.157 16.581 13.231 8.232-.925 14.156-8.348 13.231-16.581-1.367-12.172-3.147-22.163-5.602-31.441z" fill="#000000" style="fill: rgb(237, 177, 118);"></path><path d="m204.216 120.41c-7.019-8.36-16.438-15.32-28.795-21.279-7.461-3.598-16.428-.466-20.026 6.996s-.466 16.428 6.996 20.026c8.453 4.076 14.619 8.507 18.85 13.547 5.342 6.364 14.807 7.154 21.133 1.843 6.344-5.327 7.169-14.788 1.842-21.133z" fill="#000000" style="fill: rgb(237, 177, 118);"></path><path d="m103.868 103.775c-10.798 7.162-18.802 16.801-24.568 24.398-5.009 6.599-3.72 16.008 2.879 21.017 6.57 4.987 15.986 3.749 21.017-2.879 4.335-5.711 10.214-12.866 17.255-17.536 6.904-4.579 8.789-13.888 4.209-20.791-4.581-6.905-13.891-8.788-20.792-4.209z" fill="#000000" style="fill: rgb(237, 177, 118);"></path><path d="m68.85 175.69c-7.713-3.022-16.416.781-19.438 8.494-3.84 9.8-7.327 19.503-10.365 28.838-2.563 7.878 1.745 16.342 9.623 18.905 7.909 2.573 16.352-1.776 18.905-9.623 2.856-8.778 6.143-17.921 9.77-27.175 3.021-7.713-.782-16.416-8.495-19.439z" fill="#000000" style="fill: rgb(237, 177, 118);"></path><path d="m40.674 260.376c-8.095-1.766-16.087 3.361-17.854 11.455l-6.349 29.08c-1.767 8.094 3.361 16.087 11.455 17.854 8.144 1.777 16.098-3.411 17.854-11.455l6.349-29.08c1.767-8.093-3.361-16.087-11.455-17.854z" fill="#000000" style="fill: rgb(237, 177, 118);"></path><path d="m21.134 347.874c-8.204-1.136-15.779 4.597-16.913 12.804l-4.078 29.484c-1.135 8.206 4.597 15.779 12.803 16.914 8.205 1.135 15.779-4.597 16.914-12.804l4.078-29.484c1.135-8.207-4.597-15.779-12.804-16.914z" fill="#000000" style="fill: rgb(237, 177, 118);"></path><path d="m497 482h-47v-32.574c0-25.521-8.086-49.798-23.047-69.907 10.65-9.547 23.047-25.41 23.047-47.519 0-21.252-11.455-36.732-21.801-46.38l65.176-60.167c11.836-11.273 18.625-27.111 18.625-43.453 0-25.189-15.909-47.868-39.586-56.434l-54.229-18.895c1.2-4.77 1.815-9.695 1.815-14.672v-31.999c0-33.084-26.916-60-60-60s-60 26.916-60 60v32c0 18.953 8.668 36.108 22.847 47.206-24.924 29.835-41.963 65.955-49.069 104.211-19.403 4.997-33.778 22.642-33.778 43.583 0 24.813 20.187 45 45 45h15.354c1.578 33.385 8.435 65.93 20.458 97.109-12.56 8.1-20.812 22.262-20.812 37.891v15h-45c-8.284 0-15 6.716-15 15s6.716 15 15 15h242c8.284 0 15-6.716 15-15s-6.716-15-15-15zm-142.834-50.73c-16.036-36.217-24.166-74.663-24.166-114.27 0-8.284-6.716-15-15-15h-30c-8.271 0-15-6.729-15-15s6.729-15 15-15h1.806c7.528 0 13.89-5.58 14.872-13.044 5.608-42.637 25.446-82.866 55.857-113.278 3.728-3.728 5.225-9.139 3.944-14.253-1.282-5.114-5.154-9.18-10.199-10.709-12.53-3.796-21.28-15.605-21.28-28.716v-32c0-16.542 13.458-30 30-30s30 13.458 30 30v32c0 5.54-1.517 10.946-4.388 15.634-2.354 3.844-2.854 8.542-1.364 12.795 1.491 4.253 4.815 7.611 9.053 9.144l68.906 24.205c11.839 4.282 19.793 15.624 19.793 28.222 0 8.291-3.308 16.008-9.315 21.729l-73.685 68.271h-24c-8.271 0-15-6.729-15-15s6.729-15 15-15c3.978 0 7.793-1.58 10.606-4.393l44.382-44.382c5.858-5.858 5.858-15.355 0-21.213-5.857-5.858-15.355-5.858-21.213 0l-40.488 40.488c-21.641 3.25-38.287 21.968-38.287 44.5 0 24.813 20.187 45 45 45h25.776c5.941 4.003 19.224 14.668 19.224 30 0 19.648-21.815 31.634-21.959 31.712-4.228 2.214-7.149 6.307-7.869 11.024-.72 4.718.847 9.496 4.222 12.87 16.512 16.513 25.606 38.468 25.606 61.82v32.574h-90v-15c0-7.351 5.462-13.726 12.707-14.828 4.621-.703 8.649-3.52 10.896-7.618s2.455-9.01.563-13.284z" fill="#000000" style="fill: rgb(237, 177, 118);"></path></g></svg>