<!-- icon666.com - MILLIONS vector ICONS FREE --><svg id="Layer_3" viewBox="0 0 64 64" xmlns="http://www.w3.org/2000/svg" data-name="Layer 3"><g fill="#f0afae"><path d="m35 2 6 3-6 3" fill="#f0afae" style="fill: rgb(237, 177, 118);"></path><path d="m7 51 6 3-6 3" fill="#f0afae" style="fill: rgb(237, 177, 118);"></path><path d="m28.586 27a3.415 3.415 0 0 0 2.414-1 3.415 3.415 0 0 1 2.414-1h1.247a7.725 7.725 0 0 1 4.285 1.3 4.183 4.183 0 0 0 5.28-.523l.574-.577-9.8-11.2-10.233 11.7a6.236 6.236 0 0 0 3.819 1.3z" fill="#f0afae" style="fill: rgb(237, 177, 118);"></path><path d="m46.586 17a3.415 3.415 0 0 0 2.414-1 3.415 3.415 0 0 1 2.414-1h1.186l-5.6-7-5.053 7.79a6.833 6.833 0 0 0 3.881 1.21z" fill="#f0afae" style="fill: rgb(237, 177, 118);"></path><path d="m4.578 29.789a11.459 11.459 0 0 0 5.129 1.211 7.577 7.577 0 0 0 4.2-1.272 7.564 7.564 0 0 1 2.365-1.046l1.042-.261-5.303-5.421-7.46 6.775z" fill="#f0afae" style="fill: rgb(237, 177, 118);"></path></g><path d="m60.862 23.727-13.081-16.352a1 1 0 0 0 -1.62.081l-6.624 10.211-3.537-4.043v-5.006l5.447-2.718a1 1 0 0 0 0-1.79l-6-3a1 1 0 0 0 -1.447.89v11.624l-14.051 16.059-7.223-7.383a1 1 0 0 0 -1.387-.041l-11.011 10.001 1.344 1.48 3.075-2.792a12.529 12.529 0 0 0 4.96 1.052 8.55 8.55 0 0 0 4.756-1.44 6.546 6.546 0 0 1 2.052-.908l.485-.122 1.626 1.662-10.626 12.144-7.348 2.726.7 1.876 62-23-.7-1.876zm-24.862-20.109 2.764 1.382-2.764 1.382zm-22.646 25.282a7.964 7.964 0 0 1 -6.96.556l5.576-5.064 3.43 3.508a8.549 8.549 0 0 0 -2.046 1zm33.731-19.193 3.5 4.374a4.369 4.369 0 0 0 -2.291 1.212 2.432 2.432 0 0 1 -1.708.707h-.757a5.789 5.789 0 0 1 -2.467-.554zm-4.817 7.426a7.79 7.79 0 0 0 3.561.867h.757a4.382 4.382 0 0 0 3.121-1.293 2.432 2.432 0 0 1 1.707-.707h.7l6.768 8.459-10.116 3.755-7.86-8.982zm1.156 8.013a3.266 3.266 0 0 1 -3.924.319 8.7 8.7 0 0 0 -4.839-1.465h-1.247a4.382 4.382 0 0 0 -3.121 1.293 2.432 2.432 0 0 1 -1.707.707 5.256 5.256 0 0 1 -2.285-.54l8.699-9.941zm-18.473 1.854a7.277 7.277 0 0 0 3.635 1 4.382 4.382 0 0 0 3.121-1.293 2.432 2.432 0 0 1 1.707-.707h1.247a6.712 6.712 0 0 1 3.731 1.129 5.142 5.142 0 0 0 6.343-.485l2.025 2.314-34.823 12.918z" fill="#ae414c" style="fill: rgb(237, 177, 118);"></path><path d="m41.343 51.5h19.313v2h-19.313z" fill="#ae414c" transform="matrix(.932 -.362 .362 .932 -15.561 22.055)" style="fill: rgb(237, 177, 118);"></path><path d="m34.23 34h21.541v2.001h-21.541z" fill="#ae414c" transform="matrix(.928 -.371 .371 .928 -9.78 19.216)" style="fill: rgb(237, 177, 118);"></path><path d="m20.295 45h23.409v2h-23.409z" fill="#ae414c" transform="matrix(.94 -.342 .342 .94 -13.794 13.705)" style="fill: rgb(237, 177, 118);"></path><path d="m13.447 54.9a1 1 0 0 0 0-1.79l-6-3a1 1 0 0 0 -1.447.89v12h2v-5.382zm-5.447-2.282 2.764 1.382-2.764 1.382z" fill="#ae414c" style="fill: rgb(237, 177, 118);"></path></svg>