<!-- icon666.com - MILLIONS vector ICONS FREE --><svg version="1.1" id="Capa_1" xmlns="http://www.w3.org/2000/svg" xmlns:xlink="http://www.w3.org/1999/xlink" x="0px" y="0px" viewBox="0 0 512 512" style="enable-background:new 0 0 512 512;" xml:space="preserve"><g><g><path d="M121.004,147.38v29.999h29.999C151.003,160.837,137.545,147.38,121.004,147.38z" fill="#000000" style="fill: rgb(237, 177, 118);"></path></g></g><g><g><path d="M360.997,177.379h29.999V147.38C374.455,147.38,360.997,160.837,360.997,177.379z" fill="#000000" style="fill: rgb(237, 177, 118);"></path></g></g><g><g><path d="M123.584,207.378c6.192,17.458,22.864,29.999,42.419,29.999h44.999v-29.999H123.584z" fill="#000000" style="fill: rgb(237, 177, 118);"></path></g></g><g><g><path d="M300.999,207.378v29.999h44.999c19.554,0,36.227-12.541,42.419-29.999H300.999z" fill="#000000" style="fill: rgb(237, 177, 118);"></path></g></g><g><g><path d="M241,89.961v177.415c0,8.271,6.729,15,15,15c8.271,0,15-6.729,15-15V132.38C271,112.827,258.458,96.154,241,89.961z" fill="#000000" style="fill: rgb(237, 177, 118);"></path></g></g><g><g><path d="M31.007,0v386.989c0,41.354,33.644,74.998,74.998,74.998h58.998c30.528,0,59.55,13.402,79.624,36.769L256.004,512 l11.378-13.245c20.073-23.367,49.096-36.769,79.624-36.769h58.99c41.354,0,74.998-33.644,74.998-74.998V0H31.007z M420.995,327.374h-29.999v-75.039c-8.725,6.565-18.921,11.274-29.999,13.532v61.507h-29.999v-59.998h-29.999v134.612H271v-92.193 c-4.695,1.665-9.741,2.58-15,2.58c-5.259,0-10.305-0.915-15-2.58v92.193h-29.999V267.376h-29.999v59.998h-29.999v-61.507 c-11.078-2.258-21.274-6.967-29.999-13.532v75.039H91.005V117.381h29.999c33.083,0,59.998,26.915,59.998,59.998h29.999V87.381 h-29.999V57.382h44.999c41.354,0,74.998,33.644,74.998,74.998v44.999h29.999c0-33.083,26.915-59.998,59.998-59.998h29.999V327.374 z" fill="#000000" style="fill: rgb(237, 177, 118);"></path></g></g></svg>