<!-- icon666.com - MILLIONS vector ICONS FREE --><svg version="1.1" id="Capa_1" xmlns="http://www.w3.org/2000/svg" xmlns:xlink="http://www.w3.org/1999/xlink" x="0px" y="0px" viewBox="0 0 512 512" style="enable-background:new 0 0 512 512;" xml:space="preserve"><g><g><path d="M31.007,0v386.989c0,41.354,33.644,74.998,74.998,74.998h58.998c30.528,0,59.55,13.402,79.624,36.769L256.004,512 l11.378-13.245c20.073-23.367,49.096-36.769,79.624-36.769h58.99c41.354,0,74.998-33.644,74.998-74.998V0H31.007z M450.994,386.989c0,24.812-20.186,44.999-44.999,44.999h-58.99c-33.829,0-66.201,12.766-91.001,35.474 c-24.8-22.708-57.172-35.474-91.001-35.474h-58.998c-24.812,0-44.999-20.186-44.999-44.999V29.999h389.989V386.989z" fill="#000000" style="fill: rgb(237, 177, 118);"></path></g></g><g><g><path d="M390.996,117.381c-33.083,0-59.998,26.915-59.998,59.998h-29.999V132.38c0-41.354-33.644-74.998-74.998-74.998h-44.999 v29.999h29.999v89.997h-29.999c0-33.083-26.915-59.998-59.998-59.998H91.005v209.994h29.999v-75.039 c8.725,6.565,18.921,11.274,29.999,13.532v61.507h29.999v-59.998h29.999v134.612H241v-92.193c4.695,1.665,9.741,2.58,15,2.58 c5.259,0,10.305-0.915,15-2.58v92.193h29.999V267.376h29.999v59.998h29.999v-61.507c11.078-2.258,21.274-6.967,29.999-13.532 v75.039h29.999V117.381H390.996z M121.004,147.38c16.541,0,29.999,13.458,29.999,29.999h-29.999V147.38z M211.001,237.377h-44.999 c-19.554,0-36.227-12.541-42.419-29.999h87.417V237.377z M271,267.376c0,8.271-6.729,15-15,15c-8.271,0-15-6.729-15-15V89.961 C258.458,96.154,271,112.827,271,132.38V267.376z M345.996,237.377h-44.999v-29.999h87.417 C382.223,224.836,365.551,237.377,345.996,237.377z M390.996,177.379h-29.999c0-16.542,13.458-29.999,29.999-29.999V177.379z" fill="#000000" style="fill: rgb(237, 177, 118);"></path></g></g></svg>