<!-- icon666.com - MILLIONS vector ICONS FREE --><svg xmlns="http://www.w3.org/2000/svg" id="icons" viewBox="0 0 60 60"><path d="M7.047,18.732l-1.21,1.821A1,1,0,0,1,5,21H2v2.18l4.2.84A1,1,0,0,1,7,25v3.52a12.317,12.317,0,0,1-2.36,7.3,13.871,13.871,0,0,0-2.622,9A14.231,14.231,0,0,0,16.412,58h27.4a14.4,14.4,0,0,0,10.177-4.279A13.649,13.649,0,0,0,58,43.9a24.469,24.469,0,0,0-3.062-11.673C53.9,30.113,53,28.285,53,26a4,4,0,0,1,4-4,1,1,0,0,0,.852-.477,1.049,1.049,0,0,0,.012-1.058A.964.964,0,0,0,56.945,20a1.02,1.02,0,0,1-.123.01A7.031,7.031,0,0,0,50,27V38.264A6.995,6.995,0,1,1,39.08,45H36.92a6.991,6.991,0,0,1-13.84,0H20.92A7,7,0,1,1,10,38.262V20a1.023,1.023,0,0,1,.051-.315L10.612,18H8.423A1.645,1.645,0,0,0,7.047,18.732ZM18,53H42a1,1,0,0,1,0,2H18a1,1,0,0,1,0-2Z" fill="#000000" style="fill: rgb(237, 177, 118);"></path><path d="M26.84,6A70.916,70.916,0,0,0,26,17a70.916,70.916,0,0,0,.84,11h6.973A72.642,72.642,0,0,1,33,17a72.642,72.642,0,0,1,.813-11Z" fill="#000000" style="fill: rgb(237, 177, 118);"></path><path d="M35.84,6A70.916,70.916,0,0,0,35,17a70.916,70.916,0,0,0,.84,11h5.973A72.642,72.642,0,0,1,41,17a72.642,72.642,0,0,1,.813-11Z" fill="#000000" style="fill: rgb(237, 177, 118);"></path><path d="M30,37a6.956,6.956,0,0,1,2,.3V34H28v3.3A6.956,6.956,0,0,1,30,37Z" fill="#000000" style="fill: rgb(237, 177, 118);"></path><path d="M17.84,6A70.916,70.916,0,0,0,17,17a70.916,70.916,0,0,0,.84,11h6.973A72.642,72.642,0,0,1,24,17a72.642,72.642,0,0,1,.813-11Z" fill="#000000" style="fill: rgb(237, 177, 118);"></path><path d="M9,44a5,5,0,1,0,5-5A5.006,5.006,0,0,0,9,44Zm5-3a3,3,0,1,1-3,3A3,3,0,0,1,14,41Z" fill="#000000" style="fill: rgb(237, 177, 118);"></path><circle cx="30" cy="44" r="1" fill="#000000" style="fill: rgb(237, 177, 118);"></circle><path d="M16,31a1,1,0,0,0,1,1H43a1,1,0,0,0,0-2H17A1,1,0,0,0,16,31Z" fill="#000000" style="fill: rgb(237, 177, 118);"></path><path d="M43,2H17a1,1,0,0,0,0,2H43a1,1,0,0,0,0-2Z" fill="#000000" style="fill: rgb(237, 177, 118);"></path><path d="M46,49a5,5,0,1,0-5-5A5.006,5.006,0,0,0,46,49Zm0-8a3,3,0,1,1-3,3A3,3,0,0,1,46,41Z" fill="#000000" style="fill: rgb(237, 177, 118);"></path><path d="M30,49a5,5,0,1,0-5-5A5.006,5.006,0,0,0,30,49Zm0-8a3,3,0,1,1-3,3A3,3,0,0,1,30,41Z" fill="#000000" style="fill: rgb(237, 177, 118);"></path><circle cx="46" cy="44" r="1" fill="#000000" style="fill: rgb(237, 177, 118);"></circle><circle cx="14" cy="44" r="1" fill="#000000" style="fill: rgb(237, 177, 118);"></circle></svg>