<!-- icon666.com - MILLIONS vector ICONS FREE --><svg xmlns="http://www.w3.org/2000/svg" version="1.1" viewBox="-73 1 884 884.99935"><g id="surface1"><path d="M 354.492188 663.761719 L 383.984375 663.761719 L 383.984375 708.011719 L 354.492188 708.011719 Z M 354.492188 663.761719 " style="stroke: none; fill-rule: nonzero; fill-opacity: 1; fill: rgb(237, 177, 118);" fill="rgb(0%,0%,0%)"></path><path d="M 354.492188 575.269531 L 383.984375 575.269531 L 383.984375 619.519531 L 354.492188 619.519531 Z M 354.492188 575.269531 " style="stroke: none; fill-rule: nonzero; fill-opacity: 1; fill: rgb(237, 177, 118);" fill="rgb(0%,0%,0%)"></path><path d="M 347.382812 256.421875 C 353.207031 250.734375 353.3125 241.390625 347.613281 235.5625 C 347.535156 235.484375 347.460938 235.410156 347.382812 235.332031 L 111.394531 4.261719 C 105.660156 -1.355469 96.480469 -1.355469 90.75 4.261719 L 4.933594 88.285156 C -0.886719 93.976562 -0.992188 103.320312 4.707031 109.148438 C 4.785156 109.226562 4.859375 109.296875 4.933594 109.375 L 240.921875 340.4375 C 246.660156 346.054688 255.839844 346.054688 261.574219 340.4375 L 294.152344 308.53125 L 304.476562 318.574219 C 292.867188 331.761719 284.300781 347.339844 279.40625 364.210938 L 276.144531 375.597656 L 272.339844 371.867188 C 266.605469 366.246094 257.429688 366.246094 251.695312 371.867188 L 15.703125 602.9375 C 9.878906 608.628906 9.777344 617.972656 15.472656 623.789062 C 15.550781 623.867188 15.628906 623.953125 15.703125 624.03125 L 101.480469 708.011719 C 107.214844 713.632812 116.394531 713.632812 122.132812 708.011719 L 233.90625 598.558594 L 192.695312 763.4375 C 190.71875 771.335938 195.527344 779.347656 203.4375 781.316406 C 204.597656 781.609375 205.796875 781.757812 207.003906 781.757812 L 221.75 781.757812 L 221.75 855.496094 L 192.25 855.496094 L 192.25 885 L 546.226562 885 L 546.226562 855.496094 L 516.730469 855.496094 L 516.730469 781.757812 L 531.480469 781.757812 C 539.625 781.75 546.226562 775.148438 546.222656 767.003906 C 546.222656 765.796875 546.078125 764.605469 545.785156 763.4375 L 504.59375 598.597656 L 627.078125 718.558594 C 632.816406 724.179688 642 724.179688 647.730469 718.558594 L 733.554688 634.484375 C 739.375 628.789062 739.484375 619.449219 733.792969 613.628906 C 733.710938 613.550781 733.632812 613.46875 733.554688 613.394531 L 497.570312 382.335938 C 491.835938 376.71875 482.660156 376.71875 476.925781 382.335938 L 467.085938 391.972656 L 459.136719 364.167969 C 454.238281 347.339844 445.699219 331.792969 434.140625 318.636719 L 444.457031 308.597656 L 476.90625 340.4375 C 482.644531 346.054688 491.820312 346.054688 497.554688 340.4375 L 733.542969 109.375 C 739.367188 103.679688 739.46875 94.34375 733.773438 88.519531 C 733.695312 88.4375 733.613281 88.359375 733.542969 88.285156 L 647.71875 4.21875 C 641.980469 -1.40625 632.804688 -1.40625 627.070312 4.21875 L 391.082031 235.289062 C 385.257812 240.980469 385.15625 250.324219 390.851562 256.144531 C 390.925781 256.226562 391.003906 256.304688 391.082031 256.378906 L 423.222656 287.835938 L 412.070312 298.769531 C 400.195312 290.402344 386.882812 284.273438 372.804688 280.6875 C 370.457031 280.082031 367.992188 280.082031 365.640625 280.6875 C 351.585938 284.296875 338.3125 290.4375 326.46875 298.8125 L 315.316406 287.886719 Z M 487.234375 309.257812 L 465.402344 287.882812 L 680.308594 77.460938 L 702.136719 98.878906 Z M 422.5 245.832031 L 637.40625 35.449219 L 659.222656 56.828125 L 444.324219 267.25 Z M 307.71875 372.261719 C 311.257812 360.144531 317.3125 348.910156 325.480469 339.28125 L 348.148438 361.402344 L 310.492188 398.277344 L 300.296875 398.277344 Z M 369.238281 382.054688 L 385.804688 398.28125 L 352.679688 398.28125 Z M 261.988281 403.046875 L 273.117188 413.960938 L 282.886719 423.527344 L 283.738281 424.375 L 68.894531 634.855469 L 47.074219 613.480469 Z M 111.796875 676.875 L 89.980469 655.503906 L 304.875 445.082031 L 326.703125 466.433594 L 250.539062 541.003906 Z M 487.234375 855.496094 L 398.742188 855.496094 L 398.742188 811.25 L 339.738281 811.25 L 339.738281 855.496094 L 251.25 855.496094 L 251.25 781.757812 L 487.234375 781.757812 Z M 512.585938 752.253906 L 225.894531 752.253906 L 274.15625 559.195312 L 358.101562 476.980469 C 363.925781 471.285156 364.035156 461.949219 358.339844 456.125 C 358.257812 456.046875 358.179688 455.96875 358.101562 455.886719 L 329.414062 427.773438 L 415.949219 427.773438 L 423.324219 434.933594 L 391.1875 466.394531 C 385.359375 472.085938 385.257812 481.425781 390.953125 487.246094 C 391.027344 487.332031 391.105469 487.402344 391.1875 487.480469 L 464.417969 559.195312 Z M 637.40625 687.363281 L 487.984375 541.046875 L 422.542969 476.980469 L 444.371094 455.628906 L 659.261719 666.050781 Z M 487.234375 413.558594 L 702.136719 623.9375 L 680.308594 645.316406 L 465.402344 434.933594 Z M 430.761719 372.261719 L 438.128906 398.234375 L 427.941406 398.234375 L 390.335938 361.402344 L 413 339.28125 C 421.171875 348.921875 427.222656 360.171875 430.761719 372.304688 Z M 369.238281 310.316406 C 376.75 312.550781 383.9375 315.738281 390.628906 319.816406 L 369.632812 340.367188 L 369.238281 340.761719 L 347.851562 319.816406 C 354.542969 315.738281 361.730469 312.550781 369.238281 310.316406 Z M 101.078125 35.449219 L 315.984375 245.878906 L 294.152344 267.25 L 79.253906 56.808594 Z M 251.25 309.257812 L 36.34375 98.878906 L 58.164062 77.503906 L 273.078125 287.882812 Z M 251.25 309.257812 " style="stroke: none; fill-rule: nonzero; fill-opacity: 1; fill: rgb(237, 177, 118);" fill="rgb(0%,0%,0%)"></path></g></svg>