<?xml version="1.0" standalone="no"?>
<!DOCTYPE svg PUBLIC "-//W3C//DTD SVG 20010904//EN"
 "http://www.w3.org/TR/2001/REC-SVG-20010904/DTD/svg10.dtd">
<svg version="1.0" xmlns="http://www.w3.org/2000/svg"
 width="1280.000000pt" height="1051.000000pt" viewBox="0 0 1280.000000 1051.000000"
 preserveAspectRatio="xMidYMid meet">
<metadata>
Created by potrace 1.15, written by Peter Selinger 2001-2017
</metadata>
<g transform="translate(0.000000,1051.000000) scale(0.100000,-0.100000)"
fill="#edb176" stroke="none">
<path d="M7045 10499 c-147 -19 -272 -71 -384 -162 l-54 -44 -76 24 c-94 31
-235 41 -323 24 -105 -21 -269 -78 -337 -118 -71 -42 -193 -158 -212 -203 -10
-22 -17 -26 -26 -18 -7 5 -59 12 -115 15 -135 7 -232 -16 -385 -93 -127 -64
-207 -124 -274 -208 -47 -57 -112 -169 -104 -177 2 -3 -14 -3 -36 -1 -49 5
-155 -13 -238 -40 -87 -28 -228 -125 -332 -228 -90 -89 -136 -165 -174 -291
l-17 -55 -70 -18 c-158 -41 -286 -130 -415 -290 -108 -133 -162 -266 -166
-403 -2 -45 -6 -63 -16 -63 -39 0 -162 -80 -237 -155 -91 -90 -177 -229 -221
-357 -28 -83 -43 -267 -25 -329 9 -34 8 -37 -22 -54 -55 -33 -138 -118 -186
-192 -72 -108 -130 -295 -137 -434 -6 -108 10 -216 43 -294 11 -27 11 -34 0
-38 -20 -8 -104 -124 -136 -188 -53 -104 -87 -304 -77 -452 6 -96 45 -223 93
-303 18 -30 29 -54 25 -54 -13 0 -77 -127 -100 -198 -28 -87 -35 -187 -22
-318 14 -134 32 -209 72 -287 30 -60 94 -152 121 -175 14 -11 13 -19 -8 -70
-54 -136 -56 -294 -5 -470 37 -128 75 -210 134 -287 45 -60 150 -152 167 -148
5 2 5 -10 -1 -25 -19 -50 -22 -201 -5 -282 19 -92 125 -309 191 -392 53 -66
158 -148 231 -180 l51 -23 6 -86 c7 -99 40 -204 87 -280 84 -137 225 -283 325
-336 68 -36 179 -75 212 -75 13 0 21 -4 18 -8 -10 -15 27 -126 68 -204 29 -56
63 -103 112 -151 176 -176 331 -257 517 -272 l76 -6 18 -38 c70 -155 197 -275
404 -379 115 -58 258 -84 388 -71 l74 7 28 -41 c37 -54 148 -157 204 -190 59
-35 152 -70 261 -100 117 -32 256 -34 371 -5 43 11 80 24 82 28 1 5 25 -13 53
-38 149 -137 344 -198 598 -188 125 6 212 30 316 88 l50 28 35 -24 c59 -41
172 -82 262 -95 166 -24 401 13 528 83 58 33 170 116 170 128 0 3 32 -4 71
-17 126 -43 260 -47 389 -14 241 63 375 139 482 274 29 38 36 52 26 58 -10 7
-9 9 4 9 9 0 18 -4 20 -10 2 -5 41 -12 88 -16 132 -10 226 12 385 91 191 95
287 182 357 326 l33 68 57 0 c174 2 319 69 511 234 102 87 195 243 213 355 3
23 10 40 14 37 15 -9 157 37 220 72 36 19 87 54 114 77 67 55 196 212 234 284
40 75 73 196 75 275 1 41 6 64 14 64 6 0 42 15 80 34 93 47 214 167 278 277
62 108 112 224 126 293 20 103 11 288 -13 273 -6 -4 -9 -1 -6 7 3 8 12 13 21
11 25 -4 168 143 212 218 39 67 93 219 116 325 20 95 16 227 -10 323 -13 45
-27 85 -32 88 -5 2 20 42 54 87 110 145 145 251 154 462 5 123 3 149 -16 218
-18 65 -61 168 -78 187 -2 2 -8 -2 -14 -10 -8 -13 -10 -13 -19 0 -12 19 -12
22 1 40 8 11 12 12 16 3 2 -7 8 -13 12 -13 14 0 58 93 83 170 20 65 23 94 22
220 -1 91 -7 173 -18 220 -19 90 -79 215 -139 289 l-44 54 24 76 c36 114 48
215 35 302 -17 112 -65 268 -108 350 -37 69 -145 194 -201 230 -20 14 -20 18
-11 69 15 80 4 242 -22 320 -27 81 -109 238 -161 307 -51 68 -138 140 -221
183 l-65 34 -7 81 c-11 154 -68 283 -190 428 -87 105 -154 162 -239 204 -70
35 -188 76 -195 68 -3 -3 -14 27 -24 66 -39 155 -109 258 -260 384 -154 127
-291 186 -440 189 -36 0 -66 3 -65 6 1 3 -5 21 -12 40 -26 63 -100 167 -160
222 -89 83 -269 183 -384 214 -69 19 -211 27 -267 17 l-45 -9 -47 62 c-96 126
-197 193 -393 259 -146 50 -286 59 -415 26 -46 -12 -88 -25 -93 -30 -6 -6 -21
4 -39 25 -40 46 -164 127 -231 153 -143 53 -400 72 -525 38 -68 -18 -212 -85
-212 -98 0 -4 -22 7 -50 26 -132 89 -311 121 -525 94z m254 -383 l31 -17 -87
-104 c-53 -64 -91 -101 -97 -96 -6 4 -57 41 -114 81 -57 40 -101 78 -99 84 7
20 70 50 131 63 76 15 194 10 235 -11z m871 -12 c31 -9 69 -26 84 -38 l28 -21
-88 -70 c-48 -39 -96 -76 -106 -83 -18 -13 -26 -7 -96 68 -42 46 -85 93 -95
106 l-19 24 34 15 c45 19 187 19 258 -1z m-1795 -144 c7 -11 -114 -242 -124
-238 -82 33 -251 115 -251 121 0 27 104 89 190 113 54 15 176 18 185 4z m2645
-46 c30 -9 73 -26 95 -39 40 -23 92 -72 84 -79 -6 -5 -228 -116 -233 -116 -11
0 -146 233 -139 240 22 22 99 19 193 -6z m-1254 -279 c-1 -5 -18 -19 -37 -30
-46 -27 -198 -29 -244 -3 -65 37 -67 30 30 128 l90 91 82 -88 c45 -49 81 -92
79 -98z m-943 25 c83 -59 87 -64 74 -84 -24 -35 -104 -68 -178 -74 -65 -4
-139 10 -139 29 0 4 29 54 65 110 47 72 69 98 78 92 7 -6 52 -38 100 -73z
m1737 -52 c51 -84 59 -103 48 -114 -21 -21 -98 -28 -161 -14 -59 12 -152 66
-152 87 0 11 179 141 197 142 4 1 34 -45 68 -101z m-3073 20 c-2 -7 -21 -66
-41 -130 -20 -65 -41 -118 -47 -118 -5 0 -66 14 -134 31 -93 23 -125 35 -125
47 0 40 135 136 235 168 54 17 119 18 112 2z m4400 -92 c67 -32 173 -120 173
-144 0 -12 -251 -85 -260 -75 -11 12 -90 232 -90 250 0 25 92 9 177 -31z
m-3911 -108 c52 -23 94 -47 94 -54 0 -25 -53 -74 -112 -103 -50 -26 -73 -31
-130 -31 -38 0 -68 4 -68 10 0 9 77 207 87 223 6 10 7 10 129 -45z m3416 -113
c25 -70 35 -112 29 -118 -15 -15 -100 -9 -155 10 -49 17 -146 97 -146 120 0
11 209 104 224 99 5 -1 27 -51 48 -111z m-2150 12 c90 -68 240 -117 363 -117
118 0 274 50 359 115 l34 26 64 -63 c141 -139 329 -205 509 -178 80 11 182 41
204 60 10 8 22 -4 49 -48 97 -160 260 -266 451 -294 79 -11 193 -3 247 17 11
5 20 -8 36 -53 47 -127 145 -244 264 -315 91 -54 176 -78 296 -84 l102 -6 0
-31 c0 -141 143 -360 291 -449 67 -40 201 -87 247 -87 l27 0 1 -88 c0 -108 16
-176 62 -272 51 -105 168 -222 272 -273 41 -20 83 -38 92 -41 15 -4 15 -9 1
-53 -9 -29 -15 -91 -16 -158 -1 -97 3 -120 28 -194 15 -45 45 -108 65 -140 45
-68 130 -153 187 -188 l43 -25 -25 -49 c-33 -63 -65 -199 -65 -271 0 -75 25
-190 55 -257 33 -70 107 -174 145 -201 l29 -21 -36 -47 c-67 -87 -123 -236
-123 -327 0 -94 56 -249 121 -340 l32 -45 -41 -35 c-51 -44 -134 -166 -160
-237 -32 -84 -45 -194 -32 -271 12 -78 47 -194 66 -222 8 -11 14 -22 14 -26 0
-3 -26 -22 -58 -42 -113 -70 -258 -253 -221 -279 12 -8 11 -9 -3 -5 -12 4 -20
-6 -33 -46 -31 -94 -31 -221 1 -358 5 -23 2 -27 -38 -38 -84 -25 -196 -98
-273 -179 -80 -84 -154 -298 -143 -412 l5 -48 -65 -12 c-141 -24 -266 -91
-358 -193 -76 -82 -141 -217 -158 -327 l-6 -35 -62 4 c-178 10 -382 -79 -493
-215 -49 -61 -96 -140 -116 -197 l-13 -38 -46 8 c-25 4 -103 8 -175 7 -146 -1
-212 -17 -207 -50 2 -16 1 -17 -7 -4 -9 13 -18 11 -66 -14 -88 -45 -165 -122
-245 -245 l-16 -24 -43 22 c-65 33 -186 61 -265 61 -153 0 -288 -57 -411 -172
l-74 -69 -38 30 c-65 51 -203 110 -285 121 -76 9 -193 0 -258 -21 -46 -15
-158 -73 -190 -98 l-25 -20 -51 53 c-119 121 -244 177 -419 184 -92 4 -124 1
-189 -17 -43 -12 -90 -28 -106 -36 -28 -14 -28 -14 -63 43 -41 67 -143 167
-207 205 -91 53 -217 87 -319 87 -56 0 -139 -12 -172 -25 -13 -5 -24 11 -52
69 -121 255 -302 377 -564 380 l-92 1 -7 50 c-8 65 -54 189 -89 245 -43 68
-136 153 -212 193 -78 40 -190 77 -237 77 l-33 0 5 56 c6 67 -13 190 -40 261
-21 58 -74 140 -122 191 -42 46 -163 126 -223 148 -26 9 -49 18 -51 19 -1 1 5
33 14 71 12 50 15 95 11 164 -8 139 -51 251 -138 359 -45 55 -147 142 -180
153 -7 2 -2 22 14 54 38 75 58 165 59 263 1 171 -56 315 -179 442 l-44 45 45
67 c79 118 112 241 103 385 -7 120 -63 270 -124 334 l-26 28 49 52 c56 60 113
137 138 187 71 138 71 355 2 507 l-24 53 67 50 c143 106 230 230 261 372 12
55 9 245 -5 299 -6 24 -3 27 48 43 81 25 197 105 255 176 95 114 151 265 152
409 l0 62 34 0 c53 0 184 45 254 87 75 46 150 118 200 193 40 60 92 195 92
239 l0 28 113 5 c133 7 209 29 314 94 98 61 175 148 226 257 39 81 44 87 67
82 14 -3 66 -11 115 -17 75 -9 103 -8 170 5 161 33 326 143 406 270 18 29 34
53 35 55 1 2 19 -5 41 -16 121 -62 314 -76 448 -34 92 28 186 85 249 148 28
29 54 52 58 53 4 0 27 -14 50 -32z m-2576 -204 c-3 -16 -10 -73 -17 -128 -6
-55 -13 -102 -15 -104 -6 -6 -189 0 -241 8 l-42 6 18 40 c36 81 202 205 274
205 26 0 28 -3 23 -27z m5958 -82 c67 -35 159 -122 185 -173 11 -23 19 -44 17
-46 -8 -8 -261 -30 -267 -24 -3 4 -14 57 -24 117 -9 61 -19 122 -22 138 -5 26
-4 27 28 21 19 -4 56 -18 83 -33z m-5456 3 c59 -15 111 -30 116 -35 15 -14
-15 -68 -61 -108 -55 -49 -105 -73 -165 -79 -42 -4 -48 -2 -48 14 0 25 42 234
47 234 2 0 52 -12 111 -26z m4972 -61 c1 -10 9 -67 19 -127 l18 -108 -53 4
c-71 6 -158 59 -201 123 -18 26 -33 53 -33 60 0 9 175 56 243 64 4 1 7 -7 7
-16z m-6186 -505 c3 -24 8 -84 12 -134 l6 -90 -123 -18 c-68 -10 -132 -20
-141 -22 -42 -12 -2 102 63 183 41 51 134 123 159 123 13 0 19 -11 24 -42z
m572 32 c63 0 64 0 64 -28 0 -37 -46 -109 -101 -155 -40 -35 -124 -70 -141
-60 -5 2 -8 61 -8 130 l0 126 61 -7 c34 -3 91 -6 125 -6z m6304 -113 c0 -19
-3 -75 -6 -125 -6 -84 -9 -92 -27 -92 -68 0 -186 106 -211 189 l-13 46 81 6
c45 3 102 6 129 7 l47 2 0 -33z m457 1 c74 -44 167 -175 180 -251 l5 -33 -133
13 c-73 8 -135 16 -137 18 -2 2 0 67 4 144 8 158 5 155 81 109z m-7280 -573
c-7 -51 -21 -81 -66 -142 -29 -40 -116 -101 -127 -90 -8 8 -57 238 -52 243 7
6 169 32 212 33 l39 1 -6 -45z m7276 -74 c54 -10 100 -21 103 -24 4 -3 -6 -58
-22 -122 -28 -113 -29 -116 -53 -110 -76 19 -171 159 -171 252 0 28 10 29 143
4z m-7874 -108 c18 -65 35 -122 37 -128 6 -16 -256 -109 -269 -96 -15 15 8
107 45 182 33 66 114 159 139 159 10 0 25 -37 48 -117z m8399 -15 c67 -41 152
-205 152 -292 l0 -44 -127 40 c-71 22 -129 41 -130 42 -4 4 61 276 66 276 2 0
19 -10 39 -22z m-8241 -578 c-6 -73 -48 -161 -95 -200 -20 -16 -39 -30 -42
-30 -6 0 -100 214 -100 228 0 4 51 26 113 49 130 47 133 46 124 -47z m8233
-121 c0 -15 -102 -219 -110 -219 -22 0 -76 60 -101 115 -23 47 -29 74 -29 126
0 36 2 68 5 71 6 6 235 -84 235 -93z m-8775 -141 c33 -62 60 -116 60 -121 0
-4 -53 -41 -118 -82 l-118 -74 -9 25 c-29 75 16 250 84 332 15 17 31 32 35 32
4 0 34 -51 66 -112z m9229 -167 c26 -79 36 -200 18 -227 -5 -8 -43 9 -117 52
-60 35 -114 65 -118 67 -9 3 2 29 78 192 l37 80 38 -42 c25 -29 46 -68 64
-122z m-8964 -331 c21 -51 9 -179 -23 -232 -47 -80 -46 -81 -130 34 -42 56
-75 103 -74 104 11 10 203 124 208 124 4 0 12 -14 19 -30z m8643 -151 c51 -34
95 -65 100 -68 7 -7 -126 -193 -142 -199 -16 -6 -61 59 -76 110 -8 29 -15 72
-15 97 0 55 17 121 31 121 5 0 51 -28 102 -61z m-9104 -274 c76 -93 80 -100
63 -115 -9 -9 -56 -53 -104 -99 l-86 -83 -18 33 c-22 40 -25 199 -6 264 14 49
49 108 61 103 5 -2 45 -48 90 -103z m9550 -51 c29 -37 55 -164 48 -238 -6 -64
-24 -126 -36 -126 -9 0 -195 158 -199 170 -4 10 148 220 159 220 4 0 17 -12
28 -26z m-9180 -425 c25 -84 3 -228 -39 -254 -8 -5 -44 24 -100 80 l-87 87 90
85 91 85 17 -23 c9 -13 22 -39 28 -60z m8804 -246 c-38 -34 -72 -61 -78 -60
-19 5 -55 91 -55 130 0 24 11 59 27 89 l27 49 73 -73 73 -73 -67 -62z m633 40
c-10 -10 -19 5 -10 18 6 11 8 11 12 0 2 -7 1 -15 -2 -18z m-9839 -245 c54 -45
99 -82 101 -84 8 -5 -163 -224 -172 -221 -38 13 -82 176 -71 267 7 66 23 120
35 120 5 0 53 -37 107 -82z m9604 0 c21 -49 18 -220 -4 -284 -10 -29 -26 -59
-36 -68 -17 -15 -23 -10 -103 88 l-86 104 101 95 c56 53 105 96 108 96 4 1 13
-14 20 -31z m-9178 -356 c26 -29 55 -103 63 -160 6 -51 -9 -136 -27 -148 -10
-6 -210 127 -207 138 8 22 134 188 144 188 6 0 18 -8 27 -18z m8743 -155 c31
-43 55 -79 53 -81 -24 -22 -202 -125 -209 -121 -18 11 -32 90 -26 143 8 66 25
107 61 150 l28 34 19 -24 c9 -12 43 -58 74 -101z m-9031 -406 c55 -30 105 -58
112 -63 8 -6 -4 -43 -45 -133 -32 -68 -62 -125 -68 -125 -28 -1 -87 97 -110
185 -21 75 -17 203 5 193 3 -2 51 -27 106 -57z m9321 -36 c9 -52 -14 -167 -50
-242 -30 -61 -70 -113 -80 -102 -2 2 -31 57 -65 121 l-62 117 68 43 c37 24 90
57 117 75 28 17 54 29 58 27 4 -3 10 -20 14 -39z m-8780 -286 c42 -62 66 -146
59 -201 -8 -57 2 -57 -148 5 -54 22 -96 43 -95 47 2 4 25 54 53 113 l49 106
29 -17 c16 -9 40 -33 53 -53z m8242 -99 c50 -110 51 -111 29 -120 -74 -32
-212 -78 -217 -74 -3 3 -5 33 -5 67 1 46 8 78 29 125 28 60 74 112 100 112 7
0 35 -50 64 -110z m-8445 -460 c88 -27 117 -39 117 -52 0 -14 -42 -200 -56
-250 -15 -50 -133 79 -174 190 -29 76 -38 155 -19 151 8 -2 68 -20 132 -39z
m8645 -64 c-3 -33 -18 -82 -40 -128 -36 -77 -112 -168 -140 -168 -11 0 -26 36
-53 126 -20 69 -36 127 -34 128 10 8 246 95 258 96 10 0 12 -13 9 -54z m-8108
-106 c40 -20 96 -82 123 -135 19 -40 31 -111 19 -119 -18 -11 -242 27 -242 41
0 21 51 233 56 233 3 0 22 -9 44 -20z m7503 -147 c15 -64 25 -119 22 -121 -7
-8 -229 -40 -237 -35 -23 13 5 109 52 178 32 47 93 95 120 95 12 0 23 -28 43
-117z m-7469 -480 l59 -6 -5 -139 c-3 -76 -8 -141 -11 -144 -12 -12 -111 52
-154 101 -47 51 -103 155 -103 189 0 20 20 20 214 -1z m7566 -48 c0 -39 -46
-121 -98 -178 -47 -50 -125 -107 -147 -107 -12 0 -42 257 -32 267 6 5 213 40
250 42 23 1 27 -3 27 -24z m-7039 -16 c59 -29 123 -98 144 -152 10 -26 15 -51
11 -55 -6 -6 -244 -21 -249 -15 -1 1 -1 56 1 122 l3 121 25 0 c14 0 43 -9 65
-21z m6389 -137 l0 -128 -92 3 c-115 5 -158 11 -158 24 0 19 31 83 56 116 32
43 85 82 131 99 65 23 63 26 63 -114z m-5688 -433 c83 -42 172 -151 135 -164
-24 -9 -230 -56 -232 -53 -2 2 -12 55 -22 118 -13 80 -16 117 -9 123 16 12 82
-1 128 -24z m5028 -13 c0 -20 -41 -230 -45 -235 -2 -2 -56 9 -119 25 -86 21
-116 32 -116 44 0 46 99 138 180 166 49 18 100 18 100 0z m-5541 -58 c6 -29
15 -82 21 -118 6 -36 13 -75 15 -87 4 -19 1 -23 -17 -23 -37 0 -139 54 -192
101 -48 43 -106 121 -106 144 0 11 125 29 232 33 37 2 37 2 47 -50z m6158 -4
c41 -5 42 -5 31 -35 -27 -77 -186 -205 -268 -216 -22 -3 -40 -4 -40 -2 0 2 7
60 15 129 8 69 15 127 15 130 0 7 185 2 247 -6z m-4845 -361 c58 -26 137 -100
121 -113 -12 -11 -226 -101 -229 -97 -6 5 -84 219 -84 228 0 27 114 17 192
-18z m3468 2 c9 -5 -72 -235 -82 -235 -16 0 -218 96 -218 103 -1 37 89 106
173 133 37 12 107 11 127 -1z m-3978 -230 c26 -72 48 -132 48 -134 0 -2 -24
-1 -54 1 -76 6 -194 65 -256 127 -27 28 -50 54 -50 59 0 10 226 81 250 78 9
-1 32 -49 62 -131z m4483 70 c66 -15 123 -30 127 -34 14 -12 -36 -73 -93 -111
-67 -46 -140 -77 -189 -80 -72 -6 -71 -12 -27 130 23 72 46 129 52 127 5 -3
64 -17 130 -32z m-3132 -105 c36 -11 107 -63 107 -80 0 -10 -198 -145 -204
-139 -10 11 -117 192 -119 202 -6 33 122 43 216 17z m1769 0 c21 -6 40 -15 43
-20 3 -4 -23 -56 -58 -113 l-63 -105 -102 73 -103 73 31 30 c26 27 80 51 145
65 36 8 69 7 107 -3z m-841 -112 c21 -12 39 -24 39 -27 -1 -3 -39 -46 -85 -96
l-84 -89 -85 89 c-82 87 -84 91 -66 109 47 48 206 57 281 14z m-1410 -209 c67
-111 68 -114 46 -122 -59 -23 -229 17 -311 74 -69 47 -67 51 62 117 64 34 121
57 125 53 4 -5 39 -59 78 -122z m2757 52 c67 -30 122 -61 122 -67 0 -33 -123
-100 -222 -120 -69 -15 -162 -11 -156 6 11 31 124 239 129 237 3 -1 60 -27
127 -56z m-1775 -297 l26 -31 -27 -13 c-45 -21 -179 -24 -252 -6 -65 16 -115
44 -115 64 0 5 45 46 100 90 l99 79 72 -76 c39 -42 83 -90 97 -107z m859 95
c62 -44 114 -84 116 -89 6 -17 -105 -60 -183 -71 -61 -9 -93 -9 -135 0 -93 20
-93 17 1 135 46 58 85 105 86 105 1 1 53 -35 115 -80z"/>
<path d="M340 6770 c-79 -10 -151 -36 -250 -92 l-75 -43 -3 -275 -2 -274 90
-91 c85 -86 90 -92 73 -107 -31 -27 -59 -37 -117 -44 l-56 -7 0 -185 0 -185
71 7 c127 13 250 60 342 130 26 20 49 36 52 36 3 0 26 -16 52 -36 92 -70 215
-117 342 -130 l71 -7 0 185 0 185 -54 6 c-48 5 -84 18 -123 45 -9 6 15 36 82
103 l95 95 0 272 0 271 -71 42 c-107 62 -178 88 -276 99 -98 11 -148 11 -243
0z m274 -384 c20 -8 36 -19 36 -23 0 -5 -41 -49 -90 -98 l-90 -90 -95 95
c-105 104 -104 101 -15 127 57 16 204 10 254 -11z"/>
</g>
</svg>
